{"glyphs":{"0":{"ha":714,"x_min":49,"x_max":665,"o":"m 361 783 q 167 411 167 783 q 214 145 167 228 q 360 63 261 63 q 503 147 458 63 q 549 418 549 232 q 503 694 549 604 q 361 783 457 783 m 665 421 q 358 -21 665 -21 q 49 421 49 -21 q 360 867 49 863 q 591 757 517 869 q 665 421 665 644 z "},"1":{"ha":515,"x_min":53,"x_max":461,"o":"m 415 0 l 76 0 l 76 11 q 125 71 76 67 l 213 74 l 213 732 l 118 699 q 72 713 92 690 q 53 754 53 736 l 229 853 q 286 867 253 867 q 331 813 331 867 l 331 76 l 461 68 q 415 0 468 0 z "},"2":{"ha":660,"x_min":51,"x_max":613,"o":"m 71 681 q 144 813 71 758 q 332 867 218 867 q 515 804 446 867 q 585 639 585 742 q 547 486 585 561 q 464 351 501 396 q 406 281 426 306 q 347 220 386 257 q 292 169 307 183 q 240 121 278 154 q 199 85 201 88 l 528 86 l 539 169 q 568 213 543 201 q 613 215 593 224 l 613 0 l 63 0 q 51 61 49 42 q 111 117 57 67 q 181 184 165 168 q 246 250 197 200 q 314 326 294 300 q 369 399 333 351 q 419 479 404 446 q 460 637 460 572 q 423 743 460 701 q 318 785 386 785 q 167 593 167 785 q 99 612 128 592 q 71 681 71 632 z "},"3":{"ha":619,"x_min":47,"x_max":583,"o":"m 328 519 q 394 578 368 539 q 419 671 419 617 q 388 757 419 725 q 297 789 356 789 q 206 751 238 789 q 172 653 174 713 q 104 676 128 654 q 83 732 81 697 q 149 828 88 789 q 310 867 211 867 q 476 815 410 867 q 542 674 542 763 q 500 551 542 608 q 368 461 458 494 q 525 389 467 449 q 583 240 583 329 q 496 54 583 129 q 268 -21 408 -21 q 108 17 169 -21 q 47 114 47 54 q 122 190 47 181 q 169 96 129 132 q 285 60 210 60 q 410 108 360 60 q 458 228 460 156 q 413 341 457 301 q 311 390 368 381 q 185 394 254 400 l 183 483 q 328 519 249 483 z "},"4":{"ha":658,"x_min":25,"x_max":638,"o":"m 638 274 l 638 190 l 514 190 l 514 0 l 399 -14 l 399 190 l 57 190 q 25 265 28 233 l 414 854 q 513 858 465 867 l 514 274 l 638 274 m 399 274 l 399 697 l 124 274 l 399 274 z "},"5":{"ha":610,"x_min":50,"x_max":576,"o":"m 311 528 q 502 466 428 528 q 576 274 576 404 q 490 62 576 144 q 267 -21 403 -21 q 108 14 167 -21 q 50 106 50 49 q 72 157 50 140 q 121 174 93 174 q 271 58 138 58 q 404 115 353 58 q 456 262 456 171 q 403 392 456 353 q 278 431 351 431 q 132 399 206 431 l 114 408 l 133 854 l 517 853 l 508 757 l 210 757 l 200 514 q 311 528 258 528 z "},"6":{"ha":663,"x_min":64,"x_max":619,"o":"m 190 440 q 390 497 285 497 q 557 435 494 497 q 619 256 619 372 q 545 59 619 139 q 344 -21 471 -21 q 64 353 64 -21 q 158 734 64 601 q 418 867 251 867 q 540 840 497 867 q 582 778 582 814 q 506 699 582 701 q 481 765 506 739 q 404 790 456 790 q 258 701 314 790 q 190 440 201 613 m 188 354 q 351 58 188 58 q 460 106 422 58 q 499 240 499 154 q 346 414 499 414 q 188 363 256 414 l 188 354 z "},"7":{"ha":551,"x_min":31,"x_max":539,"o":"m 31 854 l 525 854 q 539 797 539 829 l 194 -14 l 76 26 l 428 760 l 114 757 l 103 678 q 69 644 99 654 q 31 643 40 633 l 31 854 z "},"8":{"ha":640,"x_min":54,"x_max":599,"o":"m 599 239 q 521 58 599 136 q 318 -21 443 -21 q 125 40 193 -21 q 55 185 57 100 q 101 334 53 269 q 228 444 150 399 q 104 647 104 526 q 169 803 104 740 q 335 867 233 867 q 499 816 438 867 q 561 678 561 765 q 428 465 561 554 q 553 367 508 418 q 599 239 599 317 m 456 667 q 424 760 456 726 q 338 793 392 793 q 248 760 285 793 q 211 676 211 728 q 249 586 211 624 q 369 499 286 549 q 456 667 456 571 m 289 407 q 202 316 235 369 q 169 201 169 263 q 209 97 169 139 q 326 56 249 56 q 447 97 403 56 q 492 196 492 138 q 452 297 492 254 q 338 381 413 339 l 289 407 z "},"9":{"ha":626,"x_min":25,"x_max":581,"o":"m 300 867 q 581 490 581 867 q 487 111 581 243 q 225 -21 393 -21 q 106 6 149 -21 q 63 76 63 33 q 80 125 63 103 q 139 147 97 147 q 165 82 139 108 q 239 56 190 56 q 387 145 331 56 q 454 407 443 235 q 256 349 361 349 q 88 411 150 349 q 25 590 25 474 q 99 787 25 707 q 300 867 174 867 m 457 492 q 294 789 457 789 q 185 741 224 789 q 146 607 146 693 q 297 432 146 432 q 457 485 389 432 l 457 492 z "},"\u0000":{"ha":0,"x_min":0,"x_max":0,"o":""},"\r":{"ha":0,"x_min":0,"x_max":0,"o":""}," ":{"ha":372,"x_min":0,"x_max":0,"o":""},"!":{"ha":342,"x_min":86,"x_max":254,"o":"m 254 64 q 254 46 254 64 q 230 3 254 28 q 170 -21 206 -21 q 110 3 135 -21 q 86 64 86 28 q 110 124 86 100 q 171 149 135 149 q 231 124 207 149 q 254 64 254 100 m 131 279 l 111 964 q 242 971 168 986 l 210 279 q 131 279 171 267 z "},"\"":{"ha":433,"x_min":72,"x_max":367,"o":"m 96 683 l 72 949 q 201 956 129 968 l 169 683 q 96 683 135 676 m 261 683 l 238 949 q 367 956 294 968 l 335 683 q 261 683 300 676 z "},"#":{"ha":975,"x_min":71,"x_max":904,"o":"m 643 349 l 826 349 q 856 264 854 313 l 624 264 l 561 24 l 468 24 l 531 264 l 311 264 l 250 24 l 157 24 l 219 264 l 103 264 q 71 349 75 297 l 239 349 l 303 594 l 150 594 q 118 678 122 631 l 322 678 l 383 913 l 476 913 l 415 678 l 635 678 l 694 913 l 788 913 l 726 678 l 874 678 q 904 594 900 650 l 707 594 l 643 349 m 550 349 l 614 594 l 396 594 l 332 349 l 550 349 z "},"$":{"ha":663,"x_min":58,"x_max":604,"o":"m 568 708 q 542 647 568 668 q 481 628 517 625 q 332 769 481 769 q 225 738 267 769 q 183 654 183 707 q 246 547 183 588 q 392 476 286 521 q 551 384 499 432 q 604 241 604 336 q 538 71 604 146 q 361 -19 471 -4 l 371 -147 q 320 -156 353 -156 q 271 -147 288 -156 l 281 -21 q 125 25 192 -14 q 58 125 58 64 q 81 185 58 161 q 146 208 103 208 q 326 57 167 57 q 454 94 404 57 q 504 201 504 131 q 460 309 504 272 q 313 388 417 346 q 144 482 208 431 q 81 619 81 533 q 137 763 81 706 q 282 840 193 821 l 271 971 q 319 979 288 979 q 371 971 351 979 l 361 849 q 504 813 440 846 q 568 708 568 779 z "},"%":{"ha":1068,"x_min":63,"x_max":1006,"o":"m 819 461 q 1006 224 1006 461 q 956 42 1006 104 q 817 -21 907 -21 q 678 39 728 -21 q 629 218 629 99 q 678 399 629 338 q 819 461 726 461 m 917 220 q 917 308 917 220 q 817 396 917 396 q 717 220 717 396 q 815 44 717 44 q 917 220 917 44 m 253 868 q 438 631 438 868 q 389 448 438 510 q 251 386 340 386 q 112 446 161 386 q 63 625 63 506 q 111 806 63 744 q 253 868 160 868 m 350 627 q 350 715 350 627 q 249 803 350 803 q 149 627 149 803 q 249 451 149 451 q 350 627 350 451 m 833 867 l 342 0 l 236 0 l 729 867 l 833 867 z "},"&":{"ha":1015,"x_min":53,"x_max":996,"o":"m 711 160 q 888 76 826 76 q 976 115 950 76 q 996 65 996 99 q 967 4 996 32 q 885 -24 939 -24 q 640 82 788 -24 q 347 -25 517 -25 q 128 42 204 -25 q 53 215 53 110 q 97 362 53 290 q 235 485 140 433 q 133 717 133 618 q 197 877 133 817 q 357 938 260 938 q 517 886 454 938 q 579 743 579 835 q 520 581 579 651 q 378 479 461 510 q 408 444 397 457 q 649 208 526 308 q 728 389 701 285 l 643 397 q 686 463 636 463 l 901 463 q 901 451 900 458 q 901 434 903 443 q 894 417 899 425 q 857 396 888 399 l 813 393 q 711 160 781 258 m 474 742 q 474 774 474 742 q 440 835 474 806 q 356 865 406 865 q 274 829 307 865 q 240 738 240 793 q 339 529 240 658 q 440 620 407 561 q 474 742 474 679 m 169 238 q 221 111 169 161 q 379 61 272 61 q 575 132 486 61 q 335 365 465 222 q 279 429 304 397 q 169 238 169 353 z "},"'":{"ha":268,"x_min":69,"x_max":199,"o":"m 93 683 l 69 949 q 199 956 126 968 l 167 683 q 93 683 132 676 z "},"(":{"ha":399,"x_min":78,"x_max":372,"o":"m 196 364 q 248 26 196 175 q 368 -214 300 -122 l 317 -262 q 146 1 214 -157 q 78 361 78 158 q 149 730 78 564 q 322 999 221 896 l 372 956 q 196 364 196 688 z "},")":{"ha":399,"x_min":26,"x_max":321,"o":"m 249 730 q 285 647 249 730 q 321 361 321 564 q 253 1 321 158 q 82 -262 185 -157 l 31 -214 q 151 26 99 -122 q 203 364 203 175 q 26 956 203 688 l 76 999 q 249 730 178 896 z "},"*":{"ha":756,"x_min":83,"x_max":600,"o":"m 369 775 l 561 876 q 600 749 600 821 l 383 722 l 542 571 q 493 524 525 547 q 432 493 461 501 l 342 686 l 251 494 q 191 525 224 501 q 143 572 158 549 l 299 721 l 83 747 q 122 876 86 832 l 314 774 l 274 988 q 341 997 301 997 q 407 988 381 996 l 369 775 z "},"+":{"ha":676,"x_min":69,"x_max":607,"o":"m 607 433 l 607 346 l 385 346 l 385 121 l 293 121 l 293 346 l 69 346 l 69 433 l 293 433 l 293 658 l 385 658 l 385 433 l 607 433 z "},",":{"ha":290,"x_min":61,"x_max":229,"o":"m 84 123 q 95 134 84 123 q 144 146 107 146 q 206 122 182 146 q 229 47 229 99 q 188 -71 229 -6 q 99 -156 146 -136 q 78 -148 90 -160 q 65 -129 65 -136 q 133 -22 113 -99 q 81 6 100 -18 q 61 65 61 31 q 84 123 61 100 z "},"-":{"ha":546,"x_min":64,"x_max":482,"o":"m 64 400 l 482 400 l 482 307 l 64 307 l 64 400 z "},".":{"ha":292,"x_min":61,"x_max":229,"o":"m 229 64 q 229 46 229 64 q 205 3 229 28 q 145 -21 181 -21 q 85 3 110 -21 q 61 64 61 28 q 85 124 61 100 q 146 149 110 149 q 206 124 182 149 q 229 64 229 100 z "},"/":{"ha":547,"x_min":28,"x_max":519,"o":"m 135 -165 l 28 -165 l 413 967 l 519 967 l 135 -165 z "},":":{"ha":296,"x_min":61,"x_max":235,"o":"m 235 507 q 235 488 235 507 q 210 444 235 469 q 148 419 185 419 q 86 444 111 419 q 61 507 61 469 q 86 569 61 544 q 148 594 111 594 q 210 569 185 594 q 235 507 235 544 m 235 66 q 235 48 235 66 q 210 4 235 29 q 148 -21 185 -21 q 86 4 111 -21 q 61 66 61 29 q 86 128 61 103 q 148 153 111 153 q 210 128 185 153 q 235 66 235 103 z "},";":{"ha":306,"x_min":61,"x_max":244,"o":"m 99 112 q 111 123 99 112 q 160 135 122 135 q 221 111 197 135 q 244 35 244 88 q 203 -82 244 -17 q 114 -167 161 -147 q 93 -159 106 -171 q 81 -140 81 -147 q 149 -33 128 -110 q 96 -5 115 -29 q 76 54 76 19 q 99 112 76 89 m 206 463 q 194 451 206 463 q 146 439 182 439 q 85 463 110 439 q 61 524 61 488 q 85 584 61 560 q 145 608 110 608 q 205 584 181 608 q 229 524 229 560 q 206 463 229 488 z "},"<":{"ha":653,"x_min":50,"x_max":581,"o":"m 581 596 l 192 394 l 578 196 l 533 113 l 50 364 l 50 426 l 536 679 l 581 596 z "},"=":{"ha":676,"x_min":69,"x_max":607,"o":"m 69 338 l 607 338 l 607 250 l 69 250 l 69 338 m 69 535 l 607 535 l 607 447 l 69 447 l 69 535 z "},">":{"ha":636,"x_min":56,"x_max":586,"o":"m 103 439 l 586 410 l 586 401 l 100 371 l 56 382 l 444 406 l 58 429 l 103 439 z "},"?":{"ha":682,"x_min":64,"x_max":619,"o":"m 229 124 q 241 136 229 124 q 289 149 253 149 q 349 124 325 149 q 374 64 374 100 q 349 3 374 28 q 290 -21 325 -21 q 230 3 254 -21 q 206 64 206 28 q 229 124 206 100 m 64 797 q 138 928 64 868 q 341 989 213 989 q 544 925 469 989 q 619 750 619 861 q 536 558 619 639 q 338 453 453 476 l 329 272 q 249 272 297 265 l 242 511 q 424 601 353 540 q 494 750 494 661 q 453 863 494 817 q 330 910 411 910 q 203 850 249 910 q 158 722 158 790 q 64 797 64 722 z "},"@":{"ha":1375,"x_min":90,"x_max":1283,"o":"m 714 -228 q 262 -70 433 -228 q 90 352 90 88 q 265 783 90 617 q 724 950 439 950 q 1130 828 976 950 q 1283 508 1283 706 q 1169 192 1283 310 q 867 74 1054 74 q 799 88 819 74 q 779 142 778 101 q 586 64 686 64 q 429 135 486 64 q 389 351 372 206 q 490 585 406 496 q 713 675 575 675 q 849 643 788 675 l 850 657 l 961 667 l 890 149 q 1116 240 1031 146 q 1201 499 1201 333 q 1069 770 1201 664 q 722 876 938 876 q 328 732 478 876 q 178 356 178 588 q 329 -15 178 124 q 728 -154 481 -154 q 1040 -75 919 -154 l 1057 -144 q 714 -228 901 -228 m 833 542 q 700 596 785 596 q 567 528 615 596 q 504 367 518 460 q 521 213 490 274 q 626 153 551 153 q 789 221 700 153 l 833 542 z "},"A":{"ha":868,"x_min":15,"x_max":850,"o":"m 804 0 l 521 0 l 521 11 q 569 72 521 68 l 626 75 l 558 314 l 276 314 l 207 78 l 315 69 q 269 0 322 0 l 15 0 l 15 11 q 64 72 15 68 l 118 75 l 386 944 q 492 944 439 950 l 757 78 l 850 69 q 804 0 857 0 m 299 390 l 538 390 l 419 800 l 299 390 z "},"B":{"ha":775,"x_min":58,"x_max":738,"o":"m 103 946 l 401 946 q 621 881 549 946 q 693 718 693 815 q 533 500 693 561 q 679 428 621 485 q 738 281 738 372 q 651 74 739 149 q 408 0 563 0 l 58 0 q 62 35 60 22 q 74 58 64 47 q 104 71 85 69 l 163 76 l 163 868 l 61 876 q 63 906 60 885 q 103 946 69 946 m 285 872 l 285 522 l 336 522 q 511 569 457 522 q 565 708 565 617 q 508 842 565 800 q 349 876 450 883 l 288 872 l 285 872 m 611 265 q 549 413 611 369 q 353 456 486 457 l 285 454 l 285 78 l 374 76 q 611 265 611 72 z "},"C":{"ha":793,"x_min":51,"x_max":754,"o":"m 479 964 q 670 913 594 964 q 746 786 746 861 q 643 694 746 697 q 597 829 643 782 q 467 876 550 876 q 254 765 328 876 q 181 471 181 653 q 485 75 181 75 q 736 160 629 75 q 754 125 754 151 q 666 28 754 78 q 453 -21 578 -21 q 158 103 260 -21 q 52 451 56 228 q 161 819 49 675 q 479 964 274 964 z "},"D":{"ha":942,"x_min":58,"x_max":890,"o":"m 111 946 l 413 946 q 774 831 658 946 q 890 481 890 715 q 768 123 890 246 q 415 0 646 0 l 58 0 q 101 71 54 68 l 161 76 l 161 867 l 61 875 q 111 946 58 946 m 381 75 q 667 167 571 69 q 763 476 763 264 q 663 783 763 689 q 357 871 564 878 l 285 868 l 283 868 l 283 78 l 381 75 z "},"E":{"ha":775,"x_min":57,"x_max":721,"o":"m 721 200 l 721 0 l 57 0 l 57 11 q 106 72 57 68 l 163 75 l 163 865 l 61 875 q 108 943 54 943 l 700 943 l 700 743 q 631 701 700 694 l 618 861 l 283 867 l 283 503 l 546 525 q 546 414 557 472 l 283 428 l 283 78 l 639 88 l 651 242 q 721 200 721 249 z "},"F":{"ha":719,"x_min":57,"x_max":696,"o":"m 696 943 l 696 751 q 626 710 696 703 l 611 863 l 286 867 l 286 517 l 546 538 q 547 426 558 483 l 286 442 l 286 78 l 408 69 q 363 0 415 0 l 57 0 l 57 11 q 106 72 57 68 l 163 75 l 163 865 l 61 875 q 108 943 54 943 l 696 943 z "},"G":{"ha":894,"x_min":51,"x_max":872,"o":"m 554 429 l 872 429 q 872 419 872 429 q 824 357 872 363 l 786 353 l 783 353 l 783 107 q 646 15 740 50 q 447 -21 551 -21 q 158 101 260 -21 q 52 452 56 224 q 164 824 49 681 q 494 967 279 967 q 715 914 640 967 q 789 788 789 861 q 763 721 789 747 q 686 694 738 694 q 635 840 686 793 q 476 886 583 886 q 254 774 328 886 q 181 468 181 661 q 479 69 181 69 q 678 132 608 69 l 678 350 l 510 358 q 554 429 503 429 z "},"H":{"ha":1011,"x_min":57,"x_max":954,"o":"m 904 0 l 622 0 l 622 11 q 671 72 622 68 l 728 75 l 728 432 l 283 432 l 283 78 l 386 69 q 340 0 393 0 l 57 0 l 57 11 q 106 72 57 68 l 163 75 l 163 865 l 61 874 q 107 943 54 943 l 390 943 l 390 931 q 342 872 390 876 l 285 868 l 285 508 l 728 508 l 728 865 l 628 874 q 672 943 621 943 l 954 943 l 954 931 q 906 872 954 876 l 850 868 l 850 78 l 950 69 q 904 0 957 0 z "},"I":{"ha":447,"x_min":57,"x_max":390,"o":"m 340 0 l 57 0 l 57 11 q 106 72 57 68 l 163 75 l 163 865 l 61 874 q 107 943 54 943 l 390 943 l 390 931 q 342 872 390 876 l 285 868 l 283 868 l 283 78 l 285 78 l 386 69 q 340 0 393 0 z "},"J":{"ha":489,"x_min":-1,"x_max":444,"o":"m 157 943 l 444 943 l 444 931 q 396 872 444 876 l 343 868 l 343 185 q 283 -10 343 65 q 121 -86 224 -86 q 33 -59 68 -86 q -1 7 -1 -32 q 81 82 -1 83 q 150 1 83 1 q 204 39 186 1 q 222 172 222 76 l 222 865 l 221 865 l 111 874 q 157 943 104 943 z "},"K":{"ha":850,"x_min":57,"x_max":821,"o":"m 815 943 q 767 872 815 872 l 711 868 l 422 514 l 733 75 l 819 67 q 821 42 821 57 q 808 14 821 28 q 774 0 794 0 l 636 0 l 343 417 l 283 344 l 283 78 l 392 69 q 346 0 399 0 l 57 0 l 57 11 q 106 72 57 68 l 163 75 l 163 865 l 61 874 q 107 943 54 943 l 390 943 l 390 931 q 342 872 390 876 l 285 868 l 283 460 l 610 867 l 521 874 q 565 943 514 943 l 815 943 z "},"L":{"ha":746,"x_min":57,"x_max":714,"o":"m 714 208 l 714 0 l 57 0 l 57 11 q 106 72 57 68 l 163 75 l 163 867 l 63 875 q 107 946 56 946 l 403 946 l 403 933 q 381 881 403 893 q 354 874 369 875 l 285 869 l 283 869 l 283 78 l 628 86 l 644 250 q 714 208 714 257 z "},"M":{"ha":1156,"x_min":18,"x_max":1136,"o":"m 1090 0 l 815 0 l 815 11 q 864 72 815 68 l 918 75 l 867 786 l 608 165 q 539 160 568 154 l 268 763 l 219 78 l 324 69 q 279 0 331 0 l 18 0 l 18 11 q 67 72 18 68 l 126 75 l 186 867 l 89 875 q 133 946 82 946 l 321 946 l 592 339 l 836 946 l 1033 946 q 1078 875 1085 946 l 981 867 l 1042 81 l 1136 69 q 1090 0 1143 0 z "},"N":{"ha":954,"x_min":57,"x_max":925,"o":"m 679 943 l 925 943 l 925 931 q 876 872 925 876 l 818 868 l 818 17 q 736 0 785 0 l 247 746 l 247 78 l 349 69 q 303 0 356 0 l 57 0 l 57 11 q 106 72 57 68 l 163 75 l 163 865 l 61 874 q 107 943 54 943 l 264 943 l 735 225 l 735 865 l 633 874 q 679 943 626 943 z "},"O":{"ha":910,"x_min":53,"x_max":858,"o":"m 456 880 q 386 880 456 880 q 247 772 317 879 q 178 473 178 664 q 245 173 178 282 q 452 65 313 64 q 663 172 592 65 q 733 469 733 279 q 665 770 733 660 q 456 880 596 881 m 474 964 q 735 861 626 964 q 824 715 790 810 q 858 492 857 619 q 749 118 860 257 q 432 -21 638 -21 q 156 103 256 -21 q 53 456 56 228 q 161 824 50 683 q 474 964 272 964 z "},"P":{"ha":781,"x_min":57,"x_max":753,"o":"m 103 946 l 404 946 q 664 874 575 946 q 753 681 753 801 q 649 448 753 525 q 368 371 546 371 q 283 374 336 371 l 283 78 l 393 69 q 349 0 400 0 l 57 0 l 57 11 q 106 72 57 68 l 163 75 l 163 868 l 61 876 q 103 946 57 946 m 283 443 l 353 442 q 626 666 626 442 q 364 876 626 890 l 283 874 l 283 443 z "},"Q":{"ha":924,"x_min":53,"x_max":869,"o":"m 858 -75 q 869 -119 869 -89 q 841 -173 869 -150 q 778 -196 813 -196 q 717 -190 744 -196 q 657 -172 689 -185 q 600 -147 625 -158 q 538 -115 575 -136 q 482 -83 501 -94 q 375 -17 433 -53 q 140 124 225 3 q 53 446 56 246 q 161 824 50 683 q 474 964 272 964 q 735 861 626 964 q 824 715 790 810 q 858 492 857 619 q 771 148 860 282 q 515 -14 682 14 q 788 -97 699 -97 q 858 -75 824 -97 m 456 880 q 386 880 456 880 q 247 772 317 879 q 178 473 178 664 q 245 173 178 282 q 452 65 313 64 q 663 172 592 65 q 733 469 733 279 q 665 770 733 660 q 456 880 596 881 z "},"R":{"ha":822,"x_min":57,"x_max":813,"o":"m 103 946 l 411 946 q 726 710 726 946 q 658 529 726 599 q 471 439 589 460 q 647 170 554 267 q 813 74 740 74 q 785 6 810 32 q 721 -21 760 -21 q 531 124 635 -21 q 369 431 428 268 l 368 431 q 285 433 314 431 l 285 78 l 393 69 q 349 0 400 0 l 57 0 l 57 11 q 106 72 57 68 l 163 75 l 163 868 l 61 876 q 103 946 58 946 m 285 874 l 285 503 q 351 500 332 500 q 537 551 474 500 q 600 701 600 601 q 539 841 600 801 q 371 876 478 881 l 286 874 l 285 874 z "},"S":{"ha":704,"x_min":35,"x_max":667,"o":"m 579 903 q 622 812 622 865 q 594 735 622 758 q 524 714 565 711 q 358 879 524 879 q 233 844 282 879 q 183 753 183 808 q 216 662 183 699 q 288 604 249 625 q 367 567 328 583 q 606 438 544 493 q 667 286 667 383 q 572 68 667 157 q 319 -21 476 -21 q 121 24 207 -21 q 35 147 35 69 q 60 214 35 188 q 135 240 86 240 q 342 64 157 64 q 498 113 439 64 q 557 243 557 163 q 511 350 557 311 q 481 374 490 367 q 440 398 472 382 q 398 418 408 414 q 333 447 388 422 q 242 490 278 471 q 160 542 206 508 q 74 717 74 604 q 160 896 74 829 q 374 964 247 963 q 579 903 506 967 z "},"T":{"ha":850,"x_min":28,"x_max":822,"o":"m 28 943 l 822 943 l 822 768 q 753 724 822 719 l 743 863 l 488 863 l 488 78 l 594 69 q 550 0 601 0 l 254 0 l 254 11 q 303 72 254 68 l 365 75 l 365 863 l 108 863 l 97 724 q 28 768 28 719 l 28 943 z "},"U":{"ha":907,"x_min":26,"x_max":881,"o":"m 636 943 l 881 943 l 881 931 q 832 872 881 876 l 778 868 l 778 367 q 440 -21 778 -21 q 204 73 281 -21 q 128 356 128 167 l 128 865 l 26 874 q 72 943 19 943 l 354 943 l 354 931 q 306 872 354 876 l 249 868 l 249 353 q 300 132 249 201 q 457 63 351 63 q 692 344 692 63 l 692 865 l 592 874 q 636 943 585 943 z "},"V":{"ha":865,"x_min":6,"x_max":861,"o":"m 632 943 l 861 943 l 861 932 q 813 872 861 876 l 782 868 l 472 0 l 378 0 l 86 865 l 6 874 q 50 943 -1 943 l 326 943 l 326 931 q 278 872 326 876 l 221 868 l 444 158 l 689 865 l 586 874 q 632 943 579 943 z "},"W":{"ha":1324,"x_min":6,"x_max":1318,"o":"m 1094 943 l 1318 943 q 1318 931 1318 943 q 1297 881 1318 892 q 1247 869 1288 874 l 968 0 l 867 0 l 663 642 l 440 0 l 340 0 l 82 865 l 6 874 q 50 943 -1 943 l 319 943 l 319 931 q 271 872 319 876 l 218 868 l 408 161 l 639 856 l 731 856 l 935 158 l 1150 865 l 1050 874 q 1094 943 1043 943 z "},"X":{"ha":893,"x_min":19,"x_max":876,"o":"m 831 0 l 549 0 l 549 10 q 597 72 549 67 l 640 75 l 642 75 l 428 390 l 226 78 l 322 69 q 276 0 329 0 l 19 0 l 19 11 q 68 72 19 68 l 117 75 l 381 458 l 104 867 l 19 875 q 64 946 13 946 l 347 946 l 347 936 q 299 874 347 879 l 251 869 l 465 554 l 661 867 l 565 875 q 611 946 558 946 l 861 946 l 861 933 q 813 874 861 878 l 775 871 l 771 871 l 513 483 l 789 78 l 876 69 q 831 0 883 0 z "},"Y":{"ha":839,"x_min":6,"x_max":835,"o":"m 603 946 l 835 946 l 835 933 q 786 874 835 878 l 756 869 l 485 389 l 485 78 l 586 69 q 540 0 593 0 l 256 0 l 256 11 q 304 72 256 68 l 361 75 l 361 386 l 86 867 l 6 875 q 50 946 -1 946 l 333 946 l 333 936 q 325 894 333 904 q 285 874 307 874 l 228 869 l 226 869 l 447 475 l 660 867 l 558 875 q 603 946 551 946 z "},"Z":{"ha":764,"x_min":26,"x_max":722,"o":"m 721 0 l 46 0 q 26 49 32 26 l 558 869 l 185 857 l 169 736 q 142 685 165 697 q 92 678 119 672 l 92 951 l 699 951 q 722 906 718 932 l 190 78 l 626 96 l 644 224 q 721 281 653 292 l 721 0 z "},"[":{"ha":335,"x_min":96,"x_max":308,"o":"m 196 911 l 196 -164 l 308 -164 l 308 -235 l 96 -235 l 96 982 l 308 982 l 308 911 l 196 911 z "},"\\":{"ha":547,"x_min":26,"x_max":518,"o":"m 518 -165 l 411 -165 l 26 967 l 133 967 l 518 -165 z "},"]":{"ha":326,"x_min":26,"x_max":239,"o":"m 139 -164 l 139 911 l 26 911 l 26 982 l 239 982 l 239 -235 l 26 -235 l 26 -164 l 139 -164 z "},"^":{"ha":689,"x_min":75,"x_max":613,"o":"m 613 283 l 506 283 l 349 715 l 183 283 l 75 283 l 318 907 l 383 907 l 613 283 z "},"_":{"ha":540,"x_min":-50,"x_max":589,"o":"m -50 -112 l 589 -112 l 589 -197 l -50 -197 l -50 -112 z "},"`":{"ha":693,"x_min":97,"x_max":422,"o":"m 376 749 l 97 899 q 138 947 110 924 q 193 974 167 971 l 422 794 q 376 749 407 764 z "},"a":{"ha":706,"x_min":57,"x_max":683,"o":"m 683 49 q 591 -22 683 -22 q 479 60 499 -22 q 280 -21 389 -21 q 114 29 171 -21 q 57 165 57 79 q 122 310 57 251 q 335 368 186 368 q 474 353 410 368 l 474 449 q 326 624 474 624 q 227 584 260 624 q 192 490 194 544 q 125 504 151 486 q 99 564 99 522 q 162 666 99 625 q 326 707 225 707 q 456 683 406 707 q 532 633 506 660 q 592 456 592 571 l 592 60 l 683 49 m 474 264 q 338 293 413 293 q 224 263 263 293 q 185 180 185 233 q 217 97 185 126 q 307 67 249 67 q 474 131 399 67 l 474 264 z "},"b":{"ha":781,"x_min":19,"x_max":729,"o":"m 242 615 q 453 707 339 707 q 647 623 568 707 q 728 367 725 539 q 644 87 732 194 q 394 -21 557 -21 q 238 14 314 -21 l 125 53 l 125 875 l 57 882 q 19 949 15 886 l 242 976 l 242 615 m 242 131 q 414 65 314 65 q 559 144 514 65 q 604 344 604 224 q 557 539 604 465 q 420 613 510 613 q 242 532 331 613 l 242 131 z "},"c":{"ha":636,"x_min":53,"x_max":596,"o":"m 385 707 q 533 669 478 707 q 588 567 588 631 q 560 502 588 522 q 497 485 533 482 q 463 579 496 539 q 364 619 431 619 q 224 543 272 619 q 176 347 176 467 q 225 149 176 226 q 379 72 274 72 q 574 146 485 72 q 596 104 596 132 q 516 21 596 63 q 342 -21 436 -21 q 130 72 206 -21 q 53 328 54 164 q 140 599 51 492 q 385 707 229 707 z "},"d":{"ha":768,"x_min":53,"x_max":747,"o":"m 747 51 q 649 -21 744 -21 q 542 72 554 -21 q 328 -21 443 -21 q 135 64 214 -21 q 53 321 56 149 q 138 600 50 493 q 388 707 225 707 q 540 674 469 707 l 540 875 l 472 882 q 435 949 431 886 l 657 976 l 657 61 l 747 51 m 540 556 q 368 621 468 621 q 222 541 268 621 q 176 342 176 461 q 224 147 176 222 q 361 72 272 72 q 540 154 450 72 l 540 556 z "},"e":{"ha":656,"x_min":53,"x_max":613,"o":"m 613 358 l 179 358 q 178 324 178 347 q 383 72 178 72 q 578 146 486 72 q 597 104 597 133 q 522 21 597 63 q 346 -21 446 -21 q 131 65 210 -21 q 53 326 53 151 q 144 604 53 501 q 365 707 235 707 q 555 626 496 707 q 613 429 614 546 l 613 358 m 456 574 q 439 600 456 574 q 358 625 422 625 q 249 574 294 625 q 186 431 204 524 l 493 431 q 456 574 490 524 z "},"f":{"ha":475,"x_min":57,"x_max":507,"o":"m 158 686 l 158 733 q 217 925 158 854 q 381 997 276 996 q 472 978 436 999 q 507 919 507 958 q 429 846 507 846 q 408 903 428 883 q 360 924 389 924 q 275 758 275 924 l 275 686 l 449 686 q 401 613 454 613 l 275 613 l 275 75 l 413 67 q 368 0 418 0 l 57 0 l 57 11 q 64 42 57 25 q 106 69 74 67 l 158 72 l 158 613 l 60 613 q 79 681 60 669 q 107 686 90 686 l 158 686 z "},"g":{"ha":651,"x_min":25,"x_max":642,"o":"m 297 210 q 229 217 264 210 q 199 156 196 175 q 231 138 201 142 q 335 131 261 133 q 565 90 496 128 q 635 -44 635 53 q 542 -242 635 -167 q 310 -317 450 -317 q 97 -264 169 -317 q 25 -122 25 -211 q 125 49 25 -33 q 96 117 96 69 q 165 240 96 165 q 54 435 61 297 q 120 628 49 549 q 313 707 192 707 q 454 669 397 707 l 628 715 q 642 669 640 699 q 628 625 643 639 q 511 617 607 614 q 551 455 553 557 q 481 281 549 353 q 297 210 414 210 m 303 629 q 272 628 303 629 q 203 579 240 628 q 167 456 167 531 q 202 332 167 381 q 301 285 238 283 q 401 335 364 286 q 438 459 438 385 q 402 582 438 533 q 303 629 367 631 m 119 -98 q 119 -128 119 -98 q 174 -190 119 -158 q 326 -222 228 -222 q 488 -179 425 -222 q 550 -75 550 -136 q 453 6 550 -10 q 304 18 389 15 q 183 26 219 21 q 119 -98 119 -37 z "},"h":{"ha":872,"x_min":57,"x_max":840,"o":"m 794 0 l 519 0 l 519 11 q 525 42 519 25 q 568 69 536 67 l 619 72 l 619 419 q 464 606 619 606 q 368 585 408 606 q 281 524 328 565 l 281 75 l 383 67 q 338 0 390 0 l 60 0 l 60 11 q 67 42 60 25 q 108 69 76 67 l 163 72 l 163 874 l 96 881 q 57 949 57 885 l 281 976 l 281 613 q 485 707 378 707 q 664 638 593 707 q 736 422 735 569 l 736 75 l 840 67 q 794 0 847 0 z "},"i":{"ha":415,"x_min":57,"x_max":383,"o":"m 338 0 l 60 0 l 60 11 q 67 42 60 25 q 108 69 76 67 l 163 72 l 163 608 l 96 615 q 57 682 57 619 l 281 707 l 281 75 l 383 67 q 338 0 390 0 m 267 823 q 256 812 267 823 q 210 801 244 801 q 153 823 175 801 q 131 879 131 844 q 153 936 131 914 q 210 958 175 958 q 267 936 244 958 q 289 879 289 914 q 267 823 289 844 z "},"j":{"ha":363,"x_min":-97,"x_max":260,"o":"m 125 936 q 136 947 125 936 q 182 958 147 958 q 238 936 217 958 q 260 880 260 914 q 238 824 260 846 q 182 801 217 801 q 125 824 147 801 q 103 880 103 846 q 125 936 103 914 m 250 39 q 189 -223 250 -129 q 13 -317 128 -317 q -62 -297 -26 -317 q -97 -238 -97 -276 q -76 -182 -97 -200 q -21 -165 -54 -164 q 40 -232 -18 -232 q 110 -193 86 -232 q 133 -49 133 -154 l 133 610 l 63 617 q 26 682 26 619 l 250 707 l 250 39 z "},"k":{"ha":765,"x_min":57,"x_max":765,"o":"m 483 686 l 711 686 l 711 675 q 706 644 711 661 q 663 617 694 619 l 625 614 l 435 404 l 672 75 l 765 67 q 718 0 771 0 l 593 0 l 361 321 l 281 232 l 281 75 l 383 67 q 339 0 390 0 l 61 0 l 61 11 q 67 42 61 25 q 110 69 78 67 l 163 72 l 163 875 l 96 882 q 57 949 57 886 l 281 976 l 281 338 l 519 611 l 438 619 q 483 686 431 686 z "},"l":{"ha":410,"x_min":57,"x_max":379,"o":"m 333 0 l 58 0 l 58 11 q 64 42 58 25 q 107 69 75 67 l 163 72 l 163 875 l 96 882 q 57 949 57 886 l 281 976 l 281 75 l 379 67 q 333 0 386 0 z "},"m":{"ha":1306,"x_min":57,"x_max":1274,"o":"m 1228 0 l 951 0 l 951 11 q 958 42 951 25 q 1000 69 968 67 l 1053 72 l 1053 418 q 897 604 1053 604 q 715 517 808 604 q 726 422 726 478 l 726 75 l 829 67 q 785 0 836 0 l 507 0 l 507 11 q 514 42 507 25 q 556 69 524 67 l 610 72 l 610 418 q 453 604 610 604 q 281 524 368 604 l 281 75 l 383 67 q 338 0 390 0 l 60 0 l 60 11 q 67 42 60 25 q 108 69 76 67 l 163 72 l 163 607 l 103 610 q 57 678 57 613 l 257 703 l 271 610 l 275 610 q 369 681 322 656 q 481 707 417 707 q 602 677 546 707 q 690 585 658 647 q 926 707 801 707 q 1098 638 1026 707 q 1169 422 1169 569 l 1169 75 l 1274 67 q 1228 0 1281 0 z "},"n":{"ha":867,"x_min":57,"x_max":835,"o":"m 789 0 l 517 0 l 517 11 q 522 42 517 25 q 565 69 533 67 l 619 72 l 619 426 q 475 607 619 607 q 375 587 418 607 q 281 522 332 567 l 281 75 l 379 67 q 333 0 386 0 l 58 0 l 58 11 q 64 42 58 25 q 107 69 75 67 l 163 72 l 163 606 l 96 613 q 57 678 57 617 l 257 703 l 272 604 l 276 604 q 494 707 388 707 q 668 640 600 707 q 736 432 736 572 l 736 75 l 835 67 q 789 0 842 0 z "},"o":{"ha":719,"x_min":53,"x_max":667,"o":"m 224 545 q 200 506 224 545 q 176 340 176 467 q 224 137 176 214 q 358 60 271 60 q 494 137 446 61 q 543 338 543 213 q 497 544 543 464 q 362 624 451 625 q 224 545 272 624 m 371 707 q 581 622 496 707 q 667 360 665 538 q 583 81 668 183 q 352 -21 499 -21 q 130 69 206 -21 q 53 329 54 158 q 137 603 51 500 q 371 707 222 707 z "},"p":{"ha":778,"x_min":17,"x_max":725,"o":"m 18 -289 q 67 -231 18 -231 l 121 -226 l 121 603 l 51 610 q 17 674 17 614 l 215 699 l 232 610 q 452 707 340 707 q 642 623 564 707 q 724 366 721 539 q 640 86 728 193 q 390 -21 553 -21 q 238 13 307 -21 l 238 -224 l 342 -232 q 296 -299 349 -299 l 18 -299 l 18 -289 m 238 131 q 410 65 310 65 q 555 144 510 65 q 600 344 600 224 q 553 539 600 465 q 410 613 507 613 q 324 593 363 613 q 238 532 286 574 l 238 131 z "},"q":{"ha":742,"x_min":53,"x_max":754,"o":"m 436 -289 q 485 -231 436 -231 l 539 -226 l 539 61 q 331 -21 447 -21 q 135 64 215 -21 q 53 320 56 149 q 137 599 50 492 q 385 707 224 707 q 544 672 471 707 l 656 686 l 656 -224 l 754 -232 q 710 -299 761 -299 l 436 -299 l 436 -289 m 539 557 q 368 621 468 621 q 222 542 268 621 q 176 342 176 463 q 224 149 176 222 q 362 75 272 75 q 539 147 451 75 l 539 557 z "},"r":{"ha":581,"x_min":57,"x_max":575,"o":"m 276 592 q 378 672 317 636 q 481 707 440 707 q 549 685 522 707 q 575 604 575 663 q 546 514 575 546 q 482 501 525 497 q 429 603 482 603 q 279 510 363 603 l 279 75 l 396 67 q 350 0 403 0 l 60 0 l 60 11 q 67 42 60 25 q 108 69 76 67 l 161 72 l 161 603 l 90 610 q 57 674 57 614 l 263 700 l 272 592 l 276 592 z "},"s":{"ha":564,"x_min":33,"x_max":531,"o":"m 531 201 q 531 157 531 201 q 456 45 531 113 q 257 -21 382 -22 q 100 16 168 -19 q 33 114 32 51 q 58 172 33 151 q 117 192 82 193 q 172 97 129 132 q 279 60 215 61 q 385 88 343 60 q 428 164 426 115 q 396 238 429 213 q 296 288 363 263 q 199 328 229 314 q 131 367 168 342 q 56 508 56 417 q 132 653 57 600 q 295 706 207 707 q 441 676 383 706 q 497 589 499 647 q 470 528 497 547 q 408 513 443 508 q 375 593 410 561 q 284 626 340 625 q 192 602 228 628 q 155 536 156 576 q 194 469 154 496 q 308 414 235 443 q 410 372 382 385 q 471 333 438 358 q 531 201 531 290 z "},"t":{"ha":535,"x_min":22,"x_max":517,"o":"m 244 613 l 244 210 q 263 106 244 139 q 328 74 281 74 q 409 85 375 74 q 490 135 443 97 q 508 119 500 132 q 517 92 517 107 q 446 13 517 49 q 307 -22 375 -22 q 166 37 204 -22 q 128 204 128 96 l 128 613 l 22 613 q 69 686 18 686 l 128 686 l 128 854 l 244 876 l 244 686 l 501 686 q 467 613 506 624 l 244 613 z "},"u":{"ha":806,"x_min":19,"x_max":775,"o":"m 456 633 q 501 686 456 686 l 681 686 l 681 83 l 738 78 q 775 10 775 76 l 599 -6 l 576 69 q 374 -21 481 -21 q 196 48 268 -21 q 124 264 124 117 l 124 611 l 19 615 l 19 633 q 65 686 19 686 l 242 686 l 242 268 q 397 75 242 75 q 564 143 485 75 l 564 611 l 456 615 l 456 633 z "},"v":{"ha":682,"x_min":4,"x_max":678,"o":"m 492 686 l 678 686 q 633 617 681 621 l 622 615 l 371 0 l 297 0 l 61 611 l 4 619 q 13 665 3 644 q 46 686 22 686 l 285 686 q 285 676 285 686 q 236 617 285 622 l 192 614 l 353 168 l 521 611 l 447 619 q 492 686 440 686 z "},"w":{"ha":989,"x_min":4,"x_max":985,"o":"m 800 686 l 985 686 q 942 617 988 621 l 929 615 l 697 0 l 629 0 l 488 411 l 332 0 l 264 0 l 63 611 l 61 611 l 4 619 q 13 665 3 644 q 46 686 22 686 l 285 686 q 285 676 285 686 q 236 617 285 622 l 190 614 l 321 172 l 481 624 l 546 625 l 685 185 l 826 613 l 754 619 q 800 686 747 686 z "},"x":{"ha":690,"x_min":13,"x_max":682,"o":"m 636 0 l 393 0 l 393 11 q 442 69 393 61 l 476 72 l 478 72 l 329 279 l 199 75 l 276 67 q 232 0 283 0 l 13 0 l 13 11 q 61 69 13 65 l 104 72 l 286 336 l 88 611 l 18 619 q 63 686 11 686 l 306 686 l 306 675 q 257 617 306 625 l 225 614 l 372 410 l 500 611 l 499 611 l 429 619 q 475 686 422 686 l 674 686 l 674 675 q 625 617 674 621 l 593 615 l 414 353 l 615 75 l 682 67 q 636 0 689 0 z "},"y":{"ha":704,"x_min":6,"x_max":701,"o":"m 513 686 l 701 686 l 701 675 q 640 615 701 622 l 397 17 l 396 17 q 267 -239 318 -178 q 211 -287 244 -265 q 135 -310 178 -310 q 65 -285 93 -310 q 38 -228 38 -261 q 56 -174 38 -194 q 97 -154 74 -154 q 126 -157 119 -154 q 160 -217 113 -217 q 242 -134 196 -217 q 322 40 288 -51 l 78 611 l 76 611 l 6 619 q 50 686 -1 686 l 300 686 l 300 675 q 251 617 300 621 l 210 614 l 379 185 l 543 611 l 468 619 q 513 686 461 686 z "},"z":{"ha":575,"x_min":21,"x_max":554,"o":"m 69 686 l 528 686 q 551 633 546 668 l 169 71 l 469 78 l 479 156 q 508 197 482 186 q 554 200 533 208 l 554 0 l 39 0 q 21 51 24 24 l 408 619 l 153 613 l 146 535 q 116 493 142 504 q 69 490 90 482 l 69 686 z "},"{":{"ha":464,"x_min":69,"x_max":444,"o":"m 140 811 q 193 944 140 893 q 329 994 246 994 q 444 976 413 994 l 438 919 q 396 922 413 922 q 246 804 246 922 q 258 686 246 774 q 269 543 269 599 q 196 371 269 393 l 196 360 q 269 188 269 335 q 258 51 269 143 q 246 -75 246 -42 q 396 -193 246 -193 q 438 -190 413 -193 l 444 -247 q 322 -265 400 -265 q 192 -215 243 -265 q 140 -82 140 -164 q 151 58 140 -35 q 163 208 163 150 q 131 306 163 267 q 69 344 114 325 l 69 386 q 131 425 115 404 q 163 520 163 461 q 151 670 163 579 q 140 811 140 761 z "},"|":{"ha":378,"x_min":139,"x_max":239,"o":"m 139 -271 l 139 994 l 239 994 l 239 -271 l 139 -271 z "},"}":{"ha":464,"x_min":4,"x_max":379,"o":"m 4 976 q 119 994 36 994 q 256 944 203 994 q 308 811 308 893 q 297 670 308 761 q 286 520 286 579 q 318 425 286 461 q 379 386 333 404 l 379 344 q 318 306 335 325 q 286 208 286 267 q 297 58 286 150 q 308 -82 308 -35 q 257 -215 308 -164 q 127 -265 206 -265 q 4 -247 49 -265 l 11 -190 q 53 -193 36 -193 q 203 -75 203 -193 q 191 51 203 -42 q 179 188 179 143 q 253 360 179 335 l 253 371 q 179 543 179 393 q 191 686 179 599 q 203 804 203 774 q 53 922 203 922 q 11 919 36 922 l 4 976 z "},"~":{"ha":782,"x_min":139,"x_max":643,"o":"m 185 331 l 139 349 q 199 456 156 418 q 294 492 243 494 q 403 450 344 490 q 500 408 463 410 q 563 426 538 407 q 599 476 589 446 l 643 463 q 478 314 613 310 q 363 354 425 317 q 272 393 301 392 q 219 376 242 394 q 185 331 196 357 z "}," ":{"ha":372,"x_min":0,"x_max":0,"o":""},"¡":{"ha":342,"x_min":86,"x_max":254,"o":"m 111 -18 l 131 667 q 210 667 171 679 l 242 -25 q 111 -18 168 -40 m 86 882 q 86 900 86 882 q 110 942 86 918 q 170 967 135 967 q 230 942 206 967 q 254 882 254 918 q 231 822 254 846 q 171 797 207 797 q 110 822 135 797 q 86 882 86 846 z "},"¢":{"ha":683,"x_min":68,"x_max":614,"o":"m 422 707 q 556 664 507 701 q 606 574 606 626 q 578 502 606 522 q 515 485 551 482 q 481 583 514 542 q 381 624 447 624 q 242 547 290 624 q 193 350 193 469 q 403 71 193 71 q 592 143 507 71 q 614 98 614 129 q 558 31 614 67 q 422 -17 501 -4 l 432 -150 q 381 -158 413 -158 q 331 -150 349 -158 l 342 -22 q 142 76 214 -17 q 69 320 71 168 q 138 577 67 472 q 340 703 210 682 l 331 833 q 381 842 349 842 q 432 833 413 842 l 422 707 z "},"£":{"ha":721,"x_min":67,"x_max":654,"o":"m 318 540 l 311 449 l 543 449 l 543 372 l 304 372 q 279 169 292 233 q 233 79 267 106 l 654 79 q 594 0 660 0 l 75 0 q 67 57 64 21 q 134 90 110 68 q 171 158 158 111 q 203 372 190 210 l 82 372 l 82 449 l 208 449 q 214 540 214 538 q 481 864 236 864 q 598 834 550 864 q 646 754 646 804 q 619 685 646 704 q 556 669 593 667 q 461 786 556 786 q 364 724 401 786 q 318 540 326 661 z "},"¤":{"ha":818,"x_min":67,"x_max":751,"o":"m 243 390 q 243 351 243 390 q 290 265 243 313 q 411 217 336 217 q 533 265 486 217 q 579 391 579 314 q 533 517 579 468 q 411 565 486 565 q 290 517 336 565 q 243 390 243 468 m 626 560 q 678 391 678 492 q 629 225 678 290 l 751 121 q 676 49 710 68 l 571 169 q 413 125 508 125 q 250 172 317 125 l 140 49 q 67 121 104 69 l 192 228 q 144 392 144 294 q 194 557 144 490 l 67 665 q 140 736 106 718 l 250 613 q 412 658 319 658 q 568 614 504 658 l 676 736 q 751 665 710 719 l 626 560 z "},"¥":{"ha":833,"x_min":18,"x_max":817,"o":"m 572 854 l 817 854 l 817 842 q 768 782 817 786 l 731 779 l 729 779 l 521 447 l 651 447 l 651 372 l 488 372 l 488 301 l 651 301 l 651 225 l 488 225 l 488 78 l 489 78 l 589 69 q 544 0 596 0 l 265 0 l 265 11 q 314 72 265 68 l 369 75 l 369 225 l 190 225 l 190 301 l 369 301 l 369 372 l 190 372 l 190 447 l 329 447 l 101 776 l 18 785 q 64 854 11 854 l 340 854 l 340 844 q 290 782 340 788 l 244 779 l 443 469 l 626 776 l 526 785 q 572 854 519 854 z "},"¦":{"ha":378,"x_min":139,"x_max":239,"o":"m 139 481 l 139 994 l 239 994 l 239 481 l 139 481 m 239 243 l 239 -271 l 139 -271 l 139 243 l 239 243 z "},"§":{"ha":756,"x_min":61,"x_max":693,"o":"m 693 -74 q 598 -292 693 -204 q 346 -381 503 -381 q 147 -335 233 -381 q 61 -212 61 -290 q 87 -146 61 -172 q 161 -119 113 -119 q 368 -294 183 -294 q 523 -248 463 -294 q 583 -118 583 -201 q 570 -49 583 -78 q 522 3 557 -21 q 461 41 488 28 q 378 78 435 54 q 290 118 322 103 q 217 159 258 133 q 154 211 176 185 q 100 354 100 274 q 192 538 100 469 q 100 719 100 608 q 190 897 100 829 q 387 965 281 964 q 572 928 493 967 q 650 808 650 890 q 621 735 650 760 q 550 715 592 711 q 385 878 550 878 q 260 843 308 878 q 211 753 211 808 q 247 660 211 699 q 315 606 282 622 q 389 571 347 589 q 633 439 572 493 q 693 278 693 385 q 619 92 693 172 q 693 -74 693 29 m 211 386 q 247 301 211 339 q 315 246 282 263 q 387 213 347 229 q 428 194 426 196 q 432 192 429 193 q 547 139 449 189 q 583 231 583 179 q 570 310 583 282 q 522 363 557 339 q 461 401 488 388 q 364 445 435 414 q 268 490 293 476 q 211 386 211 453 z "},"¨":{"ha":833,"x_min":154,"x_max":554,"o":"m 554 865 q 554 849 554 865 q 531 809 554 832 q 474 786 507 786 q 417 810 440 786 q 394 865 394 833 q 417 921 394 897 q 474 944 440 944 q 531 922 507 944 q 554 865 554 899 m 314 865 q 314 849 314 865 q 291 810 314 833 q 235 786 268 786 q 178 810 201 786 q 154 865 154 833 q 178 921 154 897 q 235 944 201 944 q 291 921 268 944 q 314 865 314 897 z "},"©":{"ha":933,"x_min":69,"x_max":864,"o":"m 493 646 q 581 624 549 646 q 613 570 613 601 q 594 527 613 539 q 557 517 576 515 q 538 563 557 543 q 478 583 518 583 q 412 543 438 583 q 386 440 386 503 q 500 292 386 292 q 604 326 560 292 q 617 294 617 318 q 574 247 617 271 q 476 224 532 224 q 346 278 393 224 q 298 426 299 332 q 349 583 297 521 q 493 646 401 646 m 772 432 q 772 504 772 432 q 688 662 772 576 q 465 747 603 747 q 245 660 328 747 q 163 430 163 572 q 246 202 163 288 q 467 117 329 117 q 689 202 606 117 q 772 432 772 288 m 69 430 q 69 520 69 430 q 178 720 69 610 q 466 831 288 831 q 754 721 644 831 q 864 431 864 611 q 756 142 864 251 q 467 33 647 33 q 178 142 288 33 q 69 430 69 250 z "},"ª":{"ha":474,"x_min":50,"x_max":446,"o":"m 382 447 q 303 490 319 447 q 187 447 253 447 q 85 476 121 447 q 50 558 50 506 q 92 644 50 611 q 225 678 133 678 q 297 672 268 678 l 297 707 q 222 806 297 806 q 144 733 147 806 q 97 743 115 731 q 78 788 78 756 q 117 845 78 821 q 230 869 157 869 q 348 831 303 869 q 393 713 393 792 l 393 504 l 446 497 q 431 463 446 478 q 382 447 415 447 m 231 621 q 153 565 153 621 q 221 514 153 514 q 297 540 257 514 l 297 608 q 231 621 264 621 z "},"«":{"ha":799,"x_min":76,"x_max":761,"o":"m 468 608 l 214 346 l 214 336 l 472 72 l 415 24 l 76 307 q 76 375 67 340 l 415 658 l 468 608 m 757 608 l 503 346 l 503 336 l 761 72 l 704 24 l 365 307 q 365 375 356 340 l 704 658 l 757 608 z "},"¬":{"ha":678,"x_min":69,"x_max":608,"o":"m 608 438 l 608 350 l 607 193 l 518 193 l 519 350 l 69 350 l 69 438 l 608 438 z "},"­":{"ha":546,"x_min":64,"x_max":482,"o":"m 64 400 l 482 400 l 482 307 l 64 307 l 64 400 z "},"®":{"ha":840,"x_min":85,"x_max":756,"o":"m 85 646 q 85 722 85 646 q 178 891 85 797 q 423 985 272 985 q 665 891 574 985 q 756 644 756 797 q 663 400 756 492 q 422 308 571 308 q 178 401 272 308 q 85 646 85 494 m 165 646 q 165 585 165 646 q 236 452 165 525 q 422 379 307 379 q 606 451 536 379 q 675 643 675 522 q 607 838 675 764 q 424 913 539 913 q 237 840 308 913 q 165 646 165 767 m 297 833 l 424 833 q 553 746 553 833 q 461 646 553 665 q 592 521 526 521 q 544 479 588 479 q 460 529 500 479 q 399 640 421 579 l 385 640 l 385 529 l 429 526 q 406 486 429 486 l 278 486 q 300 528 278 526 l 317 529 l 317 790 l 278 793 q 297 833 278 833 m 385 793 l 385 681 l 397 681 q 485 740 485 681 q 414 793 485 793 l 385 793 z "},"¯":{"ha":833,"x_min":168,"x_max":547,"o":"m 168 886 l 547 886 l 547 803 l 168 803 l 168 886 z "},"°":{"ha":478,"x_min":75,"x_max":401,"o":"m 180 865 q 169 854 180 865 q 158 806 158 843 q 181 744 158 768 q 240 719 203 719 q 298 743 276 719 q 319 804 319 767 q 297 865 319 842 q 238 888 275 888 q 180 865 201 888 m 121 691 q 98 713 121 691 q 75 804 75 735 q 122 917 75 874 q 239 961 168 961 q 356 918 310 961 q 401 806 401 875 q 355 692 401 736 q 238 647 308 647 q 121 691 167 647 z "},"±":{"ha":676,"x_min":69,"x_max":607,"o":"m 383 433 l 607 433 l 607 346 l 383 346 l 383 189 l 293 189 l 293 346 l 69 346 l 69 433 l 293 433 l 293 658 l 383 658 l 383 433 m 69 51 l 69 139 l 607 139 l 607 51 l 69 51 z "},"²":{"ha":460,"x_min":50,"x_max":411,"o":"m 411 385 l 61 385 q 50 435 47 418 q 128 499 78 456 q 190 554 178 542 q 222 588 201 567 q 252 624 242 608 q 274 660 263 640 q 294 732 294 696 q 276 790 294 768 q 218 811 257 811 q 158 781 179 811 q 138 701 138 750 q 63 758 63 699 q 109 837 63 806 q 231 868 156 868 q 349 832 306 868 q 393 738 393 796 q 164 447 393 603 l 354 447 l 360 494 q 380 521 363 514 q 411 522 397 528 l 411 385 z "},"³":{"ha":429,"x_min":47,"x_max":393,"o":"m 135 661 q 224 684 179 661 q 269 757 269 707 q 207 811 269 811 q 133 738 139 811 q 74 785 71 740 q 113 844 75 821 q 218 868 150 868 q 328 839 286 868 q 371 760 371 810 q 260 644 371 678 q 358 604 322 638 q 393 516 393 571 q 339 419 393 461 q 206 376 285 376 q 88 399 128 376 q 47 456 47 422 q 62 489 47 475 q 104 504 76 503 q 131 453 107 474 q 197 433 154 433 q 266 456 239 433 q 292 517 293 479 q 135 599 290 607 l 135 661 z "},"´":{"ha":833,"x_min":242,"x_max":567,"o":"m 567 899 l 288 749 q 242 794 257 764 l 471 974 q 526 947 497 971 q 567 899 554 924 z "},"µ":{"ha":792,"x_min":115,"x_max":764,"o":"m 764 49 q 672 -22 764 -22 q 560 57 579 -22 q 365 -21 474 -21 q 228 19 288 -21 l 236 -283 q 174 -292 218 -293 q 115 -283 131 -292 l 124 215 q 121 264 121 246 l 121 686 l 239 686 l 239 268 q 394 75 239 75 q 554 138 481 75 l 554 686 l 672 686 l 672 60 l 764 49 z "},"¶":{"ha":897,"x_min":67,"x_max":829,"o":"m 365 946 l 788 946 q 829 876 832 946 l 728 868 l 728 -125 l 607 -125 l 607 868 l 492 868 l 492 -125 l 369 -125 l 369 401 q 165 464 253 401 q 94 550 121 494 q 67 678 67 606 q 145 870 67 794 q 365 946 224 946 z "},"·":{"ha":285,"x_min":56,"x_max":229,"o":"m 229 367 q 229 348 229 367 q 204 304 229 329 q 142 279 179 279 q 81 304 106 279 q 56 367 56 329 q 81 429 56 404 q 142 454 106 454 q 204 429 179 454 q 229 367 229 404 z "},"¸":{"ha":833,"x_min":296,"x_max":531,"o":"m 417 -60 q 503 -88 475 -60 q 531 -163 531 -117 q 494 -241 531 -210 q 394 -272 457 -272 q 296 -233 332 -272 q 313 -185 292 -199 q 382 -210 344 -210 q 442 -161 442 -210 q 421 -125 442 -137 q 342 -112 400 -112 l 378 25 l 438 25 l 417 -60 z "},"¹":{"ha":388,"x_min":53,"x_max":335,"o":"m 300 393 l 71 393 l 71 401 q 83 436 71 428 q 106 444 94 444 l 157 447 l 157 765 l 101 749 q 67 760 82 743 q 53 789 53 778 l 174 854 q 224 863 192 863 q 251 826 251 863 l 251 449 l 333 443 q 334 426 333 438 q 326 404 335 415 q 300 393 317 393 z "},"º":{"ha":521,"x_min":60,"x_max":443,"o":"m 342 653 q 342 687 342 653 q 319 763 342 721 q 253 804 296 804 q 185 763 210 804 q 161 654 161 722 q 185 547 161 586 q 251 508 208 508 q 317 547 293 508 q 342 653 342 585 m 60 650 q 60 701 60 650 q 113 810 60 751 q 253 869 165 869 q 392 814 342 869 q 442 658 442 758 q 391 501 443 558 q 247 443 339 443 q 108 496 154 443 q 60 650 61 549 z "},"»":{"ha":799,"x_min":38,"x_max":722,"o":"m 296 346 l 42 608 l 94 658 l 433 375 q 433 307 443 340 l 94 24 l 38 72 l 296 336 l 296 346 m 585 346 l 331 608 l 383 658 l 722 375 q 722 307 732 340 l 383 24 l 326 72 l 585 336 l 585 346 z "},"¼":{"ha":919,"x_min":39,"x_max":874,"o":"m 874 149 l 874 92 l 804 92 l 804 -8 l 710 -17 l 710 92 l 508 92 q 486 140 490 115 l 725 475 q 804 479 764 485 l 804 149 l 874 149 m 710 149 l 710 354 l 564 149 l 710 149 m 667 867 l 771 867 l 278 0 l 174 0 l 667 867 m 285 385 l 58 385 q 58 393 58 385 q 69 429 58 422 q 92 438 81 436 l 143 440 l 143 765 l 88 749 q 53 761 68 743 q 39 790 39 779 l 160 856 q 210 865 178 865 q 238 828 238 865 l 238 442 l 319 436 q 285 385 319 385 z "},"½":{"ha":919,"x_min":25,"x_max":894,"o":"m 894 0 l 544 0 q 533 49 531 36 q 569 78 538 53 q 610 112 600 103 q 649 147 621 121 q 690 186 678 172 q 722 224 701 200 q 753 267 743 249 q 776 349 776 315 q 758 404 776 383 q 700 425 739 425 q 640 394 661 425 q 619 317 619 364 q 546 374 546 314 q 592 452 546 421 q 713 483 639 483 q 831 447 788 483 q 875 351 875 411 q 646 61 875 217 l 836 61 l 842 110 q 862 136 844 129 q 894 138 879 143 l 894 0 m 649 867 l 753 867 l 260 0 l 156 0 l 649 867 m 271 383 l 44 383 l 44 392 q 56 428 44 421 q 78 436 67 435 l 129 439 l 129 765 l 74 747 q 40 760 54 742 q 25 789 25 778 l 146 854 q 196 864 164 864 q 224 826 224 864 l 224 440 l 306 435 q 271 383 306 383 z "},"¾":{"ha":919,"x_min":38,"x_max":885,"o":"m 885 149 l 885 92 l 817 92 l 817 -8 l 721 -17 l 721 92 l 519 92 q 497 140 501 115 l 736 475 q 815 479 776 483 l 817 149 l 885 149 m 721 149 l 721 354 l 575 149 l 721 149 m 693 867 l 799 867 l 306 0 l 200 0 l 693 867 m 260 757 q 197 811 260 811 q 124 738 129 811 q 63 785 63 739 q 102 844 64 821 q 208 868 140 868 q 318 839 275 868 q 361 760 361 810 q 249 644 361 678 q 347 604 311 638 q 383 516 383 571 q 329 419 383 461 q 196 376 275 376 q 77 399 117 376 q 38 456 38 422 q 52 489 38 475 q 94 504 67 503 q 121 453 97 474 q 186 433 144 433 q 255 456 228 433 q 282 517 282 479 q 125 599 281 607 l 124 661 q 215 684 169 661 q 260 757 260 707 z "},"¿":{"ha":682,"x_min":63,"x_max":618,"o":"m 453 816 q 441 804 453 816 q 393 792 429 792 q 333 816 357 792 q 308 876 308 840 q 333 937 308 913 q 392 961 357 961 q 452 937 428 961 q 476 876 476 913 q 453 816 476 840 m 618 143 q 544 12 618 72 q 341 -49 469 -49 q 138 15 213 -49 q 63 190 63 79 q 146 383 63 301 q 344 488 229 464 l 353 668 q 433 668 385 675 l 440 429 q 258 340 329 400 q 188 190 188 279 q 229 77 188 124 q 352 31 271 31 q 478 90 433 31 q 524 218 524 150 q 618 143 618 218 z "},"À":{"ha":868,"x_min":15,"x_max":850,"o":"m 804 0 l 521 0 l 521 11 q 569 72 521 68 l 626 75 l 558 314 l 276 314 l 207 78 l 315 69 q 269 0 322 0 l 15 0 l 15 11 q 64 72 15 68 l 118 75 l 386 944 q 492 944 439 950 l 757 78 l 850 69 q 804 0 857 0 m 299 390 l 538 390 l 419 800 l 299 390 m 342 1232 l 571 1053 q 525 1007 556 1022 l 246 1157 q 287 1206 258 1182 q 342 1232 315 1229 z "},"Á":{"ha":868,"x_min":15,"x_max":850,"o":"m 804 0 l 521 0 l 521 11 q 569 72 521 68 l 626 75 l 558 314 l 276 314 l 207 78 l 315 69 q 269 0 322 0 l 15 0 l 15 11 q 64 72 15 68 l 118 75 l 386 944 q 492 944 439 950 l 757 78 l 850 69 q 804 0 857 0 m 299 390 l 538 390 l 419 800 l 299 390 m 651 1164 l 372 1014 q 326 1060 342 1031 l 556 1240 q 611 1213 583 1236 q 651 1164 639 1189 z "},"Â":{"ha":868,"x_min":15,"x_max":850,"o":"m 804 0 l 521 0 l 521 11 q 569 72 521 68 l 626 75 l 558 314 l 276 314 l 207 78 l 315 69 q 269 0 322 0 l 15 0 l 15 11 q 64 72 15 68 l 118 75 l 386 944 q 492 944 439 950 l 757 78 l 850 69 q 804 0 857 0 m 299 390 l 538 390 l 419 800 l 299 390 m 438 1122 l 249 1001 q 207 1044 224 1015 l 393 1214 q 485 1214 442 1225 l 668 1044 q 625 1001 650 1014 l 438 1122 z "},"Ã":{"ha":868,"x_min":15,"x_max":850,"o":"m 804 0 l 521 0 l 521 11 q 569 72 521 68 l 626 75 l 558 314 l 276 314 l 207 78 l 315 69 q 269 0 322 0 l 15 0 l 15 11 q 64 72 15 68 l 118 75 l 386 944 q 492 944 439 950 l 757 78 l 850 69 q 804 0 857 0 m 299 390 l 538 390 l 419 800 l 299 390 m 522 1042 q 415 1077 474 1042 q 328 1113 356 1113 q 279 1093 300 1113 q 250 1047 258 1074 l 206 1063 q 259 1172 219 1132 q 346 1213 299 1213 q 449 1174 393 1213 q 542 1136 506 1136 q 629 1208 611 1136 l 672 1196 q 522 1042 649 1042 z "},"Ä":{"ha":868,"x_min":15,"x_max":850,"o":"m 804 0 l 521 0 l 521 11 q 569 72 521 68 l 626 75 l 558 314 l 276 314 l 207 78 l 315 69 q 269 0 322 0 l 15 0 l 15 11 q 64 72 15 68 l 118 75 l 386 944 q 492 944 439 950 l 757 78 l 850 69 q 804 0 857 0 m 299 390 l 538 390 l 419 800 l 299 390 m 394 1123 q 394 1107 394 1123 q 372 1067 394 1090 q 315 1044 349 1044 q 258 1067 282 1044 q 235 1123 235 1090 q 258 1179 235 1156 q 315 1203 282 1203 q 372 1179 349 1203 q 394 1123 394 1156 m 635 1123 q 635 1107 635 1123 q 612 1067 635 1090 q 556 1044 589 1044 q 499 1067 522 1044 q 475 1123 475 1090 q 499 1179 475 1156 q 556 1203 522 1203 q 612 1179 589 1203 q 635 1123 635 1156 z "},"Å":{"ha":868,"x_min":15,"x_max":850,"o":"m 804 0 l 521 0 l 521 11 q 569 72 521 68 l 626 75 l 558 314 l 276 314 l 207 78 l 315 69 q 269 0 322 0 l 15 0 l 15 11 q 64 72 15 68 l 118 75 l 386 944 q 492 944 439 950 l 757 78 l 850 69 q 804 0 857 0 m 299 390 l 538 390 l 419 800 l 299 390 m 532 1049 q 514 1031 532 1049 q 439 1014 496 1014 q 348 1047 382 1014 q 314 1135 314 1079 q 349 1224 314 1190 q 443 1258 385 1258 q 535 1226 501 1258 q 569 1138 569 1193 q 532 1049 568 1083 m 486 1181 q 478 1189 486 1181 q 442 1197 469 1197 q 397 1181 414 1197 q 379 1136 379 1164 q 397 1091 379 1108 q 442 1074 414 1074 q 486 1091 469 1074 q 503 1136 503 1108 q 486 1181 503 1164 z "},"Æ":{"ha":1217,"x_min":15,"x_max":1163,"o":"m 1163 200 l 1163 0 l 490 0 l 490 11 q 539 72 490 68 l 596 75 l 596 425 l 375 425 l 208 78 l 315 69 q 269 0 322 0 l 15 0 l 15 11 q 64 72 15 68 l 118 75 l 543 944 l 1135 946 l 1135 744 q 1065 703 1135 696 l 1051 863 l 718 868 l 718 506 l 979 526 q 981 415 990 476 l 718 431 l 718 78 l 1079 88 l 1093 242 q 1163 200 1163 249 m 596 500 l 596 867 l 586 868 l 411 500 l 596 500 z "},"Ç":{"ha":793,"x_min":51,"x_max":754,"o":"m 479 964 q 670 913 594 964 q 746 786 746 861 q 643 694 746 697 q 597 829 643 782 q 467 876 550 876 q 254 765 328 876 q 181 471 181 653 q 485 75 181 75 q 736 160 629 75 q 754 125 754 151 q 676 34 754 81 q 485 -19 597 -12 l 475 -60 q 561 -88 533 -60 q 589 -163 589 -117 q 552 -241 589 -210 q 453 -272 515 -272 q 354 -233 390 -272 q 371 -185 350 -199 q 440 -210 403 -210 q 500 -161 500 -210 q 479 -125 500 -137 q 400 -112 458 -112 l 424 -19 q 150 113 244 -10 q 52 456 56 236 q 161 819 49 675 q 479 964 274 964 z "},"È":{"ha":775,"x_min":57,"x_max":721,"o":"m 518 1007 l 239 1157 q 280 1206 251 1182 q 335 1232 308 1229 l 564 1053 q 518 1007 549 1022 m 721 200 l 721 0 l 57 0 l 57 11 q 106 72 57 68 l 163 75 l 163 865 l 61 875 q 108 943 54 943 l 700 943 l 700 743 q 631 701 700 694 l 618 861 l 283 867 l 283 503 l 546 525 q 546 414 557 472 l 283 428 l 283 78 l 639 88 l 651 242 q 721 200 721 249 z "},"É":{"ha":775,"x_min":57,"x_max":721,"o":"m 643 1164 l 365 1014 q 318 1060 333 1031 l 549 1240 q 604 1213 576 1236 q 643 1164 632 1189 m 721 200 l 721 0 l 57 0 l 57 11 q 106 72 57 68 l 163 75 l 163 865 l 61 875 q 108 943 54 943 l 700 943 l 700 743 q 631 701 700 694 l 618 861 l 283 867 l 283 503 l 546 525 q 546 414 557 472 l 283 428 l 283 78 l 639 88 l 651 242 q 721 200 721 249 z "},"Ê":{"ha":775,"x_min":57,"x_max":721,"o":"m 721 200 l 721 0 l 57 0 l 57 11 q 106 72 57 68 l 163 75 l 163 865 l 61 875 q 108 943 54 943 l 700 943 l 700 743 q 631 701 700 694 l 618 861 l 283 867 l 283 503 l 546 525 q 546 414 557 472 l 283 428 l 283 78 l 639 88 l 651 242 q 721 200 721 249 m 431 1122 l 242 1001 q 200 1044 217 1015 l 386 1214 q 478 1214 433 1225 l 661 1044 q 618 1001 643 1014 l 431 1122 z "},"Ë":{"ha":775,"x_min":57,"x_max":721,"o":"m 626 1123 q 626 1107 626 1123 q 603 1067 626 1090 q 547 1044 581 1044 q 491 1067 514 1044 q 468 1123 468 1090 q 491 1179 468 1156 q 547 1203 514 1203 q 603 1179 581 1203 q 626 1123 626 1156 m 365 1067 q 353 1056 365 1067 q 308 1044 342 1044 q 251 1067 275 1044 q 228 1123 228 1090 q 251 1179 228 1156 q 308 1203 275 1203 q 365 1179 342 1203 q 388 1123 388 1156 q 365 1067 388 1090 m 721 200 l 721 0 l 57 0 l 57 11 q 106 72 57 68 l 163 75 l 163 865 l 61 875 q 108 943 54 943 l 700 943 l 700 743 q 631 701 700 694 l 618 861 l 283 867 l 283 503 l 546 525 q 546 414 557 472 l 283 428 l 283 78 l 639 88 l 651 242 q 721 200 721 249 z "},"Ì":{"ha":447,"x_min":35,"x_max":390,"o":"m 340 0 l 57 0 l 57 11 q 106 72 57 68 l 163 75 l 163 865 l 61 874 q 107 943 54 943 l 390 943 l 390 931 q 342 872 390 876 l 285 868 l 283 868 l 283 78 l 285 78 l 386 69 q 340 0 393 0 m 131 1232 l 360 1053 q 314 1007 344 1022 l 35 1157 q 76 1206 47 1182 q 131 1232 104 1229 z "},"Í":{"ha":447,"x_min":57,"x_max":440,"o":"m 283 868 l 283 78 l 285 78 l 386 69 q 340 0 393 0 l 57 0 l 57 11 q 106 72 57 68 l 163 75 l 163 865 l 61 874 q 107 943 54 943 l 390 943 l 390 931 q 342 872 390 876 l 285 868 l 283 868 m 440 1164 l 161 1014 q 115 1060 131 1031 l 344 1240 q 400 1213 372 1236 q 440 1164 428 1189 z "},"Î":{"ha":447,"x_min":-4,"x_max":457,"o":"m 274 1214 l 457 1044 q 414 1001 439 1014 l 226 1122 l 38 1001 q -4 1044 13 1015 l 182 1214 q 274 1214 231 1225 m 283 868 l 283 78 l 285 78 l 386 69 q 340 0 393 0 l 57 0 l 57 11 q 106 72 57 68 l 163 75 l 163 865 l 61 874 q 107 943 54 943 l 390 943 l 390 931 q 342 872 390 876 l 285 868 l 283 868 z "},"Ï":{"ha":447,"x_min":24,"x_max":424,"o":"m 264 1123 q 264 1139 264 1123 q 288 1179 264 1156 q 344 1203 311 1203 q 401 1179 378 1203 q 424 1123 424 1156 q 401 1067 424 1090 q 344 1044 378 1044 q 288 1067 311 1044 q 264 1123 264 1090 m 283 868 l 283 78 l 285 78 l 386 69 q 340 0 393 0 l 57 0 l 57 11 q 106 72 57 68 l 163 75 l 163 865 l 61 874 q 107 943 54 943 l 390 943 l 390 931 q 342 872 390 876 l 285 868 l 283 868 m 104 1203 q 121 1203 104 1203 q 160 1179 138 1203 q 183 1123 183 1156 q 160 1067 183 1090 q 104 1044 138 1044 q 47 1067 71 1044 q 24 1123 24 1090 q 47 1179 24 1156 q 104 1203 71 1203 z "},"Ð":{"ha":972,"x_min":58,"x_max":890,"o":"m 111 946 l 413 946 q 774 831 658 946 q 890 481 890 715 q 768 123 890 246 q 415 0 646 0 l 58 0 q 101 71 54 68 l 161 76 l 161 429 l 86 429 l 86 507 l 161 507 l 161 867 l 61 875 q 111 946 58 946 m 381 75 q 667 167 571 69 q 763 476 763 264 q 663 783 763 689 q 357 871 564 878 l 285 868 l 283 868 l 283 507 l 517 507 l 517 429 l 283 429 l 283 78 l 381 75 z "},"Ñ":{"ha":954,"x_min":57,"x_max":925,"o":"m 679 943 l 925 943 l 925 931 q 876 872 925 876 l 818 868 l 818 17 q 736 0 785 0 l 247 746 l 247 78 l 349 69 q 303 0 356 0 l 57 0 l 57 11 q 106 72 57 68 l 163 75 l 163 865 l 61 874 q 107 943 54 943 l 264 943 l 735 225 l 735 865 l 633 874 q 679 943 626 943 m 563 1042 q 453 1077 513 1042 q 367 1113 394 1113 q 318 1093 339 1113 q 289 1047 297 1074 l 244 1063 q 298 1172 258 1132 q 385 1213 338 1213 q 488 1174 432 1213 q 581 1136 544 1136 q 668 1208 650 1136 l 711 1196 q 563 1042 688 1042 z "},"Ò":{"ha":910,"x_min":53,"x_max":858,"o":"m 560 1007 l 281 1157 q 322 1206 293 1182 q 376 1232 350 1229 l 606 1053 q 560 1007 590 1022 m 474 964 q 735 861 626 964 q 824 715 790 810 q 858 492 857 619 q 749 118 860 257 q 432 -21 638 -21 q 156 103 256 -21 q 53 456 56 228 q 161 824 50 683 q 474 964 272 964 m 456 880 q 386 880 456 880 q 247 772 317 879 q 178 473 178 664 q 245 173 178 282 q 452 65 313 64 q 663 172 592 65 q 733 469 733 279 q 665 770 733 660 q 456 880 596 881 z "},"Ó":{"ha":910,"x_min":53,"x_max":858,"o":"m 685 1164 l 406 1014 q 360 1060 375 1031 l 590 1240 q 646 1213 618 1236 q 685 1164 674 1189 m 456 880 q 386 880 456 880 q 247 772 317 879 q 178 473 178 664 q 245 173 178 282 q 452 65 313 64 q 663 172 592 65 q 733 469 733 279 q 665 770 733 660 q 456 880 596 881 m 474 964 q 735 861 626 964 q 824 715 790 810 q 858 492 857 619 q 749 118 860 257 q 432 -21 638 -21 q 156 103 256 -21 q 53 456 56 228 q 161 824 50 683 q 474 964 272 964 z "},"Ô":{"ha":910,"x_min":53,"x_max":858,"o":"m 432 -21 q 156 103 256 -21 q 53 456 56 228 q 161 824 50 683 q 474 964 272 964 q 735 861 626 964 q 824 715 790 810 q 858 492 857 619 q 749 118 860 257 q 432 -21 638 -21 m 452 65 q 522 65 452 65 q 663 172 592 65 q 733 469 733 279 q 665 770 733 660 q 456 880 596 881 q 247 772 317 879 q 178 473 178 664 q 245 173 178 282 q 452 65 313 64 m 472 1122 l 283 1001 q 242 1044 256 1017 l 428 1214 q 519 1214 475 1225 l 703 1044 q 660 1001 681 1013 l 472 1122 z "},"Õ":{"ha":910,"x_min":53,"x_max":858,"o":"m 239 1063 q 292 1172 253 1132 q 379 1213 332 1213 q 483 1174 426 1213 q 574 1136 539 1136 q 633 1156 610 1136 q 664 1208 657 1176 l 707 1196 q 557 1042 682 1042 q 448 1077 507 1042 q 361 1113 389 1113 q 313 1093 333 1113 q 283 1047 292 1074 l 239 1063 m 456 880 q 386 880 456 880 q 247 772 317 879 q 178 473 178 664 q 245 173 178 282 q 452 65 313 64 q 663 172 592 65 q 733 469 733 279 q 665 770 733 660 q 456 880 596 881 m 474 964 q 735 861 626 964 q 824 715 790 810 q 858 492 857 619 q 749 118 860 257 q 432 -21 638 -21 q 156 103 256 -21 q 53 456 56 228 q 161 824 50 683 q 474 964 272 964 z "},"Ö":{"ha":910,"x_min":53,"x_max":858,"o":"m 668 1123 q 668 1107 668 1123 q 645 1067 668 1090 q 589 1044 622 1044 q 532 1067 556 1044 q 508 1123 508 1090 q 532 1179 508 1156 q 589 1203 556 1203 q 645 1179 622 1203 q 668 1123 668 1156 m 406 1067 q 395 1056 406 1067 q 350 1044 383 1044 q 293 1067 317 1044 q 269 1123 269 1090 q 293 1179 269 1156 q 350 1203 317 1203 q 406 1179 383 1203 q 429 1123 429 1156 q 406 1067 429 1090 m 456 880 q 386 880 456 880 q 247 772 317 879 q 178 473 178 664 q 245 173 178 282 q 452 65 313 64 q 663 172 592 65 q 733 469 733 279 q 665 770 733 660 q 456 880 596 881 m 474 964 q 735 861 626 964 q 824 715 790 810 q 858 492 857 619 q 749 118 860 257 q 432 -21 638 -21 q 156 103 256 -21 q 53 456 56 228 q 161 824 50 683 q 474 964 272 964 z "},"×":{"ha":594,"x_min":69,"x_max":525,"o":"m 525 553 l 361 389 l 524 225 l 461 163 l 299 326 l 133 161 l 69 225 l 235 390 l 69 554 l 132 617 l 297 453 l 461 617 l 525 553 z "},"Ø":{"ha":957,"x_min":53,"x_max":858,"o":"m 432 -21 q 269 14 343 -21 l 247 -24 l 167 21 l 192 65 q 53 435 57 188 q 161 824 50 683 q 474 964 272 964 q 682 906 594 964 l 718 968 l 800 928 l 751 843 q 858 488 857 719 q 749 118 860 257 q 432 -21 638 -21 m 456 879 q 247 772 317 879 q 178 468 178 664 q 250 165 178 272 l 629 814 q 456 879 561 879 m 451 64 q 663 172 592 65 q 733 455 733 279 q 686 731 733 631 l 318 99 q 451 64 376 64 z "},"Ù":{"ha":907,"x_min":26,"x_max":881,"o":"m 546 1007 l 267 1157 q 308 1206 279 1182 q 363 1232 336 1229 l 592 1053 q 546 1007 576 1022 m 636 943 l 881 943 l 881 931 q 832 872 881 876 l 778 868 l 778 367 q 440 -21 778 -21 q 204 73 281 -21 q 128 356 128 167 l 128 865 l 26 874 q 72 943 19 943 l 354 943 l 354 931 q 306 872 354 876 l 249 868 l 249 353 q 300 132 249 201 q 457 63 351 63 q 692 344 692 63 l 692 865 l 592 874 q 636 943 585 943 z "},"Ú":{"ha":907,"x_min":26,"x_max":881,"o":"m 671 1164 l 393 1014 q 347 1060 363 1029 l 576 1240 q 632 1213 604 1236 q 671 1164 660 1189 m 636 943 l 881 943 l 881 931 q 832 872 881 876 l 778 868 l 778 367 q 440 -21 778 -21 q 204 73 281 -21 q 128 356 128 167 l 128 865 l 26 874 q 72 943 19 943 l 354 943 l 354 931 q 306 872 354 876 l 249 868 l 249 353 q 300 132 249 201 q 457 63 351 63 q 692 344 692 63 l 692 865 l 592 874 q 636 943 585 943 z "},"Û":{"ha":907,"x_min":26,"x_max":881,"o":"m 636 943 l 881 943 l 881 931 q 832 872 881 876 l 778 868 l 778 367 q 440 -21 778 -21 q 204 73 281 -21 q 128 356 128 167 l 128 865 l 26 874 q 72 943 19 943 l 354 943 l 354 931 q 306 872 354 876 l 249 868 l 249 353 q 300 132 249 201 q 457 63 351 63 q 692 344 692 63 l 692 865 l 592 874 q 636 943 585 943 m 458 1122 l 269 1001 q 228 1044 244 1015 l 414 1214 q 506 1214 461 1225 l 689 1044 q 646 1001 671 1014 l 458 1122 z "},"Ü":{"ha":907,"x_min":26,"x_max":881,"o":"m 654 1123 q 654 1107 654 1123 q 631 1067 654 1090 q 575 1044 608 1044 q 519 1067 542 1044 q 496 1123 496 1090 q 519 1179 496 1156 q 575 1203 542 1203 q 631 1179 608 1203 q 654 1123 654 1156 m 392 1067 q 381 1056 392 1067 q 336 1044 369 1044 q 279 1067 303 1044 q 256 1123 256 1090 q 279 1179 256 1156 q 336 1203 303 1203 q 392 1179 369 1203 q 415 1123 415 1156 q 392 1067 415 1090 m 636 943 l 881 943 l 881 931 q 832 872 881 876 l 778 868 l 778 367 q 440 -21 778 -21 q 204 73 281 -21 q 128 356 128 167 l 128 865 l 26 874 q 72 943 19 943 l 354 943 l 354 931 q 306 872 354 876 l 249 868 l 249 353 q 300 132 249 201 q 457 63 351 63 q 692 344 692 63 l 692 865 l 592 874 q 636 943 585 943 z "},"Ý":{"ha":839,"x_min":6,"x_max":835,"o":"m 603 946 l 835 946 l 835 933 q 786 874 835 878 l 756 869 l 485 389 l 485 78 l 586 69 q 540 0 593 0 l 256 0 l 256 11 q 304 72 256 68 l 361 75 l 361 386 l 86 867 l 6 875 q 50 946 -1 946 l 333 946 l 333 936 q 325 894 333 904 q 285 874 307 874 l 228 869 l 226 869 l 447 475 l 660 867 l 558 875 q 603 946 551 946 m 650 1164 l 371 1014 q 325 1060 340 1031 l 554 1240 q 610 1213 582 1236 q 650 1164 638 1189 z "},"Þ":{"ha":829,"x_min":57,"x_max":750,"o":"m 361 201 l 283 203 l 283 78 l 285 78 l 386 69 q 340 0 393 0 l 57 0 l 57 11 q 106 72 57 68 l 163 75 l 163 867 l 61 875 q 107 946 54 946 l 390 946 l 390 933 q 367 881 390 893 q 342 874 357 875 l 285 869 l 283 869 l 283 768 l 393 768 q 659 694 568 768 q 750 499 750 621 q 646 274 750 347 q 361 201 542 201 m 354 697 l 283 697 l 283 274 q 343 272 304 272 q 619 488 619 272 q 354 697 619 697 z "},"ß":{"ha":857,"x_min":57,"x_max":825,"o":"m 161 626 q 248 907 161 818 q 479 994 335 996 q 650 949 583 993 q 717 821 717 906 q 685 722 717 768 q 615 649 653 675 q 514 525 514 578 q 656 399 514 464 q 783 315 742 358 q 825 194 825 271 q 758 48 825 117 q 578 -21 690 -21 q 435 15 497 -21 q 372 113 372 50 q 395 170 372 150 q 453 190 418 190 q 502 97 464 132 q 597 61 540 61 q 687 93 653 61 q 721 176 721 125 q 653 268 721 226 q 593 301 639 276 q 522 340 547 325 q 467 381 497 356 q 407 504 407 429 q 478 647 407 585 q 539 697 508 672 q 610 815 610 754 q 482 914 610 914 q 329 840 379 914 q 279 636 279 767 l 279 0 l 57 0 l 57 11 q 106 69 57 65 l 161 71 l 161 626 z "},"à":{"ha":706,"x_min":57,"x_max":683,"o":"m 683 49 q 591 -22 683 -22 q 479 60 499 -22 q 280 -21 389 -21 q 114 29 171 -21 q 57 165 57 79 q 122 310 57 251 q 335 368 186 368 q 474 353 410 368 l 474 449 q 326 624 474 624 q 227 584 260 624 q 192 490 194 544 q 125 504 151 486 q 99 564 99 522 q 162 666 99 625 q 326 707 225 707 q 456 683 406 707 q 532 633 506 660 q 592 456 592 571 l 592 60 l 683 49 m 474 264 q 338 293 413 293 q 224 263 263 293 q 185 180 185 233 q 217 97 185 126 q 307 67 249 67 q 474 131 399 67 l 474 264 m 233 974 l 463 794 q 417 749 447 764 l 138 899 q 178 947 150 924 q 233 974 207 971 z "},"á":{"ha":706,"x_min":57,"x_max":683,"o":"m 683 49 q 591 -22 683 -22 q 479 60 499 -22 q 280 -21 389 -21 q 114 29 171 -21 q 57 165 57 79 q 122 310 57 251 q 335 368 186 368 q 474 353 410 368 l 474 449 q 326 624 474 624 q 227 584 260 624 q 192 490 194 544 q 125 504 151 486 q 99 564 99 522 q 162 666 99 625 q 326 707 225 707 q 456 683 406 707 q 532 633 506 660 q 592 456 592 571 l 592 60 l 683 49 m 474 264 q 338 293 413 293 q 224 263 263 293 q 185 180 185 233 q 217 97 185 126 q 307 67 249 67 q 474 131 399 67 l 474 264 m 543 899 l 264 749 q 218 794 233 764 l 447 974 q 502 947 474 971 q 543 899 531 924 z "},"â":{"ha":706,"x_min":57,"x_max":683,"o":"m 683 49 q 591 -22 683 -22 q 479 60 499 -22 q 280 -21 389 -21 q 114 29 171 -21 q 57 165 57 79 q 122 310 57 251 q 335 368 186 368 q 474 353 410 368 l 474 449 q 326 624 474 624 q 227 584 260 624 q 192 490 194 544 q 125 504 151 486 q 99 564 99 522 q 162 666 99 625 q 326 707 225 707 q 456 683 406 707 q 532 633 506 660 q 592 456 592 571 l 592 60 l 683 49 m 474 264 q 338 293 413 293 q 224 263 263 293 q 185 180 185 233 q 217 97 185 126 q 307 67 249 67 q 474 131 399 67 l 474 264 m 329 864 l 140 743 q 99 786 115 757 l 285 957 q 376 957 333 967 l 560 786 q 518 743 540 754 l 329 864 z "},"ã":{"ha":706,"x_min":57,"x_max":683,"o":"m 683 49 q 591 -22 683 -22 q 479 60 499 -22 q 280 -21 389 -21 q 114 29 171 -21 q 57 165 57 79 q 122 310 57 251 q 335 368 186 368 q 474 353 410 368 l 474 449 q 326 624 474 624 q 227 584 260 624 q 192 490 194 544 q 125 504 151 486 q 99 564 99 522 q 162 666 99 625 q 326 707 225 707 q 456 683 406 707 q 532 633 506 660 q 592 456 592 571 l 592 60 l 683 49 m 474 264 q 338 293 413 293 q 224 263 263 293 q 185 180 185 233 q 217 97 185 126 q 307 67 249 67 q 474 131 399 67 l 474 264 m 524 938 l 567 924 q 411 776 536 771 q 305 815 363 778 q 217 854 247 853 q 139 793 164 856 l 96 810 q 152 917 111 878 q 240 953 193 956 q 342 911 288 951 q 432 869 397 871 q 491 888 467 868 q 524 938 515 907 z "},"ä":{"ha":706,"x_min":57,"x_max":683,"o":"m 683 49 q 591 -22 683 -22 q 479 60 499 -22 q 280 -21 389 -21 q 114 29 171 -21 q 57 165 57 79 q 122 310 57 251 q 335 368 186 368 q 474 353 410 368 l 474 449 q 326 624 474 624 q 227 584 260 624 q 192 490 194 544 q 125 504 151 486 q 99 564 99 522 q 162 666 99 625 q 326 707 225 707 q 456 683 406 707 q 532 633 506 660 q 592 456 592 571 l 592 60 l 683 49 m 474 264 q 338 293 413 293 q 224 263 263 293 q 185 180 185 233 q 217 97 185 126 q 307 67 249 67 q 474 131 399 67 l 474 264 m 286 865 q 286 849 286 865 q 263 810 286 833 q 207 786 240 786 q 150 810 174 786 q 126 865 126 833 q 150 921 126 897 q 207 944 174 944 q 263 921 240 944 q 286 865 286 897 m 526 865 q 526 849 526 865 q 503 809 526 832 q 446 786 479 786 q 390 810 413 786 q 367 865 367 833 q 390 921 367 897 q 446 944 413 944 q 503 922 479 944 q 526 865 526 899 z "},"å":{"ha":706,"x_min":57,"x_max":683,"o":"m 683 49 q 591 -22 683 -22 q 479 60 499 -22 q 280 -21 389 -21 q 114 29 171 -21 q 57 165 57 79 q 122 310 57 251 q 335 368 186 368 q 474 353 410 368 l 474 449 q 326 624 474 624 q 227 584 260 624 q 192 490 194 544 q 125 504 151 486 q 99 564 99 522 q 162 666 99 625 q 326 707 225 707 q 456 683 406 707 q 532 633 506 660 q 592 456 592 571 l 592 60 l 683 49 m 474 264 q 338 293 413 293 q 224 263 263 293 q 185 180 185 233 q 217 97 185 126 q 307 67 249 67 q 474 131 399 67 l 474 264 m 424 790 q 406 773 424 790 q 331 756 388 756 q 240 788 274 756 q 206 876 206 821 q 241 967 206 932 q 335 1001 276 1001 q 427 968 393 1001 q 460 880 461 935 q 424 790 460 825 m 378 924 q 369 932 378 924 q 333 940 361 940 q 289 924 306 940 q 272 878 272 907 q 289 833 272 850 q 333 817 306 817 q 378 833 361 817 q 394 878 394 850 q 378 924 394 907 z "},"æ":{"ha":1076,"x_min":57,"x_max":1033,"o":"m 914 431 q 879 574 914 524 q 779 625 844 625 q 669 574 714 625 q 610 431 625 522 l 914 431 m 474 263 q 338 293 413 293 q 224 264 263 293 q 185 180 185 235 q 217 96 185 125 q 308 67 250 67 q 474 131 397 67 l 474 263 m 601 358 l 600 321 q 804 72 600 72 q 999 146 908 72 q 1019 104 1019 132 q 944 21 1019 63 q 767 -21 868 -21 q 531 96 607 -21 q 269 -21 425 -21 q 115 29 172 -21 q 57 166 57 79 q 122 310 57 253 q 335 368 186 368 q 474 353 413 368 l 474 449 q 437 577 474 531 q 328 624 400 624 q 225 583 257 624 q 192 490 193 542 q 126 504 153 486 q 99 563 99 522 q 162 666 99 625 q 326 707 225 707 q 431 692 379 707 q 557 590 526 663 q 794 707 649 707 q 977 626 919 707 q 1033 429 1035 544 l 1033 358 l 601 358 z "},"ç":{"ha":636,"x_min":53,"x_max":596,"o":"m 385 707 q 533 669 478 707 q 588 567 588 631 q 560 502 588 522 q 497 485 533 482 q 463 579 496 539 q 364 619 431 619 q 224 543 272 619 q 176 347 176 467 q 225 149 176 226 q 379 72 274 72 q 574 146 485 72 q 596 104 596 132 q 523 24 596 64 q 360 -21 450 -15 l 350 -60 q 436 -88 408 -60 q 464 -163 464 -117 q 427 -241 464 -210 q 328 -272 390 -272 q 229 -233 265 -272 q 246 -185 225 -199 q 315 -210 278 -210 q 375 -161 375 -210 q 354 -125 375 -137 q 275 -112 333 -112 l 300 -18 q 118 86 182 -4 q 53 318 54 176 q 140 599 51 492 q 385 707 229 707 z "},"è":{"ha":656,"x_min":53,"x_max":613,"o":"m 613 358 l 179 358 q 178 324 178 347 q 383 72 178 72 q 578 146 486 72 q 597 104 597 133 q 522 21 597 63 q 346 -21 446 -21 q 131 65 210 -21 q 53 326 53 151 q 144 604 53 501 q 365 707 235 707 q 555 626 496 707 q 613 429 614 546 l 613 358 m 456 574 q 439 600 456 574 q 358 625 422 625 q 249 574 294 625 q 186 431 204 524 l 493 431 q 456 574 490 524 m 274 974 l 503 794 q 457 749 488 764 l 178 899 q 219 947 190 924 q 274 974 247 971 z "},"é":{"ha":656,"x_min":53,"x_max":613,"o":"m 613 358 l 179 358 q 178 324 178 347 q 383 72 178 72 q 578 146 486 72 q 597 104 597 133 q 522 21 597 63 q 346 -21 446 -21 q 131 65 210 -21 q 53 326 53 151 q 144 604 53 501 q 365 707 235 707 q 555 626 496 707 q 613 429 614 546 l 613 358 m 456 574 q 439 600 456 574 q 358 625 422 625 q 249 574 294 625 q 186 431 204 524 l 493 431 q 456 574 490 524 m 583 899 l 304 749 q 258 794 274 764 l 488 974 q 542 947 514 971 q 583 899 571 924 z "},"ê":{"ha":656,"x_min":53,"x_max":613,"o":"m 613 358 l 179 358 q 178 324 178 347 q 383 72 178 72 q 578 146 486 72 q 597 104 597 133 q 522 21 597 63 q 346 -21 446 -21 q 131 65 210 -21 q 53 326 53 151 q 144 604 53 501 q 365 707 235 707 q 555 626 496 707 q 613 429 614 546 l 613 358 m 456 574 q 439 600 456 574 q 358 625 422 625 q 249 574 294 625 q 186 431 204 524 l 493 431 q 456 574 490 524 m 369 864 l 181 743 q 139 786 156 757 l 325 957 q 417 957 372 967 l 600 786 q 557 743 581 754 l 369 864 z "},"ë":{"ha":656,"x_min":53,"x_max":613,"o":"m 613 358 l 179 358 q 178 324 178 347 q 383 72 178 72 q 578 146 486 72 q 597 104 597 133 q 522 21 597 63 q 346 -21 446 -21 q 131 65 210 -21 q 53 326 53 151 q 144 604 53 501 q 365 707 235 707 q 555 626 496 707 q 613 429 614 546 l 613 358 m 456 574 q 439 600 456 574 q 358 625 422 625 q 249 574 294 625 q 186 431 204 524 l 493 431 q 456 574 490 524 m 326 865 q 326 849 326 865 q 303 810 326 833 q 247 786 281 786 q 190 810 214 786 q 167 865 167 833 q 190 921 167 897 q 247 944 214 944 q 303 921 281 944 q 326 865 326 897 m 567 865 q 567 849 567 865 q 543 809 567 832 q 486 786 519 786 q 430 810 453 786 q 407 865 407 833 q 430 921 407 897 q 486 944 453 944 q 543 922 519 944 q 567 865 567 899 z "},"ì":{"ha":415,"x_min":14,"x_max":383,"o":"m 338 0 l 60 0 l 60 11 q 67 42 60 25 q 108 69 76 67 l 163 72 l 163 608 l 96 615 q 57 682 57 619 l 281 707 l 281 75 l 383 67 q 338 0 390 0 m 110 974 l 339 794 q 293 749 324 764 l 14 899 q 55 947 26 924 q 110 974 83 971 z "},"í":{"ha":415,"x_min":57,"x_max":419,"o":"m 338 0 l 60 0 l 60 11 q 67 42 60 25 q 108 69 76 67 l 163 72 l 163 608 l 96 615 q 57 682 57 619 l 281 707 l 281 75 l 383 67 q 338 0 390 0 m 419 899 l 140 749 q 94 794 110 764 l 324 974 q 378 947 350 971 q 419 899 407 924 z "},"î":{"ha":415,"x_min":-25,"x_max":436,"o":"m 253 957 l 436 786 q 393 743 417 754 l 206 864 l 17 743 q -25 786 -8 757 l 161 957 q 253 957 208 967 m 338 0 l 60 0 l 60 11 q 67 42 60 25 q 108 69 76 67 l 163 72 l 163 608 l 96 615 q 57 682 57 619 l 281 707 l 281 75 l 383 67 q 338 0 390 0 z "},"ï":{"ha":415,"x_min":3,"x_max":403,"o":"m 338 0 l 60 0 l 60 11 q 67 42 60 25 q 108 69 76 67 l 163 72 l 163 608 l 96 615 q 57 682 57 619 l 281 707 l 281 75 l 383 67 q 338 0 390 0 m 140 921 q 151 909 140 921 q 163 865 163 897 q 140 810 163 833 q 83 786 117 786 q 26 810 50 786 q 3 865 3 833 q 26 921 3 897 q 83 944 50 944 q 140 921 117 944 m 403 865 q 403 849 403 865 q 379 809 403 832 q 322 786 356 786 q 266 810 289 786 q 243 865 243 833 q 266 921 243 897 q 322 944 289 944 q 379 922 356 944 q 403 865 403 899 z "},"ð":{"ha":731,"x_min":53,"x_max":678,"o":"m 678 403 q 586 94 678 208 q 338 -21 494 -21 q 129 63 203 -21 q 53 302 56 147 q 138 562 50 457 q 385 667 226 667 q 504 643 454 667 q 383 797 461 733 l 253 713 l 214 778 l 317 843 q 160 900 235 889 l 200 971 q 401 899 304 954 l 518 972 l 557 911 l 468 854 q 678 403 678 692 m 176 313 q 176 256 176 313 q 219 135 176 199 q 353 72 263 72 q 499 161 443 72 q 554 399 554 250 q 544 515 554 454 q 372 581 474 581 q 223 503 269 581 q 176 313 176 426 z "},"ñ":{"ha":867,"x_min":57,"x_max":835,"o":"m 261 793 l 218 810 q 274 917 233 878 q 363 953 315 956 q 465 911 410 951 q 556 869 519 871 q 646 938 624 868 l 688 924 q 533 776 660 771 q 427 815 485 778 q 341 854 369 853 q 291 837 313 856 q 261 793 269 818 m 789 0 l 517 0 l 517 11 q 522 42 517 25 q 565 69 533 67 l 619 72 l 619 426 q 475 607 619 607 q 375 587 418 607 q 281 522 332 567 l 281 75 l 379 67 q 333 0 386 0 l 58 0 l 58 11 q 64 42 58 25 q 107 69 75 67 l 163 72 l 163 606 l 96 613 q 57 678 57 617 l 257 703 l 272 604 l 276 604 q 494 707 388 707 q 668 640 600 707 q 736 432 736 572 l 736 75 l 835 67 q 789 0 842 0 z "},"ò":{"ha":719,"x_min":53,"x_max":667,"o":"m 451 749 l 172 899 q 213 947 185 924 q 268 974 242 971 l 497 794 q 451 749 482 764 m 371 707 q 581 622 496 707 q 667 360 665 538 q 583 81 668 183 q 352 -21 499 -21 q 130 69 206 -21 q 53 329 54 158 q 137 603 51 500 q 371 707 222 707 m 224 545 q 200 506 224 545 q 176 340 176 467 q 224 137 176 214 q 358 60 271 60 q 494 137 446 61 q 543 338 543 213 q 497 544 543 464 q 362 624 451 625 q 224 545 272 624 z "},"ó":{"ha":719,"x_min":53,"x_max":667,"o":"m 224 545 q 200 506 224 545 q 176 340 176 467 q 224 137 176 214 q 358 60 271 60 q 494 137 446 61 q 543 338 543 213 q 497 544 543 464 q 362 624 451 625 q 224 545 272 624 m 371 707 q 581 622 496 707 q 667 360 665 538 q 583 81 668 183 q 352 -21 499 -21 q 130 69 206 -21 q 53 329 54 158 q 137 603 51 500 q 371 707 222 707 m 578 899 l 299 749 q 253 794 268 764 l 482 974 q 537 947 508 971 q 578 899 565 924 z "},"ô":{"ha":719,"x_min":53,"x_max":667,"o":"m 667 360 q 667 272 667 360 q 583 81 668 183 q 352 -21 499 -21 q 130 69 206 -21 q 53 329 54 158 q 137 603 51 500 q 371 707 222 707 q 581 622 496 707 q 667 360 665 538 m 358 60 q 402 61 358 60 q 494 137 446 61 q 543 338 543 213 q 497 544 543 464 q 362 624 451 625 q 224 545 272 624 q 176 340 176 467 q 224 137 176 214 q 358 60 271 60 m 364 864 l 175 743 q 133 786 150 757 l 319 957 q 411 957 367 967 l 594 786 q 551 743 575 754 l 364 864 z "},"õ":{"ha":719,"x_min":53,"x_max":667,"o":"m 174 793 l 131 810 q 187 917 146 878 q 275 953 228 956 q 377 911 322 951 q 467 869 432 871 q 526 888 501 868 q 558 938 550 907 l 601 924 q 446 776 571 771 q 340 815 397 778 q 251 854 282 853 q 174 793 199 856 m 224 545 q 200 506 224 545 q 176 340 176 467 q 224 137 176 214 q 358 60 271 60 q 494 137 446 61 q 543 338 543 213 q 497 544 543 464 q 362 624 451 625 q 224 545 272 624 m 371 707 q 581 622 496 707 q 667 360 665 538 q 583 81 668 183 q 352 -21 499 -21 q 130 69 206 -21 q 53 329 54 158 q 137 603 51 500 q 371 707 222 707 z "},"ö":{"ha":719,"x_min":53,"x_max":667,"o":"m 224 545 q 200 506 224 545 q 176 340 176 467 q 224 137 176 214 q 358 60 271 60 q 494 137 446 61 q 543 338 543 213 q 497 544 543 464 q 362 624 451 625 q 224 545 272 624 m 371 707 q 581 622 496 707 q 667 360 665 538 q 583 81 668 183 q 352 -21 499 -21 q 130 69 206 -21 q 53 329 54 158 q 137 603 51 500 q 371 707 222 707 m 561 865 q 561 849 561 865 q 538 809 561 832 q 481 786 514 786 q 424 810 447 786 q 401 865 401 833 q 424 921 401 897 q 481 944 447 944 q 538 922 514 944 q 561 865 561 899 m 321 865 q 321 849 321 865 q 298 810 321 833 q 242 786 275 786 q 185 810 208 786 q 161 865 161 833 q 185 921 161 897 q 242 944 208 944 q 298 921 275 944 q 321 865 321 897 z "},"÷":{"ha":676,"x_min":69,"x_max":607,"o":"m 397 548 q 384 536 397 548 q 336 524 372 524 q 276 548 300 524 q 251 608 251 572 q 276 669 251 644 q 336 693 300 693 q 397 669 372 693 q 421 608 421 644 q 397 548 421 572 m 397 112 q 384 100 397 112 q 336 88 372 88 q 276 112 300 88 q 251 172 251 136 q 276 233 251 208 q 336 257 300 257 q 397 233 372 257 q 421 172 421 208 q 397 112 421 136 m 69 433 l 607 433 l 607 346 l 69 346 l 69 433 z "},"ø":{"ha":724,"x_min":53,"x_max":668,"o":"m 346 -21 q 218 3 276 -21 l 201 -26 l 124 17 l 144 53 q 53 320 56 140 q 137 603 51 500 q 371 707 222 707 q 507 678 442 707 l 528 714 l 607 674 l 578 625 q 667 358 667 532 q 583 81 668 183 q 346 -21 499 -21 m 360 625 q 224 545 272 624 q 176 351 176 467 q 208 164 176 236 l 457 592 q 360 625 415 625 m 360 61 q 494 137 446 61 q 543 326 543 213 q 513 511 543 440 l 268 89 q 360 61 307 61 z "},"ù":{"ha":806,"x_min":19,"x_max":775,"o":"m 486 749 l 207 899 q 248 947 219 924 q 303 974 276 971 l 532 794 q 486 749 517 764 m 456 633 q 501 686 456 686 l 681 686 l 681 83 l 738 78 q 775 10 775 76 l 599 -6 l 576 69 q 374 -21 481 -21 q 196 48 268 -21 q 124 264 124 117 l 124 611 l 19 615 l 19 633 q 65 686 19 686 l 242 686 l 242 268 q 397 75 242 75 q 564 143 485 75 l 564 611 l 456 615 l 456 633 z "},"ú":{"ha":806,"x_min":19,"x_max":775,"o":"m 456 633 q 501 686 456 686 l 681 686 l 681 83 l 738 78 q 775 10 775 76 l 599 -6 l 576 69 q 374 -21 481 -21 q 196 48 268 -21 q 124 264 124 117 l 124 611 l 19 615 l 19 633 q 65 686 19 686 l 242 686 l 242 268 q 397 75 242 75 q 564 143 485 75 l 564 611 l 456 615 l 456 633 m 613 899 l 333 749 q 288 794 303 764 l 517 974 q 572 947 543 971 q 613 899 600 924 z "},"û":{"ha":806,"x_min":19,"x_max":775,"o":"m 456 633 q 501 686 456 686 l 681 686 l 681 83 l 738 78 q 775 10 775 76 l 599 -6 l 576 69 q 374 -21 481 -21 q 196 48 268 -21 q 124 264 124 117 l 124 611 l 19 615 l 19 633 q 65 686 19 686 l 242 686 l 242 268 q 397 75 242 75 q 564 143 485 75 l 564 611 l 456 615 l 456 633 m 399 864 l 208 743 q 167 786 183 757 l 353 957 q 444 957 401 967 l 629 786 q 586 743 606 753 l 399 864 z "},"ü":{"ha":806,"x_min":19,"x_max":775,"o":"m 456 633 q 501 686 456 686 l 681 686 l 681 83 l 738 78 q 775 10 775 76 l 599 -6 l 576 69 q 374 -21 481 -21 q 196 48 268 -21 q 124 264 124 117 l 124 611 l 19 615 l 19 633 q 65 686 19 686 l 242 686 l 242 268 q 397 75 242 75 q 564 143 485 75 l 564 611 l 456 615 l 456 633 m 594 865 q 594 849 594 865 q 571 809 594 832 q 514 786 547 786 q 458 810 481 786 q 435 865 435 833 q 458 921 435 897 q 514 944 481 944 q 571 922 547 944 q 594 865 594 899 m 354 865 q 354 849 354 865 q 331 810 354 833 q 275 786 308 786 q 218 810 242 786 q 194 865 194 833 q 218 921 194 897 q 275 944 242 944 q 331 921 308 944 q 354 865 354 897 z "},"ý":{"ha":704,"x_min":6,"x_max":701,"o":"m 513 686 l 701 686 l 701 675 q 640 615 701 622 l 397 17 l 396 17 q 267 -239 318 -178 q 211 -287 244 -265 q 135 -310 178 -310 q 65 -285 93 -310 q 38 -228 38 -261 q 56 -174 38 -194 q 97 -154 74 -154 q 126 -157 119 -154 q 160 -217 113 -217 q 242 -134 196 -217 q 322 40 288 -51 l 78 611 l 76 611 l 6 619 q 50 686 -1 686 l 300 686 l 300 675 q 251 617 300 621 l 210 614 l 379 185 l 543 611 l 468 619 q 513 686 461 686 m 585 899 l 306 749 q 260 794 275 764 l 489 974 q 544 947 515 971 q 585 899 572 924 z "},"þ":{"ha":778,"x_min":17,"x_max":725,"o":"m 18 -289 q 67 -231 18 -231 l 121 -226 l 121 879 l 51 886 q 17 950 17 890 l 238 975 l 238 614 q 453 707 342 707 q 642 623 564 707 q 724 366 721 539 q 640 86 728 193 q 390 -21 553 -21 q 238 13 307 -21 l 238 -224 l 342 -232 q 296 -299 349 -299 l 18 -299 l 18 -289 m 238 131 q 410 65 310 65 q 555 144 510 65 q 600 344 600 224 q 553 539 600 465 q 410 613 507 613 q 324 593 363 613 q 238 532 286 574 l 238 131 z "},"ÿ":{"ha":704,"x_min":6,"x_max":701,"o":"m 513 686 l 701 686 l 701 675 q 640 615 701 622 l 397 17 l 396 17 q 267 -239 318 -178 q 211 -287 244 -265 q 135 -310 178 -310 q 65 -285 93 -310 q 38 -228 38 -261 q 56 -174 38 -194 q 97 -154 74 -154 q 126 -157 119 -154 q 160 -217 113 -217 q 242 -134 196 -217 q 322 40 288 -51 l 78 611 l 76 611 l 6 619 q 50 686 -1 686 l 300 686 l 300 675 q 251 617 300 621 l 210 614 l 379 185 l 543 611 l 468 619 q 513 686 461 686 m 328 865 q 328 849 328 865 q 305 810 328 833 q 249 786 282 786 q 192 810 215 786 q 168 865 168 833 q 192 921 168 897 q 249 944 215 944 q 305 921 282 944 q 328 865 328 897 m 568 865 q 568 849 568 865 q 544 809 568 832 q 488 786 521 786 q 431 810 454 786 q 408 865 408 833 q 431 921 408 897 q 488 944 454 944 q 544 922 521 944 q 568 865 568 899 z "},"Ā":{"ha":868,"x_min":15,"x_max":850,"o":"m 804 0 l 521 0 l 521 11 q 569 72 521 68 l 626 75 l 558 314 l 276 314 l 207 78 l 315 69 q 269 0 322 0 l 15 0 l 15 11 q 64 72 15 68 l 118 75 l 386 944 q 492 944 439 950 l 757 78 l 850 69 q 804 0 857 0 m 299 390 l 538 390 l 419 800 l 299 390 m 626 1144 l 626 1061 l 247 1061 l 247 1144 l 626 1144 z "},"ā":{"ha":706,"x_min":57,"x_max":683,"o":"m 683 49 q 591 -22 683 -22 q 479 60 499 -22 q 280 -21 389 -21 q 114 29 171 -21 q 57 165 57 79 q 122 310 57 251 q 335 368 186 368 q 474 353 410 368 l 474 449 q 326 624 474 624 q 227 584 260 624 q 192 490 194 544 q 125 504 151 486 q 99 564 99 522 q 162 666 99 625 q 326 707 225 707 q 456 683 406 707 q 532 633 506 660 q 592 456 592 571 l 592 60 l 683 49 m 474 264 q 338 293 413 293 q 224 263 263 293 q 185 180 185 233 q 217 97 185 126 q 307 67 249 67 q 474 131 399 67 l 474 264 m 518 886 l 518 803 l 139 803 l 139 886 l 518 886 z "},"Ă":{"ha":868,"x_min":15,"x_max":850,"o":"m 804 0 l 521 0 l 521 11 q 569 72 521 68 l 626 75 l 558 314 l 276 314 l 207 78 l 315 69 q 269 0 322 0 l 15 0 l 15 11 q 64 72 15 68 l 118 75 l 386 944 q 492 944 439 950 l 757 78 l 850 69 q 804 0 857 0 m 299 390 l 538 390 l 419 800 l 299 390 m 657 1208 q 591 1078 647 1135 q 438 1022 535 1022 q 285 1078 342 1022 q 219 1208 229 1135 l 267 1232 q 326 1156 283 1190 q 440 1121 369 1121 q 610 1231 568 1121 l 657 1208 z "},"ă":{"ha":706,"x_min":57,"x_max":683,"o":"m 683 49 q 591 -22 683 -22 q 479 60 499 -22 q 280 -21 389 -21 q 114 29 171 -21 q 57 165 57 79 q 122 310 57 251 q 335 368 186 368 q 474 353 410 368 l 474 449 q 326 624 474 624 q 227 584 260 624 q 192 490 194 544 q 125 504 151 486 q 99 564 99 522 q 162 666 99 625 q 326 707 225 707 q 456 683 406 707 q 532 633 506 660 q 592 456 592 571 l 592 60 l 683 49 m 474 264 q 338 293 413 293 q 224 263 263 293 q 185 180 185 233 q 217 97 185 126 q 307 67 249 67 q 474 131 399 67 l 474 264 m 550 939 q 483 809 539 865 q 330 753 426 753 q 178 808 233 753 q 111 939 122 864 l 158 963 q 218 886 175 921 q 332 851 261 851 q 501 961 460 851 l 550 939 z "},"Ą":{"ha":868,"x_min":15,"x_max":871,"o":"m 804 0 l 799 0 q 718 -107 718 -37 q 783 -176 718 -176 q 861 -144 818 -176 q 870 -165 867 -149 q 871 -193 874 -182 q 756 -240 838 -240 q 664 -210 699 -240 q 629 -132 629 -181 q 706 0 629 -53 l 521 0 l 521 11 q 569 72 521 68 l 626 75 l 558 314 l 276 314 l 207 78 l 315 69 q 269 0 322 0 l 15 0 l 15 11 q 64 72 15 68 l 118 75 l 386 944 q 492 944 439 950 l 757 78 l 850 69 q 804 0 857 0 m 299 390 l 538 390 l 419 800 l 299 390 z "},"ą":{"ha":706,"x_min":57,"x_max":706,"o":"m 553 -118 q 619 -185 553 -185 q 696 -154 658 -185 q 705 -175 701 -158 q 706 -201 708 -192 q 590 -249 672 -249 q 499 -219 535 -249 q 464 -140 464 -189 q 536 -12 464 -65 q 479 60 490 4 q 280 -21 389 -21 q 114 29 171 -21 q 57 165 57 79 q 122 310 57 251 q 335 368 186 368 q 474 353 410 368 l 474 449 q 326 624 474 624 q 227 584 260 624 q 192 490 194 544 q 125 504 151 486 q 99 564 99 522 q 162 666 99 625 q 326 707 225 707 q 456 683 406 707 q 532 633 506 660 q 592 456 592 571 l 592 60 l 683 49 q 611 -21 683 -12 q 553 -118 553 -57 m 474 264 q 338 293 413 293 q 224 263 263 293 q 185 180 185 233 q 217 97 185 126 q 307 67 249 67 q 474 131 399 67 l 474 264 z "},"Ć":{"ha":793,"x_min":51,"x_max":754,"o":"m 678 1164 l 399 1014 q 353 1060 368 1031 l 582 1240 q 638 1213 610 1236 q 678 1164 665 1189 m 479 964 q 670 913 594 964 q 746 786 746 861 q 643 694 746 697 q 597 829 643 782 q 467 876 550 876 q 254 765 328 876 q 181 471 181 653 q 485 75 181 75 q 736 160 629 75 q 754 125 754 151 q 666 28 754 78 q 453 -21 578 -21 q 158 103 260 -21 q 52 451 56 228 q 161 819 49 675 q 479 964 274 964 z "},"ć":{"ha":636,"x_min":53,"x_max":596,"o":"m 385 707 q 533 669 478 707 q 588 567 588 631 q 560 502 588 522 q 497 485 533 482 q 463 579 496 539 q 364 619 431 619 q 224 543 272 619 q 176 347 176 467 q 225 149 176 226 q 379 72 274 72 q 574 146 485 72 q 596 104 596 132 q 516 21 596 63 q 342 -21 436 -21 q 130 72 206 -21 q 53 328 54 164 q 140 599 51 492 q 385 707 229 707 m 582 899 l 303 749 q 257 794 272 764 l 486 974 q 541 947 513 971 q 582 899 569 924 z "},"Ĉ":{"ha":793,"x_min":51,"x_max":754,"o":"m 754 125 q 666 28 754 78 q 453 -21 578 -21 q 158 103 260 -21 q 52 451 56 228 q 161 819 49 675 q 479 964 274 964 q 670 913 594 964 q 746 786 746 861 q 643 694 746 697 q 597 829 643 782 q 467 876 550 876 q 254 765 328 876 q 181 471 181 653 q 485 75 181 75 q 736 160 629 75 q 754 125 754 151 m 464 1122 l 275 1001 q 233 1044 250 1015 l 419 1215 q 511 1215 467 1225 l 694 1044 q 651 1001 675 1013 l 464 1122 z "},"ĉ":{"ha":636,"x_min":53,"x_max":599,"o":"m 596 104 q 516 21 596 63 q 342 -21 436 -21 q 130 72 206 -21 q 53 328 54 164 q 140 599 51 492 q 385 707 229 707 q 533 669 478 707 q 588 567 588 631 q 560 502 588 522 q 497 485 533 482 q 463 579 496 539 q 364 619 431 619 q 224 543 272 619 q 176 347 176 467 q 225 149 176 226 q 379 72 274 72 q 574 146 485 72 q 596 104 596 132 m 368 864 l 179 743 q 138 786 154 757 l 324 957 q 415 957 371 967 l 599 786 q 556 743 579 754 l 368 864 z "},"Ċ":{"ha":793,"x_min":51,"x_max":754,"o":"m 479 964 q 670 913 594 964 q 746 786 746 861 q 643 694 746 697 q 597 829 643 782 q 467 876 550 876 q 254 765 328 876 q 181 471 181 653 q 485 75 181 75 q 736 160 629 75 q 754 125 754 151 q 666 28 754 78 q 453 -21 578 -21 q 158 103 260 -21 q 52 451 56 228 q 161 819 49 675 q 479 964 274 964 m 524 1099 q 513 1088 524 1099 q 467 1076 501 1076 q 410 1099 432 1076 q 388 1155 388 1121 q 410 1211 388 1189 q 467 1233 432 1233 q 524 1211 501 1233 q 546 1155 546 1189 q 524 1099 546 1121 z "},"ċ":{"ha":636,"x_min":53,"x_max":596,"o":"m 428 804 q 417 793 428 804 q 371 782 406 782 q 314 804 336 782 q 292 860 292 826 q 314 917 292 894 q 371 939 336 939 q 428 917 406 939 q 450 860 450 894 q 428 804 450 826 m 385 707 q 533 669 478 707 q 588 567 588 631 q 560 502 588 522 q 497 485 533 482 q 463 579 496 539 q 364 619 431 619 q 224 543 272 619 q 176 347 176 467 q 225 149 176 226 q 379 72 274 72 q 574 146 485 72 q 596 104 596 132 q 516 21 596 63 q 342 -21 436 -21 q 130 72 206 -21 q 53 328 54 164 q 140 599 51 492 q 385 707 229 707 z "},"Č":{"ha":793,"x_min":51,"x_max":754,"o":"m 754 125 q 666 28 754 78 q 453 -21 578 -21 q 158 103 260 -21 q 52 451 56 228 q 161 819 49 675 q 479 964 274 964 q 670 913 594 964 q 746 786 746 861 q 643 694 746 697 q 597 829 643 782 q 467 876 550 876 q 254 765 328 876 q 181 471 181 653 q 485 75 181 75 q 736 160 629 75 q 754 125 754 151 m 693 1193 l 510 1024 q 418 1024 467 1013 l 232 1193 q 274 1236 250 1224 l 463 1115 l 650 1236 q 693 1193 675 1224 z "},"č":{"ha":636,"x_min":53,"x_max":597,"o":"m 596 104 q 516 21 596 63 q 342 -21 436 -21 q 130 72 206 -21 q 53 328 54 164 q 140 599 51 492 q 385 707 229 707 q 533 669 478 707 q 588 567 588 631 q 560 502 588 522 q 497 485 533 482 q 463 579 496 539 q 364 619 431 619 q 224 543 272 619 q 176 347 176 467 q 225 149 176 226 q 379 72 274 72 q 574 146 485 72 q 596 104 596 132 m 597 936 l 414 765 q 322 765 371 756 l 136 936 q 178 979 153 965 l 367 858 l 554 979 q 597 936 578 968 z "},"Ď":{"ha":942,"x_min":58,"x_max":890,"o":"m 111 946 l 413 946 q 774 831 658 946 q 890 481 890 715 q 768 123 890 246 q 415 0 646 0 l 58 0 q 101 71 54 68 l 161 76 l 161 867 l 61 875 q 111 946 58 946 m 381 75 q 667 167 571 69 q 763 476 763 264 q 663 783 763 689 q 357 871 564 878 l 285 868 l 283 868 l 283 78 l 381 75 m 640 1194 l 456 1025 q 364 1025 413 1014 l 179 1194 q 219 1239 194 1225 l 410 1117 l 597 1239 q 640 1194 619 1226 z "},"ď":{"ha":878,"x_min":53,"x_max":851,"o":"m 851 1010 q 769 744 858 849 q 740 750 761 739 q 719 768 719 761 q 743 897 740 818 q 731 1021 746 976 q 794 1035 749 1039 q 851 1010 840 1032 m 747 51 q 649 -21 744 -21 q 542 72 554 -21 q 328 -21 443 -21 q 135 64 214 -21 q 53 321 56 149 q 138 600 50 493 q 388 707 225 707 q 540 674 469 707 l 540 875 l 472 882 q 435 949 431 886 l 657 976 l 657 61 l 747 51 m 540 556 q 368 621 468 621 q 222 541 268 621 q 176 342 176 461 q 224 147 176 222 q 361 72 272 72 q 540 154 450 72 l 540 556 z "},"Đ":{"ha":972,"x_min":58,"x_max":890,"o":"m 111 946 l 413 946 q 774 831 658 946 q 890 481 890 715 q 768 123 890 246 q 415 0 646 0 l 58 0 q 101 71 54 68 l 161 76 l 161 429 l 86 429 l 86 507 l 161 507 l 161 867 l 61 875 q 111 946 58 946 m 381 75 q 667 167 571 69 q 763 476 763 264 q 663 783 763 689 q 357 871 564 878 l 285 868 l 283 868 l 283 507 l 517 507 l 517 429 l 283 429 l 283 78 l 381 75 z "},"đ":{"ha":788,"x_min":53,"x_max":765,"o":"m 765 744 l 657 744 l 657 61 l 747 51 q 649 -21 744 -21 q 542 72 554 -21 q 328 -21 443 -21 q 135 64 214 -21 q 53 321 56 149 q 138 600 50 493 q 388 707 225 707 q 540 674 469 707 l 540 744 l 436 744 l 436 817 l 540 817 l 540 875 l 472 882 q 435 949 431 886 l 657 976 l 657 817 l 765 817 l 765 744 m 540 556 q 368 621 468 621 q 222 541 268 621 q 176 342 176 461 q 224 147 176 222 q 361 72 272 72 q 540 154 450 72 l 540 556 z "},"Ē":{"ha":775,"x_min":57,"x_max":721,"o":"m 240 1144 l 619 1144 l 619 1061 l 240 1061 l 240 1144 m 721 200 l 721 0 l 57 0 l 57 11 q 106 72 57 68 l 163 75 l 163 865 l 61 875 q 108 943 54 943 l 700 943 l 700 743 q 631 701 700 694 l 618 861 l 283 867 l 283 503 l 546 525 q 546 414 557 472 l 283 428 l 283 78 l 639 88 l 651 242 q 721 200 721 249 z "},"ē":{"ha":656,"x_min":53,"x_max":613,"o":"m 613 358 l 179 358 q 178 324 178 347 q 383 72 178 72 q 578 146 486 72 q 597 104 597 133 q 522 21 597 63 q 346 -21 446 -21 q 131 65 210 -21 q 53 326 53 151 q 144 604 53 501 q 365 707 235 707 q 555 626 496 707 q 613 429 614 546 l 613 358 m 456 574 q 439 600 456 574 q 358 625 422 625 q 249 574 294 625 q 186 431 204 524 l 493 431 q 456 574 490 524 m 558 886 l 558 803 l 179 803 l 179 886 l 558 886 z "},"Ĕ":{"ha":775,"x_min":57,"x_max":721,"o":"m 721 200 l 721 0 l 57 0 l 57 11 q 106 72 57 68 l 163 75 l 163 865 l 61 875 q 108 943 54 943 l 700 943 l 700 743 q 631 701 700 694 l 618 861 l 283 867 l 283 503 l 546 525 q 546 414 557 472 l 283 428 l 283 78 l 639 88 l 651 242 q 721 200 721 249 m 432 1121 q 601 1231 558 1121 l 650 1208 q 583 1079 639 1135 q 430 1024 526 1024 q 278 1079 333 1024 q 211 1208 222 1135 l 260 1232 q 318 1156 275 1192 q 432 1121 361 1121 z "},"ĕ":{"ha":656,"x_min":53,"x_max":613,"o":"m 613 358 l 179 358 q 178 324 178 347 q 383 72 178 72 q 578 146 486 72 q 597 104 597 133 q 522 21 597 63 q 346 -21 446 -21 q 131 65 210 -21 q 53 326 53 151 q 144 604 53 501 q 365 707 235 707 q 555 626 496 707 q 613 429 614 546 l 613 358 m 456 574 q 439 600 456 574 q 358 625 422 625 q 249 574 294 625 q 186 431 204 524 l 493 431 q 456 574 490 524 m 589 939 q 522 809 578 865 q 369 753 465 753 q 217 808 272 753 q 150 939 161 864 l 199 963 q 257 886 214 921 q 371 851 300 851 q 540 961 499 851 l 589 939 z "},"Ė":{"ha":775,"x_min":57,"x_max":721,"o":"m 511 1154 q 511 1137 511 1154 q 489 1098 511 1119 q 433 1076 467 1076 q 376 1098 399 1076 q 354 1154 354 1119 q 376 1211 354 1189 q 433 1233 399 1233 q 489 1211 467 1233 q 511 1154 511 1189 m 721 200 l 721 0 l 57 0 l 57 11 q 106 72 57 68 l 163 75 l 163 865 l 61 875 q 108 943 54 943 l 700 943 l 700 743 q 631 701 700 694 l 618 861 l 283 867 l 283 503 l 546 525 q 546 414 557 472 l 283 428 l 283 78 l 639 88 l 651 242 q 721 200 721 249 z "},"ė":{"ha":656,"x_min":53,"x_max":613,"o":"m 613 358 l 179 358 q 178 324 178 347 q 383 72 178 72 q 578 146 486 72 q 597 104 597 133 q 522 21 597 63 q 346 -21 446 -21 q 131 65 210 -21 q 53 326 53 151 q 144 604 53 501 q 365 707 235 707 q 555 626 496 707 q 613 429 614 546 l 613 358 m 456 574 q 439 600 456 574 q 358 625 422 625 q 249 574 294 625 q 186 431 204 524 l 493 431 q 456 574 490 524 m 450 897 q 450 880 450 897 q 428 840 450 863 q 372 818 406 818 q 315 840 338 818 q 293 897 293 863 q 315 953 293 931 q 372 975 338 975 q 428 953 406 975 q 450 897 450 931 z "},"Ę":{"ha":775,"x_min":57,"x_max":807,"o":"m 754 15 q 654 -97 654 -25 q 721 -169 654 -169 q 797 -139 757 -169 q 806 -160 803 -143 q 807 -186 810 -176 q 692 -235 772 -235 q 600 -205 635 -235 q 565 -126 565 -175 q 633 0 565 -51 l 57 0 l 57 11 q 106 72 57 68 l 163 75 l 163 865 l 61 875 q 108 943 54 943 l 700 943 l 700 743 q 631 701 700 694 l 618 861 l 283 867 l 283 503 l 546 525 q 546 414 557 472 l 283 428 l 283 78 l 639 88 l 651 242 q 721 200 721 249 l 721 46 l 731 49 l 754 15 z "},"ę":{"ha":656,"x_min":53,"x_max":614,"o":"m 461 -76 q 479 -126 461 -108 q 531 -143 497 -143 q 604 -112 564 -143 q 613 -133 610 -117 q 614 -160 617 -150 q 499 -207 581 -207 q 407 -177 442 -207 q 372 -100 372 -147 q 399 -18 372 -53 q 346 -21 365 -21 q 131 65 210 -21 q 53 326 53 151 q 144 604 53 501 q 365 707 235 707 q 555 626 496 707 q 613 429 614 546 l 613 358 l 179 358 q 178 324 178 347 q 383 72 178 72 q 578 146 486 72 q 597 105 597 133 q 558 46 597 76 l 561 42 q 540 32 547 36 q 514 17 533 28 q 461 -76 461 -17 m 456 574 q 439 600 456 574 q 358 625 422 625 q 249 574 294 625 q 186 431 204 524 l 493 431 q 456 574 490 524 z "},"Ě":{"ha":775,"x_min":57,"x_max":721,"o":"m 721 200 l 721 0 l 57 0 l 57 11 q 106 72 57 68 l 163 75 l 163 865 l 61 875 q 108 943 54 943 l 700 943 l 700 743 q 631 701 700 694 l 618 861 l 283 867 l 283 503 l 546 525 q 546 414 557 472 l 283 428 l 283 78 l 639 88 l 651 242 q 721 200 721 249 m 660 1193 l 476 1024 q 385 1024 432 1013 l 199 1193 q 240 1236 217 1224 l 429 1115 l 617 1236 q 660 1193 642 1224 z "},"ě":{"ha":656,"x_min":53,"x_max":613,"o":"m 613 358 l 179 358 q 178 324 178 347 q 383 72 178 72 q 578 146 486 72 q 597 104 597 133 q 522 21 597 63 q 346 -21 446 -21 q 131 65 210 -21 q 53 326 53 151 q 144 604 53 501 q 365 707 235 707 q 555 626 496 707 q 613 429 614 546 l 613 358 m 456 574 q 439 600 456 574 q 358 625 422 625 q 249 574 294 625 q 186 431 204 524 l 493 431 q 456 574 490 524 m 599 936 l 415 765 q 324 765 371 756 l 138 936 q 179 979 154 965 l 368 858 l 556 979 q 599 936 579 968 z "},"Ĝ":{"ha":894,"x_min":51,"x_max":872,"o":"m 554 429 l 872 429 q 872 419 872 429 q 824 357 872 363 l 786 353 l 783 353 l 783 107 q 646 15 740 50 q 447 -21 551 -21 q 158 101 260 -21 q 52 452 56 224 q 164 824 49 681 q 494 967 279 967 q 715 914 640 967 q 789 788 789 861 q 763 721 789 747 q 686 694 738 694 q 635 840 686 793 q 476 886 583 886 q 254 774 328 886 q 181 468 181 661 q 479 69 181 69 q 678 132 608 69 l 678 350 l 510 358 q 554 429 503 429 m 465 1122 l 276 1001 q 235 1044 251 1015 l 421 1215 q 513 1215 468 1225 l 696 1044 q 653 1001 676 1013 l 465 1122 z "},"ĝ":{"ha":651,"x_min":25,"x_max":642,"o":"m 297 210 q 229 217 264 210 q 199 156 196 175 q 231 138 201 142 q 335 131 261 133 q 565 90 496 128 q 635 -44 635 53 q 542 -242 635 -167 q 310 -317 450 -317 q 97 -264 169 -317 q 25 -122 25 -211 q 125 49 25 -33 q 96 117 96 69 q 165 240 96 165 q 54 435 61 297 q 120 628 49 549 q 313 707 192 707 q 454 669 397 707 l 628 715 q 642 669 640 699 q 628 625 643 639 q 511 617 607 614 q 551 455 553 557 q 481 281 549 353 q 297 210 414 210 m 303 629 q 272 628 303 629 q 203 579 240 628 q 167 456 167 531 q 202 332 167 381 q 301 285 238 283 q 401 335 364 286 q 438 459 438 385 q 402 582 438 533 q 303 629 367 631 m 119 -98 q 119 -128 119 -98 q 174 -190 119 -158 q 326 -222 228 -222 q 488 -179 425 -222 q 550 -75 550 -136 q 453 6 550 -10 q 304 18 389 15 q 183 26 219 21 q 119 -98 119 -37 m 319 864 l 131 743 q 89 786 106 757 l 275 957 q 367 957 322 967 l 550 786 q 507 743 531 754 l 319 864 z "},"Ğ":{"ha":894,"x_min":51,"x_max":872,"o":"m 554 429 l 872 429 q 872 419 872 429 q 824 357 872 363 l 786 353 l 783 353 l 783 107 q 646 15 740 50 q 447 -21 551 -21 q 158 101 260 -21 q 52 452 56 224 q 164 824 49 681 q 494 967 279 967 q 715 914 640 967 q 789 788 789 861 q 763 721 789 747 q 686 694 738 694 q 635 840 686 793 q 476 886 583 886 q 254 774 328 886 q 181 468 181 661 q 479 69 181 69 q 678 132 608 69 l 678 350 l 510 358 q 554 429 503 429 m 685 1208 q 619 1078 675 1135 q 466 1022 563 1022 q 313 1078 369 1022 q 247 1208 257 1135 l 294 1232 q 354 1156 311 1190 q 468 1121 397 1121 q 638 1231 596 1121 l 685 1208 z "},"ğ":{"ha":651,"x_min":25,"x_max":642,"o":"m 297 210 q 229 217 264 210 q 199 156 196 175 q 231 138 201 142 q 335 131 261 133 q 565 90 496 128 q 635 -44 635 53 q 542 -242 635 -167 q 310 -317 450 -317 q 97 -264 169 -317 q 25 -122 25 -211 q 125 49 25 -33 q 96 117 96 69 q 165 240 96 165 q 54 435 61 297 q 120 628 49 549 q 313 707 192 707 q 454 669 397 707 l 628 715 q 642 669 640 699 q 628 625 643 639 q 511 617 607 614 q 551 455 553 557 q 481 281 549 353 q 297 210 414 210 m 303 629 q 272 628 303 629 q 203 579 240 628 q 167 456 167 531 q 202 332 167 381 q 301 285 238 283 q 401 335 364 286 q 438 459 438 385 q 402 582 438 533 q 303 629 367 631 m 119 -98 q 119 -128 119 -98 q 174 -190 119 -158 q 326 -222 228 -222 q 488 -179 425 -222 q 550 -75 550 -136 q 453 6 550 -10 q 304 18 389 15 q 183 26 219 21 q 119 -98 119 -37 m 540 939 q 473 809 529 865 q 320 753 417 753 q 168 808 224 753 q 101 939 113 864 l 149 963 q 208 886 165 921 q 322 851 251 851 q 492 961 450 851 l 540 939 z "},"Ġ":{"ha":894,"x_min":51,"x_max":872,"o":"m 554 429 l 872 429 q 872 419 872 429 q 824 357 872 363 l 786 353 l 783 353 l 783 107 q 646 15 740 50 q 447 -21 551 -21 q 158 101 260 -21 q 52 452 56 224 q 164 824 49 681 q 494 967 279 967 q 715 914 640 967 q 789 788 789 861 q 763 721 789 747 q 686 694 738 694 q 635 840 686 793 q 476 886 583 886 q 254 774 328 886 q 181 468 181 661 q 479 69 181 69 q 678 132 608 69 l 678 350 l 510 358 q 554 429 503 429 m 525 1099 q 514 1088 525 1099 q 468 1076 503 1076 q 411 1099 433 1076 q 389 1155 389 1121 q 411 1211 389 1189 q 468 1233 433 1233 q 525 1211 503 1233 q 547 1155 547 1189 q 525 1099 547 1121 z "},"ġ":{"ha":651,"x_min":25,"x_max":642,"o":"m 297 210 q 229 217 264 210 q 199 156 196 175 q 231 138 201 142 q 335 131 261 133 q 565 90 496 128 q 635 -44 635 53 q 542 -242 635 -167 q 310 -317 450 -317 q 97 -264 169 -317 q 25 -122 25 -211 q 125 49 25 -33 q 96 117 96 69 q 165 240 96 165 q 54 435 61 297 q 120 628 49 549 q 313 707 192 707 q 454 669 397 707 l 628 715 q 642 669 640 699 q 628 625 643 639 q 511 617 607 614 q 551 455 553 557 q 481 281 549 353 q 297 210 414 210 m 303 629 q 272 628 303 629 q 203 579 240 628 q 167 456 167 531 q 202 332 167 381 q 301 285 238 283 q 401 335 364 286 q 438 459 438 385 q 402 582 438 533 q 303 629 367 631 m 119 -98 q 119 -128 119 -98 q 174 -190 119 -158 q 326 -222 228 -222 q 488 -179 425 -222 q 550 -75 550 -136 q 453 6 550 -10 q 304 18 389 15 q 183 26 219 21 q 119 -98 119 -37 m 379 840 q 368 829 379 840 q 322 818 357 818 q 265 840 288 818 q 243 897 243 863 q 265 953 243 931 q 322 975 288 975 q 379 953 357 975 q 401 897 401 931 q 379 840 401 863 z "},"Ģ":{"ha":894,"x_min":51,"x_max":872,"o":"m 554 429 l 872 429 q 872 419 872 429 q 824 357 872 363 l 786 353 l 783 353 l 783 107 q 646 15 740 50 q 447 -21 551 -21 q 158 101 260 -21 q 52 452 56 224 q 164 824 49 681 q 494 967 279 967 q 715 914 640 967 q 789 788 789 861 q 763 721 789 747 q 686 694 738 694 q 635 840 686 793 q 476 886 583 886 q 254 774 328 886 q 181 468 181 661 q 479 69 181 69 q 678 132 608 69 l 678 350 l 510 358 q 554 429 503 429 m 388 -66 q 400 -55 388 -66 q 449 -43 411 -43 q 510 -67 486 -43 q 533 -142 533 -90 q 492 -260 533 -194 q 403 -344 450 -325 q 382 -337 394 -349 q 369 -318 369 -325 q 438 -211 417 -287 q 385 -183 404 -207 q 365 -124 365 -158 q 388 -66 365 -89 z "},"ģ":{"ha":651,"x_min":25,"x_max":642,"o":"m 297 210 q 229 217 264 210 q 199 156 196 175 q 231 138 201 142 q 335 131 261 133 q 565 90 496 128 q 635 -44 635 53 q 542 -242 635 -167 q 310 -317 450 -317 q 97 -264 169 -317 q 25 -122 25 -211 q 125 49 25 -33 q 96 117 96 69 q 165 240 96 165 q 54 435 61 297 q 120 628 49 549 q 313 707 192 707 q 454 669 397 707 l 628 715 q 642 669 640 699 q 628 625 643 639 q 511 617 607 614 q 551 455 553 557 q 481 281 549 353 q 297 210 414 210 m 303 629 q 272 628 303 629 q 203 579 240 628 q 167 456 167 531 q 202 332 167 381 q 301 285 238 283 q 401 335 364 286 q 438 459 438 385 q 402 582 438 533 q 303 629 367 631 m 119 -98 q 119 -128 119 -98 q 174 -190 119 -158 q 326 -222 228 -222 q 488 -179 425 -222 q 550 -75 550 -136 q 453 6 550 -10 q 304 18 389 15 q 183 26 219 21 q 119 -98 119 -37 m 377 788 q 366 777 377 788 q 317 765 354 765 q 256 789 279 765 q 232 865 232 813 q 274 982 232 917 q 363 1067 315 1047 q 383 1059 371 1071 q 396 1040 396 1047 q 328 933 349 1010 q 381 905 361 929 q 400 846 400 881 q 377 788 400 811 z "},"Ĥ":{"ha":1011,"x_min":57,"x_max":954,"o":"m 904 0 l 622 0 l 622 11 q 671 72 622 68 l 728 75 l 728 432 l 283 432 l 283 78 l 386 69 q 340 0 393 0 l 57 0 l 57 11 q 106 72 57 68 l 163 75 l 163 865 l 61 874 q 107 943 54 943 l 390 943 l 390 931 q 342 872 390 876 l 285 868 l 285 508 l 728 508 l 728 865 l 628 874 q 672 943 621 943 l 954 943 l 954 931 q 906 872 954 876 l 850 868 l 850 78 l 950 69 q 904 0 957 0 m 510 1122 l 321 1001 q 279 1044 296 1015 l 465 1215 q 557 1215 513 1225 l 740 1044 q 697 1001 721 1013 l 510 1122 z "},"ĥ":{"ha":872,"x_min":57,"x_max":840,"o":"m 794 0 l 519 0 l 519 11 q 525 42 519 25 q 568 69 536 67 l 619 72 l 619 419 q 464 606 619 606 q 368 585 408 606 q 281 524 328 565 l 281 75 l 383 67 q 338 0 390 0 l 60 0 l 60 11 q 67 42 60 25 q 108 69 76 67 l 163 72 l 163 874 l 96 881 q 57 949 57 885 l 281 976 l 281 799 l 453 957 q 544 957 500 967 l 728 786 q 685 743 708 754 l 497 864 l 308 743 q 281 765 289 756 l 281 613 q 485 707 378 707 q 664 638 593 707 q 736 422 735 569 l 736 75 l 840 67 q 794 0 847 0 z "},"Ħ":{"ha":1011,"x_min":57,"x_max":954,"o":"m 904 0 l 622 0 l 622 11 q 671 72 622 68 l 728 75 l 728 432 l 283 432 l 283 78 l 386 69 q 340 0 393 0 l 57 0 l 57 11 q 106 72 57 68 l 163 75 l 163 635 l 69 635 l 69 713 l 163 713 l 163 865 l 61 874 q 107 943 54 943 l 390 943 l 390 931 q 342 872 390 876 l 285 868 l 285 713 l 728 713 l 728 865 l 628 874 q 672 943 621 943 l 954 943 l 954 931 q 906 872 954 876 l 850 868 l 850 713 l 940 713 l 940 635 l 850 635 l 850 78 l 950 69 q 904 0 957 0 m 285 508 l 728 508 l 728 635 l 285 635 l 285 508 z "},"ħ":{"ha":876,"x_min":61,"x_max":844,"o":"m 799 0 l 524 0 l 524 11 q 531 42 524 25 q 572 69 540 67 l 624 72 l 624 419 q 468 606 624 606 q 372 585 413 606 q 285 524 332 565 l 285 75 l 388 67 q 342 0 394 0 l 64 0 l 64 11 q 69 42 64 25 q 113 69 81 67 l 167 72 l 167 739 l 61 739 l 61 811 l 167 811 l 167 874 l 100 881 q 61 949 61 885 l 285 976 l 285 811 l 390 811 l 390 739 l 285 739 l 285 613 q 490 707 382 707 q 668 638 597 707 q 740 422 739 569 l 740 75 l 844 67 q 799 0 851 0 z "},"Ĩ":{"ha":447,"x_min":-6,"x_max":461,"o":"m 311 1042 q 203 1077 263 1042 q 116 1113 144 1113 q 67 1094 88 1113 q 39 1047 47 1075 l -6 1064 q 48 1174 8 1133 q 135 1214 88 1214 q 238 1176 182 1214 q 330 1138 294 1138 q 388 1157 365 1138 q 418 1208 411 1176 l 461 1196 q 311 1042 438 1042 m 283 868 l 283 78 l 285 78 l 386 69 q 340 0 393 0 l 57 0 l 57 11 q 106 72 57 68 l 163 75 l 163 865 l 61 874 q 107 943 54 943 l 390 943 l 390 931 q 342 872 390 876 l 285 868 l 283 868 z "},"ĩ":{"ha":415,"x_min":-28,"x_max":443,"o":"m 400 938 l 443 924 q 288 776 413 771 q 181 815 239 778 q 93 854 124 853 q 15 793 40 856 l -28 810 q 28 917 -12 878 q 117 953 69 956 q 219 911 164 951 q 308 869 274 871 q 367 888 343 868 q 400 938 392 907 m 338 0 l 60 0 l 60 11 q 67 42 60 25 q 108 69 76 67 l 163 72 l 163 608 l 96 615 q 57 682 57 619 l 281 707 l 281 75 l 383 67 q 338 0 390 0 z "},"Ī":{"ha":447,"x_min":36,"x_max":415,"o":"m 36 1144 l 415 1144 l 415 1061 l 36 1061 l 36 1144 m 283 868 l 283 78 l 285 78 l 386 69 q 340 0 393 0 l 57 0 l 57 11 q 106 72 57 68 l 163 75 l 163 865 l 61 874 q 107 943 54 943 l 390 943 l 390 931 q 342 872 390 876 l 285 868 l 283 868 z "},"ī":{"ha":415,"x_min":15,"x_max":394,"o":"m 15 886 l 394 886 l 394 803 l 15 803 l 15 886 m 338 0 l 60 0 l 60 11 q 67 42 60 25 q 108 69 76 67 l 163 72 l 163 608 l 96 615 q 57 682 57 619 l 281 707 l 281 75 l 383 67 q 338 0 390 0 z "},"Ĭ":{"ha":447,"x_min":8,"x_max":447,"o":"m 283 868 l 283 78 l 285 78 l 386 69 q 340 0 393 0 l 57 0 l 57 11 q 106 72 57 68 l 163 75 l 163 865 l 61 874 q 107 943 54 943 l 390 943 l 390 931 q 342 872 390 876 l 285 868 l 283 868 m 447 1208 q 380 1079 436 1135 q 227 1024 324 1024 q 75 1079 131 1024 q 8 1208 19 1135 l 57 1232 q 115 1156 72 1192 q 229 1121 158 1121 q 399 1231 356 1121 l 447 1208 z "},"ĭ":{"ha":415,"x_min":-12,"x_max":426,"o":"m 338 0 l 60 0 l 60 11 q 67 42 60 25 q 108 69 76 67 l 163 72 l 163 608 l 96 615 q 57 682 57 619 l 281 707 l 281 75 l 383 67 q 338 0 390 0 m 426 939 q 359 809 415 865 q 206 753 303 753 q 54 808 110 753 q -12 939 -1 864 l 36 963 q 94 886 51 921 q 208 851 138 851 q 378 961 336 851 l 426 939 z "},"Į":{"ha":447,"x_min":57,"x_max":468,"o":"m 415 18 q 314 -95 314 -24 q 381 -167 314 -167 q 458 -136 418 -167 q 467 -157 464 -140 q 468 -183 471 -174 q 351 -231 435 -231 q 260 -201 296 -231 q 225 -122 225 -171 q 290 0 225 -51 l 57 0 l 57 11 q 106 72 57 68 l 163 75 l 163 865 l 61 874 q 107 943 54 943 l 390 943 l 390 931 q 342 872 390 876 l 285 868 l 283 868 l 283 78 l 285 78 l 386 69 q 387 61 386 68 q 388 50 388 54 l 392 51 l 415 18 z "},"į":{"ha":415,"x_min":57,"x_max":414,"o":"m 346 0 q 261 -108 261 -37 q 328 -178 261 -178 q 404 -147 364 -178 q 413 -168 410 -151 q 414 -194 417 -185 q 367 -229 399 -215 q 288 -243 335 -243 q 207 -213 242 -243 q 172 -135 172 -183 q 251 0 172 -56 l 60 0 l 60 11 q 67 42 60 25 q 108 69 76 67 l 163 72 l 163 608 l 96 615 q 57 682 57 619 l 281 707 l 281 75 l 383 67 q 346 0 390 6 m 265 840 q 254 829 265 840 q 208 818 243 818 q 151 840 174 818 q 129 897 129 863 q 151 953 129 931 q 208 975 174 975 q 265 953 243 975 q 286 897 286 931 q 265 840 286 863 z "},"İ":{"ha":447,"x_min":57,"x_max":390,"o":"m 340 0 l 57 0 l 57 11 q 106 72 57 68 l 163 75 l 163 865 l 61 874 q 107 943 54 943 l 390 943 l 390 931 q 342 872 390 876 l 285 868 l 283 868 l 283 78 l 285 78 l 386 69 q 340 0 393 0 m 285 1098 q 275 1087 285 1098 q 229 1076 264 1076 q 172 1098 194 1076 q 150 1154 150 1119 q 172 1211 150 1189 q 229 1233 194 1233 q 285 1211 264 1233 q 307 1154 307 1189 q 285 1098 307 1119 z "},"ı":{"ha":415,"x_min":57,"x_max":383,"o":"m 338 0 l 60 0 l 60 11 q 67 42 60 25 q 108 69 76 67 l 163 72 l 163 608 l 96 615 q 57 682 57 619 l 281 707 l 281 75 l 383 67 q 338 0 390 0 z "},"Ĳ":{"ha":840,"x_min":57,"x_max":796,"o":"m 506 946 l 796 946 l 796 933 q 772 881 796 893 q 694 869 763 875 l 693 133 q 634 -83 693 7 q 468 -172 575 -172 q 381 -145 415 -172 q 346 -79 346 -118 q 428 -4 346 -3 q 496 -85 431 -85 q 551 -47 533 -85 q 568 86 568 -10 l 569 867 l 460 875 q 506 946 453 946 m 340 0 l 57 0 l 57 11 q 106 72 57 68 l 163 75 l 163 865 l 61 874 q 107 943 54 943 l 390 943 l 390 931 q 342 872 390 876 l 285 868 l 283 868 l 283 78 l 285 78 l 386 69 q 340 0 393 0 z "},"ĳ":{"ha":757,"x_min":57,"x_max":654,"o":"m 644 39 q 583 -223 644 -129 q 407 -317 522 -317 q 333 -297 368 -317 q 297 -238 297 -276 q 319 -182 297 -200 q 374 -165 340 -164 q 435 -232 376 -232 q 504 -193 481 -232 q 528 -49 528 -154 l 528 610 l 457 617 q 421 682 421 619 l 644 707 l 644 39 m 338 0 l 60 0 l 60 11 q 67 42 60 25 q 108 69 76 67 l 163 72 l 163 608 l 96 615 q 57 682 57 619 l 281 707 l 281 75 l 383 67 q 338 0 390 0 m 267 823 q 256 812 267 823 q 210 801 244 801 q 153 823 175 801 q 131 879 131 844 q 153 936 131 914 q 210 958 175 958 q 267 936 244 958 q 289 879 289 914 q 267 823 289 844 m 633 824 q 622 813 633 824 q 576 801 611 801 q 519 824 542 801 q 497 880 497 846 q 519 936 497 914 q 576 958 542 958 q 633 936 611 958 q 654 880 654 914 q 633 824 654 846 z "},"Ĵ":{"ha":489,"x_min":-1,"x_max":515,"o":"m 332 1215 l 515 1044 q 472 1001 496 1013 l 285 1122 l 96 1001 q 54 1044 71 1015 l 240 1215 q 332 1215 288 1225 m 157 943 l 444 943 l 444 931 q 396 872 444 876 l 343 868 l 343 185 q 283 -10 343 65 q 121 -86 224 -86 q 33 -59 68 -86 q -1 7 -1 -32 q 81 82 -1 83 q 150 1 83 1 q 204 39 186 1 q 222 172 222 76 l 222 865 l 221 865 l 111 874 q 157 943 104 943 z "},"ĵ":{"ha":353,"x_min":-97,"x_max":408,"o":"m 225 957 l 408 786 q 365 743 389 754 l 178 864 l -11 743 q -53 786 -36 757 l 133 957 q 225 957 181 967 m 250 39 q 189 -223 250 -129 q 13 -317 128 -317 q -62 -297 -26 -317 q -97 -238 -97 -276 q -76 -182 -97 -200 q -21 -165 -54 -164 q 40 -232 -18 -232 q 110 -193 86 -232 q 133 -49 133 -154 l 133 610 l 63 617 q 26 682 26 619 l 250 707 l 250 39 z "},"Ķ":{"ha":850,"x_min":57,"x_max":821,"o":"m 815 943 q 767 872 815 872 l 711 868 l 422 514 l 733 75 l 819 67 q 821 42 821 57 q 808 14 821 28 q 774 0 794 0 l 636 0 l 343 417 l 283 344 l 283 78 l 392 69 q 346 0 399 0 l 57 0 l 57 11 q 106 72 57 68 l 163 75 l 163 865 l 61 874 q 107 943 54 943 l 390 943 l 390 931 q 342 872 390 876 l 285 868 l 283 460 l 610 867 l 521 874 q 565 943 514 943 l 815 943 m 385 -66 q 397 -55 385 -66 q 446 -43 408 -43 q 507 -67 483 -43 q 531 -142 531 -90 q 489 -260 531 -194 q 400 -344 447 -325 q 379 -337 392 -349 q 367 -318 367 -325 q 435 -211 414 -287 q 382 -183 401 -207 q 363 -124 363 -158 q 385 -66 363 -89 z "},"ķ":{"ha":765,"x_min":57,"x_max":765,"o":"m 718 0 l 593 0 l 361 321 l 281 232 l 281 75 l 383 67 q 339 0 390 0 l 61 0 l 61 11 q 67 42 61 25 q 110 69 78 67 l 163 72 l 163 875 l 96 882 q 57 949 57 886 l 281 976 l 281 338 l 519 611 l 438 619 q 483 686 431 686 l 711 686 l 711 675 q 706 644 711 661 q 663 617 694 619 l 625 614 l 435 404 l 672 75 l 765 67 q 718 0 771 0 m 360 -74 q 372 -63 360 -74 q 421 -51 383 -51 q 482 -75 458 -51 q 506 -151 506 -99 q 464 -268 506 -203 q 375 -353 422 -333 q 354 -345 367 -357 q 342 -326 342 -333 q 410 -219 389 -296 q 357 -191 376 -215 q 338 -132 338 -167 q 360 -74 338 -97 z "},"ĸ":{"ha":765,"x_min":57,"x_max":765,"o":"m 483 686 l 711 686 l 711 675 q 706 644 711 661 q 663 617 694 619 l 625 614 l 435 404 l 672 75 l 765 67 q 718 0 771 0 l 593 0 l 361 321 l 281 232 l 281 75 l 383 67 q 339 0 390 0 l 61 0 l 61 11 q 67 42 61 25 q 110 69 78 67 l 163 72 l 163 583 l 96 590 q 57 658 57 594 l 281 686 l 281 338 l 519 611 l 438 619 q 483 686 431 686 z "},"Ĺ":{"ha":746,"x_min":57,"x_max":714,"o":"m 714 208 l 714 0 l 57 0 l 57 11 q 106 72 57 68 l 163 75 l 163 867 l 63 875 q 107 946 56 946 l 403 946 l 403 933 q 381 881 403 893 q 354 874 369 875 l 285 869 l 283 869 l 283 78 l 628 86 l 644 250 q 714 208 714 257 m 503 1164 l 224 1014 q 178 1060 193 1031 l 408 1240 q 463 1213 435 1236 q 503 1164 492 1189 z "},"ĺ":{"ha":450,"x_min":51,"x_max":379,"o":"m 333 0 l 58 0 l 58 11 q 64 42 58 25 q 107 69 75 67 l 163 72 l 163 875 l 96 882 q 57 949 57 886 l 281 976 l 281 75 l 379 67 q 333 0 386 0 m 376 1113 l 97 963 q 51 1008 67 978 l 281 1188 q 335 1161 307 1185 q 376 1113 364 1138 z "},"Ļ":{"ha":746,"x_min":57,"x_max":714,"o":"m 714 208 l 714 0 l 57 0 l 57 11 q 106 72 57 68 l 163 75 l 163 867 l 63 875 q 107 946 56 946 l 403 946 l 403 933 q 381 881 403 893 q 354 874 369 875 l 285 869 l 283 869 l 283 78 l 628 86 l 644 250 q 714 208 714 257 m 320 -66 q 332 -55 320 -66 q 381 -43 343 -43 q 442 -67 418 -43 q 465 -142 465 -90 q 424 -260 465 -194 q 335 -344 382 -325 q 314 -337 326 -349 q 301 -318 301 -325 q 369 -211 349 -287 q 317 -183 336 -207 q 297 -124 297 -158 q 320 -66 297 -89 z "},"ļ":{"ha":410,"x_min":57,"x_max":379,"o":"m 333 0 l 58 0 l 58 11 q 64 42 58 25 q 107 69 75 67 l 163 72 l 163 875 l 96 882 q 57 949 57 886 l 281 976 l 281 75 l 379 67 q 333 0 386 0 m 180 -74 q 191 -63 180 -74 q 240 -51 203 -51 q 301 -75 278 -51 q 325 -151 325 -99 q 283 -268 325 -203 q 194 -353 242 -333 q 174 -345 186 -357 q 161 -326 161 -333 q 229 -219 208 -296 q 176 -191 196 -215 q 157 -132 157 -167 q 180 -74 157 -97 z "},"Ľ":{"ha":833,"x_min":57,"x_max":714,"o":"m 714 208 l 714 0 l 57 0 l 57 11 q 106 72 57 68 l 163 75 l 163 867 l 63 875 q 107 946 56 946 l 403 946 l 403 933 q 381 881 403 893 q 354 874 369 875 l 285 869 l 283 869 l 283 78 l 628 86 l 644 250 q 714 208 714 257 m 536 751 q 503 758 528 746 q 479 779 479 771 q 501 913 499 829 q 488 1040 503 996 q 562 1053 507 1060 q 626 1021 617 1047 q 606 872 629 943 q 536 751 582 800 z "},"ľ":{"ha":499,"x_min":57,"x_max":476,"o":"m 476 1010 q 394 744 483 849 q 365 750 386 739 q 344 768 344 761 q 368 897 365 818 q 356 1021 371 976 q 420 1035 374 1039 q 476 1010 467 1032 m 333 0 l 58 0 l 58 11 q 64 42 58 25 q 107 69 75 67 l 163 72 l 163 875 l 96 882 q 57 949 57 886 l 281 976 l 281 75 l 379 67 q 333 0 386 0 z "},"Ŀ":{"ha":746,"x_min":57,"x_max":714,"o":"m 714 208 l 714 0 l 57 0 l 57 11 q 106 72 57 68 l 163 75 l 163 867 l 63 875 q 107 946 56 946 l 403 946 l 403 933 q 381 881 403 893 q 354 874 369 875 l 285 869 l 283 869 l 283 78 l 628 86 l 644 250 q 714 208 714 257 m 674 472 q 674 453 674 472 q 649 410 674 435 q 587 385 624 385 q 525 410 550 385 q 500 472 500 435 q 525 535 500 510 q 587 560 550 560 q 649 535 624 560 q 674 472 674 510 z "},"ŀ":{"ha":410,"x_min":57,"x_max":515,"o":"m 342 476 q 342 495 342 476 q 367 539 342 514 q 428 564 392 564 q 490 539 465 564 q 515 476 515 514 q 490 414 515 439 q 428 389 465 389 q 367 414 392 389 q 342 476 342 439 m 333 0 l 58 0 l 58 11 q 64 42 58 25 q 107 69 75 67 l 163 72 l 163 875 l 96 882 q 57 949 57 886 l 281 976 l 281 75 l 379 67 q 333 0 386 0 z "},"Ł":{"ha":753,"x_min":35,"x_max":721,"o":"m 721 208 l 721 0 l 64 0 l 64 11 q 113 72 64 68 l 169 75 l 169 318 l 85 251 l 35 313 l 169 418 l 169 867 l 69 875 q 114 946 63 946 l 410 946 l 410 933 q 386 881 410 893 q 361 874 376 875 l 292 869 l 290 869 l 290 514 l 447 638 l 497 576 l 290 414 l 290 78 l 635 86 l 651 250 q 721 208 721 257 z "},"ł":{"ha":457,"x_min":28,"x_max":424,"o":"m 333 0 l 58 0 l 58 11 q 64 42 58 25 q 107 69 75 67 l 163 72 l 163 379 l 81 306 l 28 367 l 163 486 l 163 875 l 96 882 q 57 949 57 886 l 281 976 l 281 592 l 371 672 l 424 614 l 281 485 l 281 75 l 379 67 q 333 0 386 0 z "},"Ń":{"ha":954,"x_min":57,"x_max":925,"o":"m 679 943 l 925 943 l 925 931 q 876 872 925 876 l 818 868 l 818 17 q 736 0 785 0 l 247 746 l 247 78 l 349 69 q 303 0 356 0 l 57 0 l 57 11 q 106 72 57 68 l 163 75 l 163 865 l 61 874 q 107 943 54 943 l 264 943 l 735 225 l 735 865 l 633 874 q 679 943 626 943 m 690 1164 l 411 1014 q 365 1060 381 1031 l 594 1240 q 650 1213 622 1236 q 690 1164 678 1189 z "},"ń":{"ha":867,"x_min":57,"x_max":835,"o":"m 789 0 l 517 0 l 517 11 q 522 42 517 25 q 565 69 533 67 l 619 72 l 619 426 q 475 607 619 607 q 375 587 418 607 q 281 522 332 567 l 281 75 l 379 67 q 333 0 386 0 l 58 0 l 58 11 q 64 42 58 25 q 107 69 75 67 l 163 72 l 163 606 l 96 613 q 57 678 57 617 l 257 703 l 272 604 l 276 604 q 494 707 388 707 q 668 640 600 707 q 736 432 736 572 l 736 75 l 835 67 q 789 0 842 0 m 665 899 l 386 749 q 340 794 356 764 l 569 974 q 624 947 596 971 q 665 899 653 924 z "},"Ņ":{"ha":954,"x_min":57,"x_max":925,"o":"m 679 943 l 925 943 l 925 931 q 876 872 925 876 l 818 868 l 818 17 q 736 0 785 0 l 247 746 l 247 78 l 349 69 q 303 0 356 0 l 57 0 l 57 11 q 106 72 57 68 l 163 75 l 163 865 l 61 874 q 107 943 54 943 l 264 943 l 735 225 l 735 865 l 633 874 q 679 943 626 943 m 451 -66 q 462 -55 451 -66 q 511 -43 474 -43 q 572 -67 549 -43 q 596 -142 596 -90 q 554 -260 596 -194 q 465 -344 513 -325 q 444 -337 457 -349 q 432 -318 432 -325 q 500 -211 479 -287 q 447 -183 467 -207 q 428 -124 428 -158 q 451 -66 428 -89 z "},"ņ":{"ha":867,"x_min":57,"x_max":835,"o":"m 789 0 l 517 0 l 517 11 q 522 42 517 25 q 565 69 533 67 l 619 72 l 619 426 q 475 607 619 607 q 375 587 418 607 q 281 522 332 567 l 281 75 l 379 67 q 333 0 386 0 l 58 0 l 58 11 q 64 42 58 25 q 107 69 75 67 l 163 72 l 163 606 l 96 613 q 57 678 57 617 l 257 703 l 272 604 l 276 604 q 494 707 388 707 q 668 640 600 707 q 736 432 736 572 l 736 75 l 835 67 q 789 0 842 0 m 401 -74 q 412 -63 401 -74 q 461 -51 424 -51 q 522 -75 499 -51 q 546 -151 546 -99 q 504 -268 546 -203 q 415 -353 463 -333 q 394 -345 407 -357 q 382 -326 382 -333 q 450 -219 429 -296 q 397 -191 417 -215 q 378 -132 378 -167 q 401 -74 378 -97 z "},"Ň":{"ha":954,"x_min":57,"x_max":925,"o":"m 679 943 l 925 943 l 925 931 q 876 872 925 876 l 818 868 l 818 17 q 736 0 785 0 l 247 746 l 247 78 l 349 69 q 303 0 356 0 l 57 0 l 57 11 q 106 72 57 68 l 163 75 l 163 865 l 61 874 q 107 943 54 943 l 264 943 l 735 225 l 735 865 l 633 874 q 679 943 626 943 m 707 1193 l 522 1024 q 432 1024 479 1013 l 246 1193 q 288 1236 261 1224 l 476 1115 l 664 1236 q 707 1193 686 1225 z "},"ň":{"ha":867,"x_min":57,"x_max":835,"o":"m 789 0 l 517 0 l 517 11 q 522 42 517 25 q 565 69 533 67 l 619 72 l 619 426 q 475 607 619 607 q 375 587 418 607 q 281 522 332 567 l 281 75 l 379 67 q 333 0 386 0 l 58 0 l 58 11 q 64 42 58 25 q 107 69 75 67 l 163 72 l 163 606 l 96 613 q 57 678 57 617 l 257 703 l 272 604 l 276 604 q 494 707 388 707 q 668 640 600 707 q 736 432 736 572 l 736 75 l 835 67 q 789 0 842 0 m 681 936 l 497 765 q 406 765 453 756 l 219 936 q 261 979 236 965 l 450 858 l 638 979 q 681 936 661 968 z "},"Ŋ":{"ha":957,"x_min":57,"x_max":926,"o":"m 679 943 l 926 943 l 926 931 q 878 872 926 876 l 819 868 l 819 32 q 762 -169 819 -87 q 600 -251 704 -251 q 512 -224 547 -251 q 476 -160 476 -197 q 497 -103 476 -124 q 560 -83 518 -82 q 628 -164 563 -164 q 731 8 728 -164 l 249 743 l 249 78 l 350 69 q 304 0 357 0 l 57 0 l 57 11 q 106 72 57 68 l 163 75 l 163 865 l 61 874 q 107 943 54 943 l 264 943 l 735 222 l 735 865 l 633 874 q 679 943 626 943 z "},"ŋ":{"ha":839,"x_min":57,"x_max":736,"o":"m 276 604 q 494 707 388 707 q 668 640 600 707 q 736 432 736 572 l 736 72 q 675 -190 736 -96 q 500 -283 614 -283 q 425 -263 460 -283 q 390 -205 390 -243 q 411 -149 390 -167 q 465 -132 432 -131 q 528 -199 468 -199 q 596 -160 572 -199 q 619 -15 619 -121 l 619 426 q 475 607 619 607 q 375 587 418 607 q 281 522 332 567 l 281 75 l 379 67 q 333 0 386 0 l 58 0 l 58 11 q 64 42 58 25 q 107 69 75 67 l 163 72 l 163 606 l 96 613 q 57 678 57 617 l 257 703 l 272 604 l 276 604 z "},"Ō":{"ha":910,"x_min":53,"x_max":858,"o":"m 282 1144 l 660 1144 l 660 1061 l 282 1061 l 282 1144 m 456 880 q 386 880 456 880 q 247 772 317 879 q 178 473 178 664 q 245 173 178 282 q 452 65 313 64 q 663 172 592 65 q 733 469 733 279 q 665 770 733 660 q 456 880 596 881 m 474 964 q 735 861 626 964 q 824 715 790 810 q 858 492 857 619 q 749 118 860 257 q 432 -21 638 -21 q 156 103 256 -21 q 53 456 56 228 q 161 824 50 683 q 474 964 272 964 z "},"ō":{"ha":719,"x_min":53,"x_max":667,"o":"m 224 545 q 200 506 224 545 q 176 340 176 467 q 224 137 176 214 q 358 60 271 60 q 494 137 446 61 q 543 338 543 213 q 497 544 543 464 q 362 624 451 625 q 224 545 272 624 m 371 707 q 581 622 496 707 q 667 360 665 538 q 583 81 668 183 q 352 -21 499 -21 q 130 69 206 -21 q 53 329 54 158 q 137 603 51 500 q 371 707 222 707 m 174 886 l 553 886 l 553 803 l 174 803 l 174 886 z "},"Ŏ":{"ha":910,"x_min":53,"x_max":858,"o":"m 456 880 q 386 880 456 880 q 247 772 317 879 q 178 473 178 664 q 245 173 178 282 q 452 65 313 64 q 663 172 592 65 q 733 469 733 279 q 665 770 733 660 q 456 880 596 881 m 474 964 q 735 861 626 964 q 824 715 790 810 q 858 492 857 619 q 749 118 860 257 q 432 -21 638 -21 q 156 103 256 -21 q 53 456 56 228 q 161 824 50 683 q 474 964 272 964 m 474 1121 q 643 1231 600 1121 l 692 1208 q 624 1079 681 1135 q 472 1024 568 1024 q 319 1079 375 1024 q 253 1208 264 1135 l 301 1232 q 360 1156 317 1192 q 474 1121 403 1121 z "},"ŏ":{"ha":719,"x_min":53,"x_max":667,"o":"m 367 851 q 536 961 494 851 l 585 939 q 517 809 574 865 q 365 753 461 753 q 213 808 268 753 q 146 939 157 864 l 194 963 q 253 886 210 921 q 367 851 296 851 m 224 545 q 200 506 224 545 q 176 340 176 467 q 224 137 176 214 q 358 60 271 60 q 494 137 446 61 q 543 338 543 213 q 497 544 543 464 q 362 624 451 625 q 224 545 272 624 m 371 707 q 581 622 496 707 q 667 360 665 538 q 583 81 668 183 q 352 -21 499 -21 q 130 69 206 -21 q 53 329 54 158 q 137 603 51 500 q 371 707 222 707 z "},"Ő":{"ha":910,"x_min":53,"x_max":858,"o":"m 456 880 q 386 880 456 880 q 247 772 317 879 q 178 473 178 664 q 245 173 178 282 q 452 65 313 64 q 663 172 592 65 q 733 469 733 279 q 665 770 733 660 q 456 880 596 881 m 474 964 q 735 861 626 964 q 824 715 790 810 q 858 492 857 619 q 749 118 860 257 q 432 -21 638 -21 q 156 103 256 -21 q 53 456 56 228 q 161 824 50 683 q 474 964 272 964 m 610 1114 l 331 964 q 285 1010 300 979 l 514 1189 q 569 1163 540 1186 q 610 1114 597 1139 m 858 1114 l 579 964 q 533 1010 549 979 l 763 1189 q 817 1163 789 1186 q 858 1114 846 1139 z "},"ő":{"ha":719,"x_min":53,"x_max":790,"o":"m 224 545 q 200 506 224 545 q 176 340 176 467 q 224 137 176 214 q 358 60 271 60 q 494 137 446 61 q 543 338 543 213 q 497 544 543 464 q 362 624 451 625 q 224 545 272 624 m 371 707 q 581 622 496 707 q 667 360 665 538 q 583 81 668 183 q 352 -21 499 -21 q 130 69 206 -21 q 53 329 54 158 q 137 603 51 500 q 371 707 222 707 m 590 861 l 311 711 q 265 757 281 726 l 494 936 q 549 910 521 933 q 590 861 578 886 m 790 850 l 511 700 q 465 746 481 715 l 694 925 q 749 899 721 922 q 790 850 778 875 z "},"Œ":{"ha":1244,"x_min":51,"x_max":1190,"o":"m 250 772 q 215 717 250 772 q 181 471 181 663 q 246 172 181 279 q 464 64 311 64 q 625 113 561 64 l 625 839 q 468 882 563 882 q 250 772 319 881 m 1190 0 l 590 0 q 443 -21 524 -21 q 160 106 265 -21 q 52 456 56 232 q 162 823 49 679 q 486 967 275 967 q 628 946 558 967 l 1163 946 l 1163 744 q 1093 703 1163 696 l 1079 863 l 746 868 l 746 506 l 1008 526 q 1008 415 1018 468 l 746 431 l 746 78 l 1108 88 l 1121 242 q 1190 200 1190 249 l 1190 0 z "},"œ":{"ha":1143,"x_min":51,"x_max":1100,"o":"m 945 574 q 928 599 945 574 q 846 625 911 625 q 736 574 781 625 q 675 431 692 524 l 981 431 q 945 574 979 522 m 359 627 q 316 627 359 627 q 224 547 272 626 q 176 341 176 468 q 223 135 176 214 q 357 58 269 57 q 492 135 444 58 q 539 340 539 213 q 492 547 539 467 q 359 627 446 628 m 863 707 q 1042 626 983 707 q 1100 429 1101 546 l 1100 358 l 668 358 q 665 324 665 333 q 871 72 665 72 q 1065 146 974 72 q 1085 104 1085 133 q 1009 21 1085 63 q 833 -21 933 -21 q 594 108 674 -21 q 344 -21 507 -21 q 130 68 206 -21 q 52 328 54 157 q 135 603 50 499 q 371 707 219 707 q 508 674 443 707 q 611 568 572 640 q 863 707 703 707 z "},"Ŕ":{"ha":822,"x_min":57,"x_max":813,"o":"m 103 946 l 411 946 q 726 710 726 946 q 658 529 726 599 q 471 439 589 460 q 647 170 554 267 q 813 74 740 74 q 785 6 810 32 q 721 -21 760 -21 q 531 124 635 -21 q 369 431 428 268 l 368 431 q 285 433 314 431 l 285 78 l 393 69 q 349 0 400 0 l 57 0 l 57 11 q 106 72 57 68 l 163 75 l 163 868 l 61 876 q 103 946 58 946 m 285 874 l 285 503 q 351 500 332 500 q 537 551 474 500 q 600 701 600 601 q 539 841 600 801 q 371 876 478 881 l 286 874 l 285 874 m 601 1164 l 322 1014 q 276 1060 292 1031 l 506 1240 q 561 1213 533 1236 q 601 1164 589 1189 z "},"ŕ":{"ha":581,"x_min":57,"x_max":575,"o":"m 276 592 q 378 672 317 636 q 481 707 440 707 q 549 685 522 707 q 575 604 575 663 q 546 514 575 546 q 482 501 525 497 q 429 603 482 603 q 279 510 363 603 l 279 75 l 396 67 q 350 0 403 0 l 60 0 l 60 11 q 67 42 60 25 q 108 69 76 67 l 161 72 l 161 603 l 90 610 q 57 674 57 614 l 263 700 l 272 592 l 276 592 m 535 899 l 256 749 q 210 794 225 764 l 439 974 q 494 947 465 971 q 535 899 522 924 z "},"Ŗ":{"ha":822,"x_min":57,"x_max":813,"o":"m 103 946 l 411 946 q 726 710 726 946 q 658 529 726 599 q 471 439 589 460 q 647 170 554 267 q 813 74 740 74 q 785 6 810 32 q 721 -21 760 -21 q 531 124 635 -21 q 369 431 428 268 l 368 431 q 285 433 314 431 l 285 78 l 393 69 q 349 0 400 0 l 57 0 l 57 11 q 106 72 57 68 l 163 75 l 163 868 l 61 876 q 103 946 58 946 m 285 874 l 285 503 q 351 500 332 500 q 537 551 474 500 q 600 701 600 601 q 539 841 600 801 q 371 876 478 881 l 286 874 l 285 874 m 374 -66 q 386 -55 374 -66 q 435 -43 397 -43 q 496 -67 472 -43 q 519 -142 519 -90 q 478 -260 519 -194 q 389 -344 436 -325 q 368 -337 381 -349 q 356 -318 356 -325 q 424 -211 403 -287 q 371 -183 390 -207 q 351 -124 351 -158 q 374 -66 351 -89 z "},"ŗ":{"ha":581,"x_min":57,"x_max":575,"o":"m 276 592 q 378 672 317 636 q 481 707 440 707 q 549 685 522 707 q 575 604 575 663 q 546 514 575 546 q 482 501 525 497 q 429 603 482 603 q 279 510 363 603 l 279 75 l 396 67 q 350 0 403 0 l 60 0 l 60 11 q 67 42 60 25 q 108 69 76 67 l 161 72 l 161 603 l 90 610 q 57 674 57 614 l 263 700 l 272 592 l 276 592 m 197 -74 q 208 -63 197 -74 q 257 -51 219 -51 q 318 -75 294 -51 q 342 -151 342 -99 q 300 -268 342 -203 q 211 -353 258 -333 q 190 -345 203 -357 q 178 -326 178 -333 q 246 -219 225 -296 q 193 -191 213 -215 q 174 -132 174 -167 q 197 -74 174 -97 z "},"Ř":{"ha":822,"x_min":57,"x_max":813,"o":"m 103 946 l 411 946 q 726 710 726 946 q 658 529 726 599 q 471 439 589 460 q 647 170 554 267 q 813 74 740 74 q 785 6 810 32 q 721 -21 760 -21 q 531 124 635 -21 q 369 431 428 268 l 368 431 q 285 433 314 431 l 285 78 l 393 69 q 349 0 400 0 l 57 0 l 57 11 q 106 72 57 68 l 163 75 l 163 868 l 61 876 q 103 946 58 946 m 285 874 l 285 503 q 351 500 332 500 q 537 551 474 500 q 600 701 600 601 q 539 841 600 801 q 371 876 478 881 l 286 874 l 285 874 m 617 1193 l 433 1024 q 342 1024 390 1013 l 156 1193 q 197 1236 174 1224 l 386 1115 l 574 1236 q 617 1193 599 1224 z "},"ř":{"ha":581,"x_min":57,"x_max":575,"o":"m 276 592 q 378 672 317 636 q 481 707 440 707 q 549 685 522 707 q 575 604 575 663 q 546 514 575 546 q 482 501 525 497 q 429 603 482 603 q 279 510 363 603 l 279 75 l 396 67 q 350 0 403 0 l 60 0 l 60 11 q 67 42 60 25 q 108 69 76 67 l 161 72 l 161 603 l 90 610 q 57 674 57 614 l 263 700 l 272 592 l 276 592 m 551 936 l 367 765 q 275 765 324 756 l 90 936 q 131 979 104 964 l 321 858 l 508 979 q 551 936 526 969 z "},"Ś":{"ha":704,"x_min":35,"x_max":667,"o":"m 581 1164 l 301 1014 q 256 1060 271 1031 l 486 1240 q 541 1213 513 1236 q 581 1164 569 1189 m 579 903 q 622 812 622 865 q 594 735 622 758 q 524 714 565 711 q 358 879 524 879 q 233 844 282 879 q 183 753 183 808 q 216 662 183 699 q 288 604 249 625 q 367 567 328 583 q 606 438 544 493 q 667 286 667 383 q 572 68 667 157 q 319 -21 476 -21 q 121 24 207 -21 q 35 147 35 69 q 60 214 35 188 q 135 240 86 240 q 342 64 157 64 q 498 113 439 64 q 557 243 557 163 q 511 350 557 311 q 481 374 490 367 q 440 398 472 382 q 398 418 408 414 q 333 447 388 422 q 242 490 278 471 q 160 542 206 508 q 74 717 74 604 q 160 896 74 829 q 374 964 247 963 q 579 903 506 967 z "},"ś":{"ha":564,"x_min":33,"x_max":531,"o":"m 531 201 q 531 157 531 201 q 456 45 531 113 q 257 -21 382 -22 q 100 16 168 -19 q 33 114 32 51 q 58 172 33 151 q 117 192 82 193 q 172 97 129 132 q 279 60 215 61 q 385 88 343 60 q 428 164 426 115 q 396 238 429 213 q 296 288 363 263 q 199 328 229 314 q 131 367 168 342 q 56 508 56 417 q 132 653 57 600 q 295 706 207 707 q 441 676 383 706 q 497 589 499 647 q 470 528 497 547 q 408 513 443 508 q 375 593 410 561 q 284 626 340 625 q 192 602 228 628 q 155 536 156 576 q 194 469 154 496 q 308 414 235 443 q 410 372 382 385 q 471 333 438 358 q 531 201 531 290 m 503 899 l 224 749 q 178 794 193 764 l 407 974 q 462 947 433 971 q 503 899 490 924 z "},"Ŝ":{"ha":704,"x_min":35,"x_max":667,"o":"m 667 286 q 572 68 667 157 q 319 -21 476 -21 q 121 24 207 -21 q 35 147 35 69 q 60 214 35 188 q 135 240 86 240 q 342 64 157 64 q 498 113 439 64 q 557 243 557 163 q 511 350 557 311 q 481 374 490 367 q 440 398 472 382 q 398 418 408 414 q 333 447 388 422 q 242 490 278 471 q 160 542 206 508 q 74 717 74 604 q 160 896 74 829 q 374 964 247 963 q 579 903 506 967 q 622 812 622 865 q 594 735 622 758 q 524 714 565 711 q 358 879 524 879 q 233 844 282 879 q 183 753 183 808 q 216 662 183 699 q 288 604 249 625 q 367 567 328 583 q 606 438 544 493 q 667 286 667 383 m 368 1122 l 179 1001 q 138 1044 154 1015 l 324 1215 q 415 1215 371 1225 l 599 1044 q 556 1001 579 1013 l 368 1122 z "},"ŝ":{"ha":564,"x_min":33,"x_max":531,"o":"m 531 201 q 531 157 531 201 q 456 45 531 113 q 257 -21 382 -22 q 100 16 168 -19 q 33 114 32 51 q 58 172 33 151 q 117 192 82 193 q 172 97 129 132 q 279 60 215 61 q 385 88 343 60 q 428 164 426 115 q 396 238 429 213 q 296 288 363 263 q 199 328 229 314 q 131 367 168 342 q 56 508 56 417 q 132 653 57 600 q 295 706 207 707 q 441 676 383 706 q 497 589 499 647 q 470 528 497 547 q 408 513 443 508 q 375 593 410 561 q 284 626 340 625 q 192 602 228 628 q 155 536 156 576 q 194 469 154 496 q 308 414 235 443 q 410 372 382 385 q 471 333 438 358 q 531 201 531 290 m 289 864 l 100 743 q 58 786 75 757 l 244 957 q 336 957 292 967 l 519 786 q 476 743 500 754 l 289 864 z "},"Ş":{"ha":704,"x_min":35,"x_max":667,"o":"m 35 147 q 60 214 35 188 q 135 240 86 240 q 342 64 157 64 q 498 113 439 64 q 557 243 557 163 q 511 350 557 311 q 481 374 490 367 q 440 398 472 382 q 398 418 408 414 q 333 447 388 422 q 242 490 278 471 q 160 542 206 508 q 74 717 74 604 q 160 896 74 829 q 374 964 247 963 q 579 903 506 967 q 622 812 622 865 q 594 735 622 758 q 524 714 565 711 q 358 879 524 879 q 233 844 282 879 q 183 753 183 808 q 216 662 183 699 q 288 604 249 625 q 367 567 328 583 q 606 438 544 493 q 667 274 667 383 q 584 80 667 165 q 363 -19 501 -6 l 353 -60 q 439 -88 411 -60 q 467 -163 467 -117 q 430 -241 467 -210 q 331 -272 393 -272 q 232 -233 268 -272 q 249 -185 228 -199 q 318 -210 281 -210 q 376 -161 376 -210 q 356 -125 376 -137 q 278 -112 336 -112 l 301 -21 q 114 28 193 -17 q 35 147 35 72 z "},"ş":{"ha":564,"x_min":33,"x_max":531,"o":"m 531 208 q 531 166 531 208 q 473 62 531 125 q 315 -17 415 -1 l 304 -60 q 390 -88 361 -60 q 418 -163 418 -117 q 381 -241 418 -210 q 282 -272 344 -272 q 183 -233 219 -272 q 200 -185 179 -199 q 269 -210 232 -210 q 329 -161 329 -210 q 308 -125 329 -137 q 229 -112 288 -112 l 253 -21 q 99 17 165 -18 q 33 114 32 51 q 58 172 33 151 q 117 192 82 193 q 172 97 129 132 q 279 60 215 61 q 385 88 343 60 q 428 164 426 115 q 396 238 429 213 q 296 288 363 263 q 199 328 229 314 q 131 367 168 342 q 56 508 56 417 q 132 653 57 600 q 295 706 207 707 q 441 676 383 706 q 497 589 499 647 q 470 528 497 547 q 408 513 443 508 q 375 593 410 561 q 284 626 340 625 q 192 602 228 628 q 155 536 156 576 q 194 469 154 496 q 308 414 235 443 q 410 372 382 385 q 471 333 438 358 q 531 208 531 290 z "},"Š":{"ha":704,"x_min":35,"x_max":667,"o":"m 667 286 q 572 68 667 157 q 319 -21 476 -21 q 121 24 207 -21 q 35 147 35 69 q 60 214 35 188 q 135 240 86 240 q 342 64 157 64 q 498 113 439 64 q 557 243 557 163 q 511 350 557 311 q 481 374 490 367 q 440 398 472 382 q 398 418 408 414 q 333 447 388 422 q 242 490 278 471 q 160 542 206 508 q 74 717 74 604 q 160 896 74 829 q 374 964 247 963 q 579 903 506 967 q 622 812 622 865 q 594 735 622 758 q 524 714 565 711 q 358 879 524 879 q 233 844 282 879 q 183 753 183 808 q 216 662 183 699 q 288 604 249 625 q 367 567 328 583 q 606 438 544 493 q 667 286 667 383 m 597 1193 l 413 1024 q 322 1024 369 1013 l 136 1193 q 178 1236 151 1224 l 367 1115 l 554 1236 q 597 1193 575 1225 z "},"š":{"ha":564,"x_min":33,"x_max":531,"o":"m 531 201 q 531 157 531 201 q 456 45 531 113 q 257 -21 382 -22 q 100 16 168 -19 q 33 114 32 51 q 58 172 33 151 q 117 192 82 193 q 172 97 129 132 q 279 60 215 61 q 385 88 343 60 q 428 164 426 115 q 396 238 429 213 q 296 288 363 263 q 199 328 229 314 q 131 367 168 342 q 56 508 56 417 q 132 653 57 600 q 295 706 207 707 q 441 676 383 706 q 497 589 499 647 q 470 528 497 547 q 408 513 443 508 q 375 593 410 561 q 284 626 340 625 q 192 602 228 628 q 155 536 156 576 q 194 469 154 496 q 308 414 235 443 q 410 372 382 385 q 471 333 438 358 q 531 201 531 290 m 518 936 l 333 765 q 243 765 290 756 l 57 936 q 99 979 71 964 l 288 858 l 475 979 q 518 936 493 969 z "},"Ţ":{"ha":850,"x_min":28,"x_max":822,"o":"m 28 943 l 822 943 l 822 768 q 753 724 822 719 l 743 863 l 488 863 l 488 78 l 594 69 q 550 0 601 0 l 254 0 l 254 11 q 303 72 254 68 l 365 75 l 365 863 l 108 863 l 97 724 q 28 768 28 719 l 28 943 m 383 -66 q 394 -55 383 -66 q 443 -43 406 -43 q 504 -67 481 -43 q 528 -142 528 -90 q 486 -260 528 -194 q 397 -344 444 -325 q 376 -337 389 -349 q 364 -318 364 -325 q 432 -211 411 -287 q 379 -183 399 -207 q 360 -124 360 -158 q 383 -66 360 -89 z "},"ţ":{"ha":535,"x_min":22,"x_max":517,"o":"m 244 613 l 244 210 q 263 106 244 139 q 328 74 281 74 q 409 85 375 74 q 490 135 443 97 q 508 119 500 132 q 517 92 517 107 q 446 13 517 49 q 307 -22 375 -22 q 166 37 204 -22 q 128 204 128 96 l 128 613 l 22 613 q 69 686 18 686 l 128 686 l 128 854 l 244 876 l 244 686 l 501 686 q 467 613 506 624 l 244 613 m 258 -74 q 269 -63 258 -74 q 318 -51 281 -51 q 379 -75 356 -51 q 403 -151 403 -99 q 361 -268 403 -203 q 272 -353 319 -333 q 251 -345 264 -357 q 239 -326 239 -333 q 307 -219 286 -296 q 254 -191 274 -215 q 235 -132 235 -167 q 258 -74 235 -97 z "},"Ť":{"ha":850,"x_min":28,"x_max":822,"o":"m 28 943 l 822 943 l 822 768 q 753 724 822 719 l 743 863 l 488 863 l 488 78 l 594 69 q 550 0 601 0 l 254 0 l 254 11 q 303 72 254 68 l 365 75 l 365 863 l 108 863 l 97 724 q 28 768 28 719 l 28 943 m 661 1194 l 478 1024 q 386 1024 433 1014 l 200 1194 q 242 1238 217 1224 l 431 1117 l 618 1238 q 661 1194 642 1226 z "},"ť":{"ha":535,"x_min":22,"x_max":517,"o":"m 244 613 l 244 210 q 263 106 244 139 q 328 74 281 74 q 409 85 375 74 q 490 135 443 97 q 508 119 500 132 q 517 92 517 107 q 446 13 517 49 q 307 -22 375 -22 q 166 37 204 -22 q 128 204 128 96 l 128 613 l 22 613 q 69 686 18 686 l 128 686 l 128 854 l 244 876 l 244 686 l 501 686 q 467 613 506 624 l 244 613 m 354 733 q 326 740 347 729 q 306 758 306 751 q 328 887 326 808 q 315 1011 331 965 q 381 1026 335 1029 q 438 1000 426 1022 q 354 733 444 839 z "},"Ŧ":{"ha":850,"x_min":28,"x_max":822,"o":"m 28 943 l 822 943 l 822 768 q 753 724 822 719 l 743 863 l 488 863 l 488 78 l 594 69 q 550 0 601 0 l 254 0 l 254 11 q 303 72 254 68 l 365 75 l 365 863 l 108 863 l 97 724 q 28 768 28 719 l 28 943 m 621 1144 l 621 1061 l 242 1061 l 242 1144 l 621 1144 z "},"ŧ":{"ha":561,"x_min":22,"x_max":517,"o":"m 244 376 l 244 210 q 263 106 244 139 q 328 74 281 74 q 409 85 375 74 q 490 135 443 97 q 508 119 500 132 q 517 92 517 107 q 446 13 517 49 q 307 -22 375 -22 q 166 37 204 -22 q 128 204 128 96 l 128 376 l 35 376 l 35 447 l 128 447 l 128 613 l 22 613 q 69 686 18 686 l 128 686 l 128 854 l 244 876 l 244 686 l 501 686 q 467 613 506 624 l 244 613 l 244 447 l 489 447 l 489 376 l 244 376 z "},"Ũ":{"ha":907,"x_min":26,"x_max":881,"o":"m 636 943 l 881 943 l 881 931 q 832 872 881 876 l 778 868 l 778 367 q 440 -21 778 -21 q 204 73 281 -21 q 128 356 128 167 l 128 865 l 26 874 q 72 943 19 943 l 354 943 l 354 931 q 306 872 354 876 l 249 868 l 249 353 q 300 132 249 201 q 457 63 351 63 q 692 344 692 63 l 692 865 l 592 874 q 636 943 585 943 m 226 1064 q 280 1174 240 1133 q 367 1214 319 1214 q 470 1176 414 1214 q 562 1138 526 1138 q 620 1157 597 1138 q 650 1208 643 1176 l 693 1196 q 543 1042 669 1042 q 435 1077 494 1042 q 348 1113 376 1113 q 299 1094 319 1113 q 271 1047 279 1075 l 226 1064 z "},"ũ":{"ha":806,"x_min":19,"x_max":775,"o":"m 207 793 l 164 810 q 220 917 179 878 q 308 953 261 956 q 410 911 356 951 q 500 869 465 871 q 559 888 535 868 q 592 938 583 907 l 635 924 q 479 776 604 771 q 373 815 431 778 q 285 854 315 853 q 207 793 232 856 m 456 633 q 501 686 456 686 l 681 686 l 681 83 l 738 78 q 775 10 775 76 l 599 -6 l 576 69 q 374 -21 481 -21 q 196 48 268 -21 q 124 264 124 117 l 124 611 l 19 615 l 19 633 q 65 686 19 686 l 242 686 l 242 268 q 397 75 242 75 q 564 143 485 75 l 564 611 l 456 615 l 456 633 z "},"Ū":{"ha":907,"x_min":26,"x_max":881,"o":"m 268 1144 l 647 1144 l 647 1061 l 268 1061 l 268 1144 m 636 943 l 881 943 l 881 931 q 832 872 881 876 l 778 868 l 778 367 q 440 -21 778 -21 q 204 73 281 -21 q 128 356 128 167 l 128 865 l 26 874 q 72 943 19 943 l 354 943 l 354 931 q 306 872 354 876 l 249 868 l 249 353 q 300 132 249 201 q 457 63 351 63 q 692 344 692 63 l 692 865 l 592 874 q 636 943 585 943 z "},"ū":{"ha":806,"x_min":19,"x_max":775,"o":"m 208 886 l 588 886 l 588 803 l 208 803 l 208 886 m 456 633 q 501 686 456 686 l 681 686 l 681 83 l 738 78 q 775 10 775 76 l 599 -6 l 576 69 q 374 -21 481 -21 q 196 48 268 -21 q 124 264 124 117 l 124 611 l 19 615 l 19 633 q 65 686 19 686 l 242 686 l 242 268 q 397 75 242 75 q 564 143 485 75 l 564 611 l 456 615 l 456 633 z "},"Ŭ":{"ha":907,"x_min":26,"x_max":881,"o":"m 636 943 l 881 943 l 881 931 q 832 872 881 876 l 778 868 l 778 367 q 440 -21 778 -21 q 204 73 281 -21 q 128 356 128 167 l 128 865 l 26 874 q 72 943 19 943 l 354 943 l 354 931 q 306 872 354 876 l 249 868 l 249 353 q 300 132 249 201 q 457 63 351 63 q 692 344 692 63 l 692 865 l 592 874 q 636 943 585 943 m 460 1121 q 629 1231 586 1121 l 678 1208 q 610 1079 667 1135 q 458 1024 554 1024 q 306 1079 361 1024 q 239 1208 250 1135 l 288 1232 q 346 1156 303 1192 q 460 1121 389 1121 z "},"ŭ":{"ha":806,"x_min":19,"x_max":775,"o":"m 400 851 q 569 961 528 851 l 618 939 q 551 809 607 865 q 398 753 494 753 q 246 808 301 753 q 179 939 190 864 l 228 963 q 286 886 243 921 q 400 851 329 851 m 456 633 q 501 686 456 686 l 681 686 l 681 83 l 738 78 q 775 10 775 76 l 599 -6 l 576 69 q 374 -21 481 -21 q 196 48 268 -21 q 124 264 124 117 l 124 611 l 19 615 l 19 633 q 65 686 19 686 l 242 686 l 242 268 q 397 75 242 75 q 564 143 485 75 l 564 611 l 456 615 l 456 633 z "},"Ů":{"ha":907,"x_min":26,"x_max":881,"o":"m 506 1181 q 498 1189 506 1181 q 461 1197 489 1197 q 417 1181 433 1197 q 400 1136 400 1164 q 417 1091 400 1108 q 461 1074 433 1074 q 506 1091 489 1074 q 524 1136 524 1108 q 506 1181 524 1164 m 369 1224 q 388 1241 369 1224 q 464 1258 406 1258 q 556 1226 522 1258 q 590 1138 590 1193 q 553 1049 589 1083 q 460 1014 517 1014 q 368 1047 403 1014 q 333 1135 333 1081 q 369 1224 333 1189 m 636 943 l 881 943 l 881 931 q 832 872 881 876 l 778 868 l 778 367 q 440 -21 778 -21 q 204 73 281 -21 q 128 356 128 167 l 128 865 l 26 874 q 72 943 19 943 l 354 943 l 354 931 q 306 872 354 876 l 249 868 l 249 353 q 300 132 249 201 q 457 63 351 63 q 692 344 692 63 l 692 865 l 592 874 q 636 943 585 943 z "},"ů":{"ha":806,"x_min":19,"x_max":775,"o":"m 447 924 q 438 932 447 924 q 401 940 429 940 q 357 924 374 940 q 340 878 340 907 q 357 833 340 850 q 401 817 374 817 q 447 833 429 817 q 464 878 464 850 q 447 924 464 907 m 274 877 q 274 905 274 877 q 310 967 274 932 q 403 1001 346 1001 q 496 968 461 1001 q 529 880 531 935 q 492 790 528 825 q 399 756 456 756 q 308 789 343 756 q 274 877 274 822 m 456 633 q 501 686 456 686 l 681 686 l 681 83 l 738 78 q 775 10 775 76 l 599 -6 l 576 69 q 374 -21 481 -21 q 196 48 268 -21 q 124 264 124 117 l 124 611 l 19 615 l 19 633 q 65 686 19 686 l 242 686 l 242 268 q 397 75 242 75 q 564 143 485 75 l 564 611 l 456 615 l 456 633 z "},"Ű":{"ha":907,"x_min":26,"x_max":881,"o":"m 636 943 l 881 943 l 881 931 q 832 872 881 876 l 778 868 l 778 367 q 440 -21 778 -21 q 204 73 281 -21 q 128 356 128 167 l 128 865 l 26 874 q 72 943 19 943 l 354 943 l 354 931 q 306 872 354 876 l 249 868 l 249 353 q 300 132 249 201 q 457 63 351 63 q 692 344 692 63 l 692 865 l 592 874 q 636 943 585 943 m 596 1114 l 317 964 q 271 1010 286 979 l 500 1189 q 555 1163 526 1186 q 596 1114 583 1139 m 844 1114 l 565 964 q 519 1010 535 979 l 749 1189 q 803 1163 775 1186 q 844 1114 832 1139 z "},"ű":{"ha":806,"x_min":19,"x_max":824,"o":"m 456 633 q 501 686 456 686 l 681 686 l 681 83 l 738 78 q 775 10 775 76 l 599 -6 l 576 69 q 374 -21 481 -21 q 196 48 268 -21 q 124 264 124 117 l 124 611 l 19 615 l 19 633 q 65 686 19 686 l 242 686 l 242 268 q 397 75 242 75 q 564 143 485 75 l 564 611 l 456 615 l 456 633 m 625 861 l 346 711 q 300 757 315 726 l 529 936 q 584 910 556 933 q 625 861 613 886 m 824 850 l 544 700 q 499 746 514 715 l 728 925 q 783 899 754 922 q 824 850 811 875 z "},"Ų":{"ha":907,"x_min":26,"x_max":881,"o":"m 636 943 l 881 943 l 881 931 q 832 872 881 876 l 778 868 l 778 367 q 558 -7 778 56 q 460 -124 460 -47 q 478 -173 460 -156 q 531 -190 496 -190 q 603 -160 565 -190 q 612 -181 608 -164 q 613 -207 615 -197 q 497 -254 579 -254 q 406 -224 442 -254 q 371 -146 371 -194 q 439 -21 371 -72 q 128 356 128 -21 l 128 865 l 26 874 q 72 943 19 943 l 354 943 l 354 931 q 306 872 354 876 l 249 868 l 249 353 q 300 132 249 201 q 457 63 351 63 q 692 344 692 63 l 692 865 l 592 874 q 636 943 585 943 z "},"ų":{"ha":806,"x_min":19,"x_max":817,"o":"m 456 633 q 501 686 456 686 l 681 686 l 681 83 l 738 78 q 775 10 775 76 l 753 8 q 664 -102 664 -32 q 729 -172 664 -172 q 807 -142 767 -172 q 816 -162 813 -146 q 817 -189 819 -179 q 701 -236 783 -236 q 610 -206 644 -236 q 575 -128 575 -176 q 644 -1 575 -54 l 599 -6 l 576 69 q 374 -21 481 -21 q 196 48 268 -21 q 124 264 124 117 l 124 611 l 19 615 l 19 633 q 65 686 19 686 l 242 686 l 242 268 q 397 75 242 75 q 564 143 485 75 l 564 611 l 456 615 l 456 633 z "},"Ŵ":{"ha":1324,"x_min":6,"x_max":1318,"o":"m 1094 943 l 1318 943 q 1318 931 1318 943 q 1297 881 1318 892 q 1247 869 1288 874 l 968 0 l 867 0 l 663 642 l 440 0 l 340 0 l 82 865 l 6 874 q 50 943 -1 943 l 319 943 l 319 931 q 271 872 319 876 l 218 868 l 408 161 l 639 856 l 731 856 l 935 158 l 1150 865 l 1050 874 q 1094 943 1043 943 m 690 1122 l 501 1001 q 460 1044 476 1015 l 646 1215 q 738 1215 693 1225 l 921 1044 q 878 1001 901 1013 l 690 1122 z "},"ŵ":{"ha":989,"x_min":4,"x_max":985,"o":"m 800 686 l 985 686 q 942 617 988 621 l 929 615 l 697 0 l 629 0 l 488 411 l 332 0 l 264 0 l 63 611 l 61 611 l 4 619 q 13 665 3 644 q 46 686 22 686 l 285 686 q 285 676 285 686 q 236 617 285 622 l 190 614 l 321 172 l 481 624 l 546 625 l 685 185 l 826 613 l 754 619 q 800 686 747 686 m 518 864 l 329 743 q 288 786 304 757 l 474 957 q 565 957 521 967 l 749 786 q 706 743 729 754 l 518 864 z "},"Ŷ":{"ha":839,"x_min":6,"x_max":835,"o":"m 603 946 l 835 946 l 835 933 q 786 874 835 878 l 756 869 l 485 389 l 485 78 l 586 69 q 540 0 593 0 l 256 0 l 256 11 q 304 72 256 68 l 361 75 l 361 386 l 86 867 l 6 875 q 50 946 -1 946 l 333 946 l 333 936 q 325 894 333 904 q 285 874 307 874 l 228 869 l 226 869 l 447 475 l 660 867 l 558 875 q 603 946 551 946 m 436 1122 l 247 1001 q 206 1044 222 1015 l 392 1215 q 483 1215 439 1225 l 667 1044 q 624 1001 647 1013 l 436 1122 z "},"ŷ":{"ha":704,"x_min":6,"x_max":701,"o":"m 513 686 l 701 686 l 701 675 q 640 615 701 622 l 397 17 l 396 17 q 267 -239 318 -178 q 211 -287 244 -265 q 135 -310 178 -310 q 65 -285 93 -310 q 38 -228 38 -261 q 56 -174 38 -194 q 97 -154 74 -154 q 126 -157 119 -154 q 160 -217 113 -217 q 242 -134 196 -217 q 322 40 288 -51 l 78 611 l 76 611 l 6 619 q 50 686 -1 686 l 300 686 l 300 675 q 251 617 300 621 l 210 614 l 379 185 l 543 611 l 468 619 q 513 686 461 686 m 371 864 l 182 743 q 140 786 157 757 l 326 957 q 418 957 374 967 l 601 786 q 558 743 582 754 l 371 864 z "},"Ÿ":{"ha":839,"x_min":6,"x_max":835,"o":"m 603 946 l 835 946 l 835 933 q 786 874 835 878 l 756 869 l 485 389 l 485 78 l 586 69 q 540 0 593 0 l 256 0 l 256 11 q 304 72 256 68 l 361 75 l 361 386 l 86 867 l 6 875 q 50 946 -1 946 l 333 946 l 333 936 q 325 894 333 904 q 285 874 307 874 l 228 869 l 226 869 l 447 475 l 660 867 l 558 875 q 603 946 551 946 m 393 1123 q 393 1107 393 1123 q 370 1067 393 1090 q 314 1044 347 1044 q 258 1067 281 1044 q 235 1123 235 1090 q 258 1179 235 1156 q 314 1203 281 1203 q 370 1179 347 1203 q 393 1123 393 1156 m 633 1123 q 633 1107 633 1123 q 610 1067 633 1090 q 554 1044 588 1044 q 497 1067 521 1044 q 474 1123 474 1090 q 497 1179 474 1156 q 553 1203 521 1203 q 610 1179 586 1203 q 633 1123 633 1156 z "},"Ź":{"ha":764,"x_min":26,"x_max":722,"o":"m 721 0 l 46 0 q 26 49 32 26 l 558 869 l 185 857 l 169 736 q 142 685 165 697 q 92 678 119 672 l 92 951 l 699 951 q 722 906 718 932 l 190 78 l 626 96 l 644 224 q 721 281 653 292 l 721 0 m 625 1164 l 346 1014 q 300 1060 315 1031 l 529 1240 q 585 1213 557 1236 q 625 1164 613 1189 z "},"ź":{"ha":575,"x_min":21,"x_max":554,"o":"m 69 686 l 528 686 q 551 633 546 668 l 169 71 l 469 78 l 479 156 q 508 197 482 186 q 554 200 533 208 l 554 0 l 39 0 q 21 51 24 24 l 408 619 l 153 613 l 146 535 q 116 493 142 504 q 69 490 90 482 l 69 686 m 522 899 l 243 749 q 197 794 213 764 l 426 974 q 481 947 453 971 q 522 899 510 924 z "},"Ż":{"ha":764,"x_min":26,"x_max":722,"o":"m 721 0 l 46 0 q 26 49 32 26 l 558 869 l 185 857 l 169 736 q 142 685 165 697 q 92 678 119 672 l 92 951 l 699 951 q 722 906 718 932 l 190 78 l 626 96 l 644 224 q 721 281 653 292 l 721 0 m 470 1098 q 459 1087 470 1098 q 414 1076 449 1076 q 357 1098 379 1076 q 335 1154 335 1119 q 357 1211 335 1189 q 414 1233 379 1233 q 470 1211 449 1233 q 492 1154 492 1189 q 470 1098 492 1119 z "},"ż":{"ha":575,"x_min":21,"x_max":554,"o":"m 367 840 q 357 829 367 840 q 311 818 346 818 q 254 840 276 818 q 232 897 232 863 q 254 953 232 931 q 311 975 276 975 q 367 953 346 975 q 389 897 389 931 q 367 840 389 863 m 69 686 l 528 686 q 551 633 546 668 l 169 71 l 469 78 l 479 156 q 508 197 482 186 q 554 200 533 208 l 554 0 l 39 0 q 21 51 24 24 l 408 619 l 153 613 l 146 535 q 116 493 142 504 q 69 490 90 482 l 69 686 z "},"Ž":{"ha":764,"x_min":26,"x_max":722,"o":"m 721 0 l 46 0 q 26 49 32 26 l 558 869 l 185 857 l 169 736 q 142 685 165 697 q 92 678 119 672 l 92 951 l 699 951 q 722 906 718 932 l 190 78 l 626 96 l 644 224 q 721 281 653 292 l 721 0 m 640 1194 l 457 1024 q 365 1024 413 1014 l 179 1194 q 221 1238 196 1224 l 410 1117 l 597 1238 q 640 1194 621 1226 z "},"ž":{"ha":575,"x_min":21,"x_max":554,"o":"m 554 0 l 39 0 q 21 51 24 24 l 408 619 l 153 613 l 146 535 q 116 493 142 504 q 69 490 90 482 l 69 686 l 528 686 q 551 633 546 668 l 169 71 l 469 78 l 479 156 q 508 197 482 186 q 554 200 533 208 l 554 0 m 538 936 l 354 765 q 263 765 310 756 l 76 936 q 118 979 93 965 l 307 858 l 494 979 q 538 936 518 968 z "},"ſ":{"ha":475,"x_min":57,"x_max":507,"o":"m 158 686 l 158 707 q 217 920 158 844 q 381 997 275 996 q 472 978 436 999 q 507 919 507 958 q 429 846 507 846 q 408 903 428 883 q 360 924 389 924 q 275 758 275 924 l 275 75 l 404 67 q 358 0 410 0 l 57 0 l 57 11 q 64 42 57 25 q 106 69 74 67 l 158 72 l 158 613 l 60 613 q 79 681 60 669 q 107 686 90 686 l 158 686 z "},"ƒ":{"ha":611,"x_min":68,"x_max":572,"o":"m 442 996 q 534 976 496 997 q 572 917 572 956 q 550 860 572 879 q 493 842 528 842 q 431 919 492 919 q 299 724 328 919 l 293 685 l 432 685 l 425 611 l 282 611 l 174 -135 l 68 -131 l 174 611 l 72 611 l 79 685 l 183 685 l 190 731 q 292 943 213 883 q 442 996 361 996 z "},"Ș":{"ha":704,"x_min":35,"x_max":667,"o":"m 667 286 q 572 68 667 157 q 319 -21 476 -21 q 121 24 207 -21 q 35 147 35 69 q 60 214 35 188 q 135 240 86 240 q 342 64 157 64 q 498 113 439 64 q 557 243 557 163 q 511 350 557 311 q 481 374 490 367 q 440 398 472 382 q 398 418 408 414 q 333 447 388 422 q 242 490 278 471 q 160 542 206 508 q 74 717 74 604 q 160 896 74 829 q 374 964 247 963 q 579 903 506 967 q 622 812 622 865 q 594 735 622 758 q 524 714 565 711 q 358 879 524 879 q 233 844 282 879 q 183 753 183 808 q 216 662 183 699 q 288 604 249 625 q 367 567 328 583 q 606 438 544 493 q 667 286 667 383 m 299 -66 q 311 -55 299 -66 q 360 -43 322 -43 q 421 -67 397 -43 q 444 -142 444 -90 q 403 -260 444 -194 q 314 -344 361 -325 q 293 -337 306 -349 q 281 -318 281 -325 q 349 -211 328 -287 q 296 -183 315 -207 q 276 -124 276 -158 q 299 -66 276 -89 z "},"ș":{"ha":564,"x_min":33,"x_max":531,"o":"m 531 201 q 531 157 531 201 q 456 45 531 113 q 257 -21 382 -22 q 100 16 168 -19 q 33 114 32 51 q 58 172 33 151 q 117 192 82 193 q 172 97 129 132 q 279 60 215 61 q 385 88 343 60 q 428 164 426 115 q 396 238 429 213 q 296 288 363 263 q 199 328 229 314 q 131 367 168 342 q 56 508 56 417 q 132 653 57 600 q 295 706 207 707 q 441 676 383 706 q 497 589 499 647 q 470 528 497 547 q 408 513 443 508 q 375 593 410 561 q 284 626 340 625 q 192 602 228 628 q 155 536 156 576 q 194 469 154 496 q 308 414 235 443 q 410 372 382 385 q 471 333 438 358 q 531 201 531 290 m 249 -74 q 261 -63 249 -74 q 310 -51 272 -51 q 371 -75 347 -51 q 394 -151 394 -99 q 353 -268 394 -203 q 264 -353 311 -333 q 243 -345 256 -357 q 231 -326 231 -333 q 299 -219 278 -296 q 246 -191 265 -215 q 226 -132 226 -167 q 249 -74 226 -97 z "},"Ț":{"ha":850,"x_min":28,"x_max":822,"o":"m 28 943 l 822 943 l 822 768 q 753 724 822 719 l 743 863 l 488 863 l 488 78 l 594 69 q 550 0 601 0 l 254 0 l 254 11 q 303 72 254 68 l 365 75 l 365 863 l 108 863 l 97 724 q 28 768 28 719 l 28 943 m 383 -66 q 394 -55 383 -66 q 443 -43 406 -43 q 504 -67 481 -43 q 528 -142 528 -90 q 486 -260 528 -194 q 397 -344 444 -325 q 376 -337 389 -349 q 364 -318 364 -325 q 432 -211 411 -287 q 379 -183 399 -207 q 360 -124 360 -158 q 383 -66 360 -89 z "},"ț":{"ha":535,"x_min":22,"x_max":517,"o":"m 244 613 l 244 210 q 263 106 244 139 q 328 74 281 74 q 409 85 375 74 q 490 135 443 97 q 508 119 500 132 q 517 92 517 107 q 446 13 517 49 q 307 -22 375 -22 q 166 37 204 -22 q 128 204 128 96 l 128 613 l 22 613 q 69 686 18 686 l 128 686 l 128 854 l 244 876 l 244 686 l 501 686 q 467 613 506 624 l 244 613 m 258 -74 q 269 -63 258 -74 q 318 -51 281 -51 q 379 -75 356 -51 q 403 -151 403 -99 q 361 -268 403 -203 q 272 -353 319 -333 q 251 -345 264 -357 q 239 -326 239 -333 q 307 -219 286 -296 q 254 -191 274 -215 q 235 -132 235 -167 q 258 -74 235 -97 z "},"ˆ":{"ha":833,"x_min":143,"x_max":604,"o":"m 421 957 l 604 786 q 561 743 585 754 l 374 864 l 185 743 q 143 786 160 757 l 329 957 q 421 957 376 967 z "},"ˇ":{"ha":833,"x_min":143,"x_max":604,"o":"m 374 858 l 561 979 q 604 936 585 968 l 421 765 q 329 765 376 756 l 143 936 q 185 979 160 965 l 374 858 z "},"ˉ":{"ha":833,"x_min":168,"x_max":547,"o":"m 168 886 l 547 886 l 547 803 l 168 803 l 168 886 z "},"˘":{"ha":833,"x_min":178,"x_max":617,"o":"m 399 851 q 568 961 526 851 l 617 939 q 549 809 606 865 q 397 753 493 753 q 244 808 300 753 q 178 939 189 864 l 226 963 q 285 886 242 921 q 399 851 328 851 z "},"˙":{"ha":663,"x_min":143,"x_max":301,"o":"m 279 840 q 268 829 279 840 q 222 818 257 818 q 165 840 188 818 q 143 897 143 863 q 165 953 143 931 q 222 975 188 975 q 279 953 257 975 q 301 897 301 931 q 279 840 301 863 z "},"˚":{"ha":663,"x_min":100,"x_max":356,"o":"m 273 924 q 264 932 273 924 q 228 940 256 940 q 183 924 200 940 q 167 878 167 907 q 183 833 167 850 q 228 817 200 817 q 273 833 256 817 q 290 878 290 850 q 273 924 290 907 m 100 877 q 100 905 100 877 q 136 967 100 932 q 230 1001 172 1001 q 322 968 288 1001 q 356 880 357 935 q 318 790 354 825 q 226 756 282 756 q 135 789 169 756 q 100 877 100 822 z "},"˛":{"ha":693,"x_min":190,"x_max":433,"o":"m 381 21 q 281 -92 281 -19 q 346 -164 281 -164 q 424 -133 383 -164 q 433 -154 429 -137 q 433 -181 436 -171 q 318 -228 400 -228 q 226 -199 261 -228 q 190 -113 190 -169 q 239 -11 190 -57 q 357 54 288 35 l 381 21 z "},"˜":{"ha":772,"x_min":117,"x_max":588,"o":"m 160 793 l 117 810 q 173 917 132 878 q 261 953 214 956 q 363 911 308 951 q 453 869 418 871 q 512 888 488 868 q 544 938 536 907 l 588 924 q 432 776 557 771 q 326 815 383 778 q 238 854 268 853 q 160 793 185 856 z "},"˝":{"ha":792,"x_min":254,"x_max":779,"o":"m 579 861 l 300 711 q 254 757 269 726 l 483 936 q 538 910 510 933 q 579 861 567 886 m 779 850 l 500 700 q 454 746 469 715 l 683 925 q 738 899 710 922 q 779 850 767 875 z "},"̦":{"ha":0,"x_min":-408,"x_max":-240,"o":"m -385 -74 q -374 -63 -385 -74 q -325 -51 -362 -51 q -264 -75 -287 -51 q -240 -151 -240 -99 q -282 -268 -240 -203 q -371 -353 -324 -333 q -392 -345 -379 -357 q -404 -326 -404 -333 q -336 -219 -357 -296 q -389 -191 -369 -215 q -408 -132 -408 -167 q -385 -74 -408 -97 z "},"π":{"ha":858,"x_min":15,"x_max":844,"o":"m 190 0 l 215 588 l 179 588 q 106 575 131 588 q 61 531 81 563 l 15 558 q 75 647 29 607 q 200 686 121 686 l 689 686 q 803 738 757 686 l 844 707 q 795 631 835 671 q 689 585 756 590 q 683 79 683 249 l 786 68 q 759 8 786 32 q 674 -17 732 -17 q 594 13 617 -17 q 572 100 571 42 q 581 585 578 460 l 329 586 l 306 0 l 190 0 z "},"ँ":{"ha":0,"x_min":-510,"x_max":58,"o":"m -287 1251 q -270 1266 -287 1251 q -239 1281 -253 1281 q -197 1247 -225 1281 q -168 1200 -168 1213 q -201 1157 -168 1188 q -249 1126 -235 1126 q -292 1160 -262 1126 q -321 1207 -321 1193 q -287 1251 -321 1221 m 58 1092 q -56 985 21 1036 q -217 933 -132 933 q -377 975 -301 933 q -510 1090 -453 1017 q -468 1136 -494 1117 q -365 1062 -410 1083 q -267 1040 -321 1040 q -26 1183 -121 1040 q 58 1092 28 1153 z "},"ं":{"ha":0,"x_min":-287,"x_max":-125,"o":"m -160 1000 q -178 985 -160 1000 q -211 969 -196 969 q -257 1005 -226 969 q -287 1056 -287 1040 q -252 1101 -287 1071 q -202 1132 -217 1132 q -156 1095 -187 1132 q -125 1044 -125 1058 q -160 1000 -125 1031 z "},"ः":{"ha":424,"x_min":100,"x_max":261,"o":"m 226 499 q 209 483 226 499 q 176 468 192 468 q 131 503 161 468 q 100 553 100 538 q 135 599 100 568 q 185 629 171 629 q 230 592 199 629 q 261 542 261 556 q 226 499 261 529 m 226 117 q 209 101 226 117 q 176 86 192 86 q 131 120 161 86 q 100 169 100 154 q 135 215 100 185 q 185 246 171 246 q 230 210 199 246 q 261 160 261 174 q 226 117 261 147 z "},"अ":{"ha":1019,"x_min":10,"x_max":1068,"o":"m 1068 746 l 872 746 l 872 -28 q 795 -12 832 -28 q 758 22 758 4 l 758 332 q 635 314 707 314 l 617 314 q 618 294 618 308 q 563 149 618 206 q 410 93 507 93 q 176 191 279 93 q 10 443 74 289 q 74 478 38 472 q 211 269 140 340 q 376 199 282 199 q 476 231 442 199 q 511 315 511 263 q 477 401 511 368 q 390 435 443 435 q 300 417 338 435 q 246 514 261 449 q 456 692 456 571 q 366 769 456 769 q 188 682 276 769 q 122 786 140 725 q 324 867 224 867 q 486 810 425 867 q 547 671 547 754 q 454 501 547 563 q 593 397 553 471 q 758 450 690 411 l 758 746 l 632 746 q 597 849 597 788 l 1033 849 q 1068 746 1068 804 z "},"आ":{"ha":1406,"x_min":10,"x_max":1454,"o":"m 1454 746 l 1258 746 l 1258 -28 q 1181 -12 1218 -28 q 1143 22 1143 4 l 1143 746 l 872 746 l 872 -28 q 795 -12 832 -28 q 758 22 758 4 l 758 332 q 635 314 707 314 l 617 314 q 618 294 618 308 q 563 149 618 206 q 410 93 507 93 q 176 191 279 93 q 10 443 74 289 q 74 478 38 472 q 211 269 140 340 q 376 199 282 199 q 476 231 442 199 q 511 315 511 263 q 477 401 511 368 q 390 435 443 435 q 300 417 338 435 q 246 514 261 449 q 456 692 456 571 q 366 769 456 769 q 188 682 276 769 q 122 786 140 725 q 324 867 224 867 q 486 810 425 867 q 547 671 547 754 q 454 501 547 563 q 593 397 553 471 q 758 450 690 411 l 758 746 l 632 746 q 597 849 597 788 l 1419 849 q 1454 746 1454 804 z "},"इ":{"ha":675,"x_min":-50,"x_max":725,"o":"m 489 529 l 356 533 q 210 513 251 533 q 169 446 169 492 q 185 383 169 400 q 213 365 200 365 q 324 390 226 365 q 458 414 421 414 q 574 349 529 414 q 618 217 618 285 q 537 70 618 129 q 328 11 456 11 q 307 13 314 11 q 433 -151 400 -90 q 394 -190 425 -167 q 340 -221 363 -214 q 213 28 253 -29 q 109 73 150 44 q 68 138 68 101 q 94 199 68 174 q 149 224 121 224 q 253 119 200 224 q 325 111 283 111 q 474 153 408 111 q 540 252 540 194 q 486 310 540 310 q 375 286 460 310 q 263 263 290 263 q 135 329 196 263 q 75 476 75 396 q 125 595 75 556 q 267 635 175 635 l 428 635 l 428 746 l -14 746 q -50 849 -50 790 l 690 849 q 725 746 725 804 l 543 746 l 543 593 q 523 552 543 575 q 489 529 503 529 z "},"ई":{"ha":675,"x_min":-50,"x_max":725,"o":"m 489 529 l 356 533 q 210 513 251 533 q 169 446 169 492 q 185 383 169 400 q 213 365 200 365 q 324 390 226 365 q 458 414 421 414 q 574 349 529 414 q 618 217 618 285 q 537 70 618 129 q 328 11 456 11 q 307 13 314 11 q 433 -151 400 -90 q 394 -190 425 -167 q 340 -221 363 -214 q 213 28 253 -29 q 109 73 150 44 q 68 138 68 101 q 94 199 68 174 q 149 224 121 224 q 253 119 200 224 q 325 111 283 111 q 474 153 408 111 q 540 252 540 194 q 486 310 540 310 q 375 286 460 310 q 263 263 290 263 q 135 329 196 263 q 75 476 75 396 q 125 595 75 556 q 267 635 175 635 l 428 635 l 428 746 l -14 746 q -50 849 -50 790 l 444 849 q 331 1061 331 947 q 392 1205 331 1146 q 534 1264 453 1264 q 658 1227 615 1264 q 719 1138 701 1190 l 689 1114 q 570 1168 635 1168 q 472 1131 506 1168 q 439 1032 439 1093 q 526 849 439 933 l 690 849 q 725 746 725 804 l 543 746 l 543 593 q 523 552 543 575 q 489 529 503 529 z "},"उ":{"ha":736,"x_min":-50,"x_max":785,"o":"m 785 746 l 574 746 q 622 628 622 689 q 590 519 622 567 q 513 440 558 471 q 643 361 594 421 q 692 213 692 301 q 631 58 692 124 q 460 -7 569 -7 q 7 433 192 -7 q 74 467 33 457 q 239 196 156 288 q 429 104 322 104 q 538 141 497 104 q 578 240 578 178 q 540 338 578 303 q 446 372 501 372 q 344 356 390 372 q 296 456 308 396 q 403 494 340 464 q 521 640 521 554 q 469 746 521 701 l -14 746 q -50 849 -50 790 l 750 849 q 785 746 785 804 z "},"ऊ":{"ha":1068,"x_min":-50,"x_max":1119,"o":"m 1119 746 l 568 746 q 617 628 617 689 q 585 519 617 567 q 508 440 553 471 q 615 386 572 425 q 803 489 703 489 q 970 419 903 489 q 1038 247 1038 350 q 997 106 1038 171 q 894 -1 956 40 q 808 89 833 33 q 907 180 865 124 q 949 287 949 236 q 918 367 949 338 q 842 396 888 396 q 676 289 764 396 q 686 219 686 258 q 626 58 686 124 q 456 -7 565 -7 q 1 433 189 -7 q 68 467 28 457 q 234 197 150 289 q 425 104 318 104 q 533 141 493 104 q 574 240 574 178 q 535 338 574 303 q 442 372 497 372 q 340 356 386 372 q 292 456 304 396 q 397 494 335 463 q 517 640 517 556 q 465 746 517 701 l -14 746 q -50 849 -50 790 l 1083 849 q 1119 746 1119 806 z "},"ऋ":{"ha":965,"x_min":-39,"x_max":1014,"o":"m 551 746 l 551 456 q 706 479 647 456 q 688 535 688 507 q 721 594 688 564 q 783 625 754 625 q 831 596 813 625 q 850 533 850 567 q 808 464 850 499 q 891 362 861 411 q 921 251 921 313 q 884 132 921 189 q 792 36 847 75 q 714 117 744 61 q 832 281 832 189 q 753 424 832 342 q 551 358 660 372 l 551 -28 q 474 -12 511 -28 q 438 22 438 4 l 438 296 l 150 110 q 93 201 113 144 l 426 408 q 333 481 374 458 q 235 503 292 503 q 78 439 179 503 q 18 547 35 493 q 101 591 49 572 q 212 610 154 610 q 322 580 269 610 q 438 490 374 550 l 438 746 l -3 746 q -39 849 -39 790 l 979 849 q 1014 746 1014 804 l 551 746 z "},"ऌ":{"ha":965,"x_min":-53,"x_max":1015,"o":"m 746 746 l 746 608 q 842 543 807 589 q 876 433 876 497 q 825 294 876 361 q 803 266 818 285 q 782 238 789 247 q 754 203 775 228 q 722 167 733 179 q 693 103 693 132 q 754 58 693 58 q 885 140 815 58 q 956 57 938 99 q 781 -31 890 -31 q 655 15 707 -31 q 603 125 603 60 q 620 193 603 165 q 645 231 638 221 q 674 267 653 242 q 785 453 785 396 q 762 510 785 489 q 697 531 739 531 q 566 456 614 531 q 504 283 518 381 q 449 306 482 288 q 407 338 415 325 q 424 410 411 371 q 364 483 404 451 q 271 514 324 514 q 184 473 218 514 q 150 356 150 432 q 210 207 150 281 q 372 54 269 133 q 325 -6 351 17 q 38 408 38 201 q 104 565 38 510 q 251 621 171 621 q 381 577 331 621 q 454 483 431 533 q 632 617 521 603 l 632 746 l -17 746 q -53 849 -53 790 l 981 849 q 1015 746 1015 804 l 746 746 z "},"ऍ":{"ha":769,"x_min":-50,"x_max":819,"o":"m 644 28 q 652 17 644 28 q 668 -19 661 6 q 675 -87 675 -44 q 651 -170 675 -131 q 578 -257 626 -210 q 501 -168 535 -226 q 565 -122 540 -147 q 589 -82 589 -97 q 581 -54 589 -67 q 554 -26 572 -42 q 518 3 536 -11 q 470 36 500 17 q 419 68 440 56 q 250 176 282 150 q 186 239 218 203 q 124 450 124 314 l 124 746 l -14 746 q -50 849 -50 790 l 783 849 q 819 746 819 806 l 646 746 l 646 458 q 489 256 646 315 q 456 299 474 268 q 432 357 439 331 q 531 458 531 390 l 531 746 l 238 746 l 236 419 q 265 304 236 343 q 454 171 299 260 q 600 76 574 103 q 644 28 626 50 m 672 1174 q 558 1033 633 1090 q 383 975 482 975 q 212 1038 285 975 q 100 1192 139 1100 q 167 1228 126 1214 q 365 1078 253 1078 q 567 1240 496 1078 q 672 1174 622 1221 z "},"ऎ":{"ha":769,"x_min":-50,"x_max":819,"o":"m 644 28 q 652 17 644 28 q 668 -19 661 6 q 675 -87 675 -44 q 651 -170 675 -131 q 578 -257 626 -210 q 501 -168 535 -226 q 565 -122 540 -147 q 589 -82 589 -97 q 581 -54 589 -67 q 554 -26 572 -42 q 518 3 536 -11 q 470 36 500 17 q 419 68 440 56 q 250 176 282 150 q 186 239 218 203 q 124 450 124 314 l 124 746 l -14 746 q -50 849 -50 790 l 558 849 q 578 917 578 883 q 513 980 578 956 q 363 1016 447 1004 q 183 1053 278 1028 q 42 1122 89 1079 q -33 1282 -6 1165 l 17 1303 q 98 1196 56 1218 q 329 1135 140 1174 q 571 1069 518 1096 q 657 950 657 1028 q 632 849 657 904 l 783 849 q 819 746 819 806 l 646 746 l 646 458 q 489 256 646 315 q 456 299 474 268 q 432 357 439 331 q 531 458 531 390 l 531 746 l 238 746 l 236 419 q 265 304 236 343 q 454 171 299 260 q 600 76 574 103 q 644 28 626 50 z "},"ए":{"ha":769,"x_min":-50,"x_max":819,"o":"m 644 28 q 652 17 644 28 q 668 -19 661 6 q 675 -87 675 -44 q 651 -170 675 -131 q 578 -257 626 -210 q 501 -168 535 -226 q 565 -122 540 -147 q 589 -82 589 -97 q 581 -54 589 -67 q 554 -26 572 -42 q 518 3 536 -11 q 470 36 500 17 q 419 68 440 56 q 250 176 282 150 q 186 239 218 203 q 124 450 124 314 l 124 746 l -14 746 q -50 849 -50 790 l 783 849 q 819 746 819 806 l 646 746 l 646 458 q 489 256 646 315 q 456 299 474 268 q 432 357 439 331 q 531 458 531 390 l 531 746 l 238 746 l 236 419 q 265 304 236 343 q 454 171 299 260 q 600 76 574 103 q 644 28 626 50 z "},"ऐ":{"ha":799,"x_min":-36,"x_max":833,"o":"m 658 28 q 666 17 658 28 q 682 -19 675 6 q 689 -87 689 -44 q 665 -170 689 -131 q 592 -257 640 -210 q 515 -168 549 -226 q 578 -122 554 -147 q 603 -82 603 -97 q 594 -54 603 -67 q 568 -26 586 -42 q 532 3 550 -11 q 484 36 514 17 q 433 68 454 56 q 264 176 296 150 q 200 239 232 203 q 138 450 138 314 l 138 746 l 0 746 q -36 849 -36 790 l 544 849 q 481 966 517 908 q 386 1076 444 1024 q 275 1129 328 1129 q 76 1090 174 1129 q 56 1140 68 1103 q 40 1199 43 1176 q 126 1222 67 1210 q 238 1235 185 1235 q 348 1205 290 1235 q 449 1132 406 1175 q 531 1033 492 1089 q 632 849 592 946 l 799 849 q 833 746 833 804 l 660 746 l 660 458 q 503 256 660 315 q 469 300 488 268 q 446 357 451 332 q 544 458 544 390 l 544 746 l 251 746 l 250 419 q 279 304 250 343 q 468 171 313 260 q 614 76 588 103 q 658 28 640 50 z "},"ऑ":{"ha":1374,"x_min":10,"x_max":1424,"o":"m 1424 746 l 1226 746 l 1226 -28 q 1149 -12 1186 -28 q 1113 22 1113 4 l 1113 746 l 872 746 l 872 -28 q 795 -12 832 -28 q 758 22 758 4 l 758 332 q 635 314 707 314 l 617 314 q 618 294 618 308 q 563 149 618 206 q 410 93 507 93 q 176 191 279 93 q 10 443 74 289 q 74 478 38 472 q 211 269 140 340 q 376 199 282 199 q 476 231 442 199 q 511 315 511 263 q 477 401 511 368 q 390 435 443 435 q 300 417 338 435 q 246 514 261 449 q 456 692 456 571 q 366 769 456 769 q 188 682 276 769 q 122 786 140 725 q 324 867 224 867 q 486 810 425 867 q 547 671 547 754 q 454 501 547 563 q 593 397 553 471 q 758 450 690 411 l 758 746 l 632 746 q 597 849 597 788 l 1388 849 q 1424 746 1424 806 m 1299 1163 q 1184 1022 1260 1081 q 1010 964 1108 964 q 838 1026 911 964 q 726 1182 765 1089 q 793 1218 751 1201 q 887 1101 839 1136 q 992 1067 935 1067 q 1193 1229 1122 1067 q 1299 1163 1253 1208 z "},"ऒ":{"ha":1374,"x_min":10,"x_max":1424,"o":"m 1424 746 l 1226 746 l 1226 -28 q 1149 -12 1186 -28 q 1113 22 1113 4 l 1113 746 l 872 746 l 872 -28 q 795 -12 832 -28 q 758 22 758 4 l 758 332 q 635 314 707 314 l 617 314 q 618 294 618 308 q 563 149 618 206 q 410 93 507 93 q 176 191 279 93 q 10 443 74 289 q 74 478 38 472 q 211 269 140 340 q 376 199 282 199 q 476 231 442 199 q 511 315 511 263 q 477 401 511 368 q 390 435 443 435 q 300 417 338 435 q 246 514 261 449 q 456 692 456 571 q 366 769 456 769 q 188 682 276 769 q 122 786 140 725 q 324 867 224 867 q 486 810 425 867 q 547 671 547 754 q 454 501 547 563 q 593 397 553 471 q 758 450 690 411 l 758 746 l 632 746 q 597 849 597 788 l 1136 849 q 1156 917 1156 883 q 1090 980 1156 956 q 940 1016 1025 1004 q 761 1053 856 1028 q 618 1123 667 1079 q 543 1282 569 1167 l 594 1303 q 637 1229 619 1251 q 686 1190 654 1207 q 906 1135 718 1174 q 1147 1069 1094 1096 q 1233 950 1233 1029 q 1208 849 1233 899 l 1388 849 q 1424 746 1424 806 z "},"ओ":{"ha":1381,"x_min":15,"x_max":1429,"o":"m 1429 746 l 1233 746 l 1233 -28 q 1156 -12 1193 -28 q 1118 22 1118 4 l 1118 746 l 879 746 l 879 -28 q 801 -12 839 -28 q 764 22 764 4 l 764 331 q 642 314 707 314 l 622 314 q 624 294 624 308 q 568 149 624 206 q 415 93 513 93 q 182 191 285 93 q 15 443 79 289 q 81 478 42 472 q 217 269 147 340 q 382 199 288 199 q 483 231 449 199 q 518 315 518 263 q 484 401 518 368 q 397 435 450 435 q 306 417 343 435 q 273 460 289 431 q 251 514 257 490 q 415 593 368 544 q 463 686 463 642 q 372 769 463 769 q 193 682 282 769 q 154 732 174 700 q 129 786 135 764 q 330 867 228 867 q 492 810 432 867 q 553 671 553 754 q 460 501 553 563 q 599 397 560 471 q 764 450 694 411 l 764 746 l 639 746 q 603 849 603 790 l 1113 849 q 1006 1022 1071 938 q 921 1100 968 1071 q 825 1129 874 1129 q 646 1090 739 1129 q 625 1140 638 1103 q 610 1199 613 1176 q 694 1222 633 1210 q 806 1235 754 1235 q 916 1205 857 1235 q 1018 1133 975 1175 q 1100 1033 1061 1090 q 1201 849 1167 936 l 1394 849 q 1429 746 1429 804 z "},"औ":{"ha":1375,"x_min":10,"x_max":1424,"o":"m 1424 746 l 1226 746 l 1226 -28 q 1149 -12 1186 -28 q 1113 22 1113 4 l 1113 746 l 872 746 l 872 -28 q 795 -12 832 -28 q 758 22 758 4 l 758 332 q 635 314 707 314 l 617 314 q 618 294 618 308 q 563 149 618 206 q 410 93 507 93 q 176 191 279 93 q 10 443 74 289 q 74 478 38 472 q 211 269 140 340 q 376 199 282 199 q 476 231 442 199 q 511 315 511 263 q 477 401 511 368 q 390 435 443 435 q 300 417 338 435 q 246 514 261 449 q 456 692 456 571 q 366 769 456 769 q 188 682 276 769 q 122 786 140 725 q 324 867 224 867 q 486 810 425 867 q 547 671 547 754 q 454 501 547 563 q 593 397 553 471 q 758 450 690 411 l 758 746 l 632 746 q 597 849 597 788 l 1093 849 q 998 938 1053 900 q 897 975 943 975 q 803 953 850 975 q 731 907 756 931 q 674 1007 693 944 q 753 1052 703 1032 q 851 1072 803 1072 q 1086 943 954 1072 q 867 1164 972 1164 q 714 1101 790 1164 q 686 1146 706 1110 q 658 1210 667 1182 q 842 1264 739 1264 q 963 1223 904 1264 q 1065 1117 1022 1182 q 1189 849 1147 989 l 1388 849 q 1424 746 1424 806 z "},"क":{"ha":1032,"x_min":-50,"x_max":1079,"o":"m 601 746 l 601 522 q 768 590 678 590 q 922 523 858 590 q 986 347 986 456 q 851 106 986 197 q 771 194 804 136 q 865 286 828 232 q 903 391 903 340 q 872 469 903 442 q 797 496 842 496 q 601 367 700 496 l 601 -28 q 524 -12 561 -28 q 488 22 488 4 l 488 200 q 303 142 408 142 q 122 218 197 142 q 46 397 46 294 q 117 560 46 499 q 294 622 189 622 q 488 561 400 622 l 488 746 l -14 746 q -50 849 -50 790 l 1043 849 q 1079 746 1079 806 l 601 746 m 488 472 q 335 525 415 525 q 206 482 256 525 q 157 367 157 439 q 194 260 157 296 q 289 225 232 225 q 488 332 400 225 l 488 472 z "},"ख":{"ha":1076,"x_min":-50,"x_max":1125,"o":"m 1125 746 l 929 746 l 929 -28 q 851 -12 889 -28 q 814 22 814 4 l 814 207 q 668 161 746 161 q 480 237 556 161 q 404 413 404 313 q 475 567 404 513 q 640 622 546 622 q 814 571 735 622 l 814 746 l 311 746 q 332 578 332 660 q 151 283 332 297 q 600 35 256 107 q 563 -61 593 -15 q 347 5 449 -46 q 180 119 244 56 q 77 249 115 183 q 39 364 39 314 q 154 463 39 463 q 228 453 172 463 q 239 532 239 478 q 190 746 239 639 l -14 746 q -50 849 -50 790 l 1090 849 q 1125 746 1125 804 m 814 497 q 676 529 750 529 q 556 490 601 529 q 510 381 510 450 q 549 279 510 311 q 639 247 589 247 q 814 332 739 247 l 814 497 z "},"ग":{"ha":783,"x_min":-50,"x_max":832,"o":"m 832 746 l 636 746 l 636 -28 q 558 -12 596 -28 q 521 22 521 4 l 521 746 l 275 746 l 275 399 q 243 265 275 301 q 188 247 225 247 q 97 307 151 247 q 43 411 43 367 q 50 450 43 436 q 161 483 69 483 l 161 746 l -14 746 q -50 849 -50 790 l 797 849 q 832 746 832 804 z "},"घ":{"ha":835,"x_min":-50,"x_max":885,"o":"m 885 746 l 688 746 l 688 -28 q 610 -12 647 -28 q 574 22 574 4 l 574 199 q 375 143 481 143 q 199 201 269 143 q 128 343 128 258 q 183 486 128 428 q 50 663 50 535 q 71 746 50 708 l -14 746 q -50 849 -50 790 l 849 849 q 885 746 885 803 m 574 746 l 192 746 q 161 661 161 713 q 192 579 161 610 q 263 542 224 549 q 372 579 311 564 q 431 490 417 535 q 238 338 238 438 q 273 265 238 293 q 365 236 308 236 q 478 266 421 236 q 574 343 535 296 l 574 746 z "},"ङ":{"ha":793,"x_min":-50,"x_max":842,"o":"m 614 458 q 614 466 614 458 q 651 506 614 474 q 702 538 688 538 q 749 499 717 538 q 782 447 782 461 q 745 401 782 433 q 693 369 708 369 q 646 406 678 369 q 614 458 614 442 m 517 529 l 389 533 q 238 512 282 533 q 194 433 194 490 q 209 380 194 399 q 238 361 224 361 q 348 385 251 361 q 486 410 444 410 q 599 344 554 410 q 643 213 643 279 q 569 60 643 119 q 385 0 496 0 q 28 208 181 0 q 81 256 42 239 q 210 139 146 178 q 363 100 275 100 q 508 146 451 100 q 564 249 564 192 q 510 306 564 306 q 400 281 485 306 q 283 257 315 257 q 159 325 219 257 q 99 475 99 393 q 292 633 99 633 l 453 633 l 453 746 l -14 746 q -50 849 -50 790 l 806 849 q 842 746 842 803 l 567 746 l 567 594 q 548 553 567 578 q 517 529 529 529 z "},"च":{"ha":874,"x_min":-50,"x_max":924,"o":"m 924 746 l 728 746 l 728 -28 q 650 -12 688 -28 q 613 22 613 4 l 613 214 q 415 153 525 153 q 232 224 304 153 q 160 380 160 294 q 219 510 160 465 l 39 510 q 3 614 4 560 l 496 614 q 532 510 528 568 l 483 510 q 334 472 400 510 q 268 361 268 435 q 308 278 268 307 q 406 249 349 249 q 518 277 463 249 q 613 356 574 306 l 613 746 l -14 746 q -50 849 -50 790 l 888 849 q 924 746 924 806 z "},"छ":{"ha":925,"x_min":-50,"x_max":963,"o":"m 735 746 l 735 661 q 837 565 801 633 q 872 406 872 496 q 749 95 872 215 q 438 -25 626 -25 q 227 39 304 -25 q 150 186 150 103 q 208 324 150 269 q 93 399 135 346 q 51 516 51 451 q 101 627 51 581 q 228 674 150 674 q 345 631 306 674 q 393 540 385 589 q 361 524 378 528 q 265 582 319 582 q 186 556 211 582 q 161 488 161 529 q 194 412 161 446 q 269 369 226 378 q 386 410 338 404 q 443 317 425 368 q 320 275 375 310 q 265 183 265 240 q 305 96 265 126 q 419 65 344 65 q 676 173 569 65 q 782 432 782 281 q 753 547 782 510 q 686 585 725 585 q 623 560 647 585 q 599 486 599 536 q 688 343 599 403 q 657 296 681 315 q 485 508 485 371 q 525 622 485 576 q 632 675 565 668 l 632 746 l -14 746 q -50 849 -50 790 l 928 849 q 963 746 963 804 l 735 746 z "},"ज":{"ha":1033,"x_min":-39,"x_max":1082,"o":"m 1082 746 l 886 746 l 886 -28 q 809 -12 846 -28 q 772 22 772 4 l 772 471 l 511 471 q 596 267 596 369 q 551 143 596 189 q 438 97 506 97 q 317 124 369 97 q 224 196 264 151 q 147 304 183 240 q 40 579 82 422 q 113 606 71 603 q 219 342 150 461 q 301 244 254 281 q 396 208 349 208 q 471 233 443 208 q 499 306 499 257 q 389 515 499 392 q 408 552 393 531 q 432 576 424 574 l 772 576 l 772 746 l -3 746 q -39 849 -39 790 l 1047 849 q 1082 746 1082 804 z "},"झ":{"ha":992,"x_min":-50,"x_max":1042,"o":"m 1042 746 l 844 746 l 844 -28 q 767 -12 804 -28 q 731 22 731 4 l 731 297 q 599 271 671 275 q 606 217 606 239 q 524 70 606 129 q 315 11 443 11 q 294 13 301 11 q 421 -151 388 -90 q 381 -190 413 -167 q 328 -221 350 -214 q 200 28 240 -29 q 97 73 138 44 q 56 138 56 101 q 83 199 56 174 q 140 224 111 224 q 240 119 189 224 q 313 111 271 111 q 462 153 396 111 q 528 252 528 194 q 474 310 528 310 q 363 286 447 310 q 250 263 278 263 q 124 329 185 263 q 63 476 63 396 q 113 595 63 556 q 254 635 163 635 l 415 635 l 415 746 l -14 746 q -50 849 -50 790 l 1007 849 q 1042 746 1042 804 m 476 529 l 343 533 q 198 513 239 533 q 157 446 157 492 q 172 383 157 400 q 201 365 188 365 q 311 390 214 365 q 446 414 408 414 q 560 351 511 414 q 731 414 657 368 l 731 746 l 531 746 l 531 593 q 510 552 531 575 q 476 529 490 529 z "},"ञ":{"ha":1013,"x_min":-50,"x_max":1061,"o":"m 1061 746 l 865 746 l 865 -28 q 788 -12 825 -28 q 750 22 750 4 l 750 336 q 671 325 717 325 q 593 195 657 243 q 446 147 529 147 q 289 181 363 147 q 161 269 215 215 q 3 479 53 374 q 60 521 18 501 q 233 315 151 381 q 411 249 315 249 q 515 283 474 249 q 557 381 557 318 q 529 478 557 443 q 449 513 501 513 q 278 436 368 513 q 214 539 232 482 q 299 583 244 564 q 413 603 353 603 q 582 551 508 603 q 671 410 656 499 q 750 438 714 417 l 750 746 l -14 746 q -50 849 -50 790 l 1026 849 q 1061 746 1061 804 z "},"ट":{"ha":714,"x_min":-50,"x_max":763,"o":"m 557 746 l 557 563 q 541 526 556 546 q 514 503 526 507 q 431 510 465 510 q 228 458 301 510 q 156 311 156 406 q 217 170 156 217 q 367 124 278 124 q 626 256 526 124 q 703 174 676 225 q 572 69 653 111 q 389 28 490 28 q 146 114 242 28 q 50 329 50 200 q 141 534 50 458 q 375 610 232 610 q 443 606 408 610 l 443 746 l -14 746 q -50 849 -50 790 l 726 849 q 763 746 763 803 l 557 746 z "},"ठ":{"ha":782,"x_min":-50,"x_max":833,"o":"m 546 746 l 546 592 q 744 333 744 532 q 645 112 744 193 q 398 31 546 31 q 150 119 250 31 q 50 338 50 207 q 144 541 50 469 q 401 613 239 613 q 432 611 422 613 l 432 746 l -14 746 q -50 849 -50 790 l 797 849 q 833 746 833 806 l 546 746 m 157 308 q 216 173 157 224 q 383 122 275 122 q 571 188 490 122 q 651 354 651 254 q 439 515 651 515 q 239 465 321 515 q 157 308 157 414 z "},"ड":{"ha":679,"x_min":-50,"x_max":729,"o":"m 525 529 l 393 533 q 239 512 283 533 q 194 433 194 490 q 209 380 194 399 q 238 361 224 361 q 350 385 251 361 q 490 410 449 410 q 603 344 558 410 q 647 213 647 279 q 574 60 647 119 q 389 0 500 0 q 28 208 181 0 q 81 256 42 239 q 210 139 146 178 q 363 100 275 100 q 510 146 451 100 q 568 249 568 192 q 514 306 568 306 q 402 281 489 306 q 283 257 315 257 q 159 325 219 257 q 99 475 99 393 q 292 633 99 633 l 457 633 l 457 746 l -14 746 q -50 849 -50 790 l 693 849 q 729 746 729 806 l 571 746 l 571 590 q 554 554 569 574 q 525 529 539 535 z "},"ढ":{"ha":750,"x_min":-50,"x_max":800,"o":"m 529 521 l 432 529 q 226 472 289 529 q 164 327 164 414 q 225 188 164 240 q 388 135 286 135 q 431 138 403 135 q 376 269 376 200 q 419 383 376 338 q 531 428 461 428 q 653 385 601 428 q 704 269 704 343 q 624 112 704 176 q 396 47 543 47 q 153 135 249 47 q 57 350 57 224 q 144 552 57 476 q 385 628 231 628 q 458 624 422 628 l 458 746 l -14 746 q -50 849 -50 790 l 764 849 q 800 746 800 806 l 572 746 l 572 578 q 556 544 571 563 q 529 521 542 525 m 490 149 q 583 200 549 165 q 618 275 618 235 q 598 331 618 315 q 544 347 578 347 q 486 317 510 347 q 463 240 463 288 q 490 149 463 193 z "},"ण":{"ha":1053,"x_min":-50,"x_max":1103,"o":"m 1103 746 l 906 746 l 906 -28 q 828 -12 865 -28 q 790 22 790 4 l 790 746 l 593 746 l 593 471 q 533 272 593 344 q 360 199 472 199 q 173 276 247 199 q 99 496 99 354 l 99 746 l -14 746 q -50 849 -50 790 l 1067 849 q 1103 746 1103 803 m 478 465 l 478 746 l 214 746 l 214 506 q 247 347 214 411 q 354 283 281 283 q 442 324 407 283 q 478 465 478 365 z "},"त":{"ha":756,"x_min":-50,"x_max":804,"o":"m 804 746 l 608 746 l 608 -28 q 531 -12 568 -28 q 493 22 493 4 l 493 475 l 390 475 q 213 446 265 475 q 160 344 160 417 q 307 17 160 210 q 274 -12 296 3 q 242 -31 253 -28 q 47 389 47 229 q 132 545 47 499 q 388 592 217 592 l 493 592 l 493 746 l -14 746 q -50 849 -50 790 l 769 849 q 804 746 804 804 z "},"थ":{"ha":878,"x_min":90,"x_max":926,"o":"m 926 746 l 731 746 l 731 -28 q 653 -12 690 -28 q 615 22 615 4 l 615 204 q 426 154 528 154 q 205 243 294 154 q 99 456 115 332 q 372 669 372 497 q 346 758 372 728 q 281 789 319 789 q 216 766 242 789 q 190 704 190 743 q 261 592 190 643 q 228 549 250 565 q 90 725 90 615 q 138 827 90 788 q 270 867 186 867 q 417 803 354 867 q 481 647 481 740 q 410 480 481 553 q 204 375 339 407 q 417 260 274 260 q 615 346 540 260 l 615 746 l 544 746 q 510 849 510 792 l 892 849 q 926 746 926 804 z "},"द":{"ha":719,"x_min":-50,"x_max":769,"o":"m 564 746 l 564 578 q 544 541 564 563 q 513 519 525 519 q 418 529 444 529 q 156 324 156 529 q 215 188 156 236 q 357 139 275 139 q 486 168 439 139 q 460 247 460 201 q 501 322 460 292 q 578 351 543 351 q 629 325 613 351 q 646 257 646 299 q 603 133 646 185 q 750 -35 714 29 q 707 -78 739 -53 q 651 -112 675 -103 q 618 -47 640 -92 q 544 85 575 39 q 376 44 472 44 q 142 134 236 44 q 49 349 49 224 q 135 551 49 475 q 378 626 222 626 q 450 624 403 626 l 450 746 l -14 746 q -50 849 -50 790 l 733 849 q 769 746 769 803 l 564 746 z "},"ध":{"ha":903,"x_min":81,"x_max":951,"o":"m 951 746 l 756 746 l 756 -28 q 678 -12 715 -28 q 642 22 642 4 l 642 204 q 438 143 547 143 q 260 201 329 143 q 190 351 190 258 q 238 475 190 421 q 122 556 163 503 q 81 681 81 610 q 138 808 81 751 q 290 864 194 864 q 396 832 357 864 q 435 746 435 800 q 314 614 435 657 q 285 656 293 629 q 330 695 317 678 q 343 740 343 713 q 289 797 343 797 q 220 763 250 797 q 190 673 190 728 q 224 580 190 618 q 306 528 258 542 q 439 576 358 558 q 497 486 483 535 q 300 338 300 438 q 335 263 300 292 q 428 235 371 235 q 544 267 486 235 q 642 351 603 300 l 642 746 l 528 746 q 489 849 489 793 l 917 849 q 951 746 951 804 z "},"न":{"ha":761,"x_min":-50,"x_max":813,"o":"m 322 413 l 247 411 q 232 327 244 369 q 207 271 219 285 q 169 254 189 254 q 138 263 149 254 q 67 340 103 286 q 32 433 32 394 q 158 511 32 503 q 350 515 250 515 l 500 515 l 500 746 l -14 746 q -50 849 -50 790 l 776 849 q 813 746 813 803 l 614 746 l 614 -28 q 537 -12 574 -28 q 500 22 500 4 l 500 413 l 322 413 z "},"ऩ":{"ha":763,"x_min":-49,"x_max":813,"o":"m 324 413 l 249 411 q 233 327 246 369 q 206 269 221 285 q 171 254 190 254 q 138 263 151 254 q 67 341 103 286 q 32 433 32 396 q 158 511 32 503 q 350 515 253 515 l 500 515 l 500 746 l -14 746 q -49 849 -49 792 l 778 849 q 813 746 813 804 l 615 746 l 615 -28 q 538 -12 575 -28 q 500 22 500 4 l 500 413 l 324 413 m 164 49 q 164 57 164 49 q 201 97 164 65 q 252 129 238 129 q 299 91 267 129 q 332 39 332 53 q 295 -7 332 25 q 242 -39 258 -39 q 195 -3 226 -39 q 164 49 164 33 z "},"प":{"ha":806,"x_min":-50,"x_max":856,"o":"m 856 746 l 658 746 l 658 -28 q 581 -12 618 -28 q 544 22 544 4 l 544 250 q 374 197 464 197 q 181 289 246 197 q 115 529 115 381 l 115 746 l -14 746 q -50 849 -50 790 l 819 849 q 856 746 856 803 m 544 746 l 238 746 l 238 544 q 263 335 238 392 q 358 278 288 278 q 458 312 408 278 q 544 400 508 346 l 544 746 z "},"फ":{"ha":1089,"x_min":-50,"x_max":1136,"o":"m 644 746 l 644 506 q 824 581 728 581 q 985 514 921 581 q 1050 347 1050 447 q 1000 169 1050 247 q 886 42 950 92 q 804 132 839 69 q 961 372 961 242 q 930 458 961 431 q 854 486 899 486 q 644 335 750 486 l 644 -28 q 567 -12 604 -28 q 531 22 531 4 l 531 278 q 364 229 449 229 q 178 324 242 229 q 115 575 115 419 l 115 746 l -14 746 q -50 849 -50 790 l 1101 849 q 1136 746 1136 804 l 644 746 m 238 746 l 238 590 q 260 372 238 433 q 339 311 283 311 q 444 343 394 311 q 531 428 494 375 l 531 746 l 238 746 z "},"ब":{"ha":775,"x_min":-50,"x_max":825,"o":"m 825 746 l 628 746 l 628 -28 q 551 -12 588 -28 q 514 22 514 4 l 514 196 q 329 131 426 131 q 129 213 204 131 q 54 408 54 296 q 133 581 54 519 q 317 642 211 642 q 514 569 424 642 l 514 746 l -14 746 q -50 849 -50 790 l 789 849 q 825 746 825 803 m 199 482 q 160 365 160 436 q 201 256 160 294 q 302 218 243 218 q 426 254 361 218 l 199 482 m 353 542 q 260 525 300 542 l 486 296 q 514 325 506 315 l 514 488 q 353 542 443 542 z "},"भ":{"ha":997,"x_min":75,"x_max":1047,"o":"m 1047 746 l 850 746 l 850 -28 q 773 -12 810 -28 q 736 22 736 4 l 736 310 q 464 319 583 322 q 450 240 461 279 q 420 187 439 200 q 367 182 401 174 q 281 242 332 188 q 229 340 229 297 q 256 397 229 383 q 347 414 283 411 l 347 607 q 328 742 347 697 q 258 788 308 788 q 188 704 188 788 q 303 556 188 621 q 276 504 293 519 q 132 594 189 539 q 75 720 75 650 q 124 828 75 790 q 259 865 174 865 q 403 806 344 865 q 461 632 461 747 l 461 417 q 736 408 542 419 l 736 746 l 603 746 q 568 849 568 788 l 1011 849 q 1047 746 1047 806 z "},"म":{"ha":832,"x_min":-50,"x_max":882,"o":"m 882 746 l 685 746 l 685 -28 q 608 -12 644 -28 q 571 22 571 4 l 571 314 q 269 324 464 326 q 235 199 269 236 q 185 181 222 181 q 91 242 147 181 q 35 346 35 303 q 43 383 35 372 q 154 418 63 415 l 154 746 l -14 746 q -50 849 -50 790 l 846 849 q 882 746 882 803 m 571 746 l 268 746 l 268 419 q 571 414 414 422 l 571 746 z "},"य":{"ha":810,"x_min":-50,"x_max":860,"o":"m 860 746 l 663 746 l 663 -28 q 585 -12 622 -28 q 549 22 549 4 l 549 201 q 379 156 471 156 q 151 244 235 156 q 47 460 67 333 q 193 521 149 482 q 238 622 238 560 q 182 746 238 683 l -14 746 q -50 849 -50 790 l 825 849 q 860 746 860 804 m 549 746 l 289 746 q 350 603 350 679 q 299 468 350 526 q 147 386 247 410 q 363 263 208 263 q 549 340 476 263 l 549 746 z "},"र":{"ha":461,"x_min":-50,"x_max":511,"o":"m 511 746 l 322 746 q 342 557 342 660 q 296 388 342 454 q 160 321 250 322 q 440 22 235 197 q 404 -13 429 6 q 363 -39 379 -32 q 119 239 229 76 q 47 410 47 344 q 76 475 47 453 q 148 497 104 497 q 229 485 192 497 q 244 556 244 511 q 201 746 244 651 l -14 746 q -50 849 -50 790 l 475 849 q 511 746 511 803 z "},"ऱ":{"ha":456,"x_min":-50,"x_max":511,"o":"m 511 746 l 322 746 q 342 557 342 660 q 296 388 342 454 q 160 321 250 322 q 440 22 235 197 q 404 -13 429 6 q 363 -39 379 -32 q 119 239 229 76 q 47 410 47 344 q 76 475 47 453 q 148 497 104 497 q 229 485 192 497 q 244 556 244 511 q 201 746 244 651 l -14 746 q -50 849 -50 790 l 475 849 q 511 746 511 803 m 59 67 q 77 83 59 67 q 111 99 96 99 q 158 61 126 99 q 190 9 190 24 q 153 -37 190 -6 q 101 -69 117 -69 q 54 -33 86 -69 q 22 20 22 4 q 59 67 22 36 z "},"ल":{"ha":964,"x_min":-46,"x_max":1014,"o":"m 1014 746 l 817 746 l 817 -28 q 740 -12 776 -28 q 703 22 703 4 l 703 526 q 685 528 697 528 q 568 453 614 528 q 508 282 522 378 q 450 306 482 288 q 410 338 418 324 q 426 413 413 369 q 369 483 408 453 q 276 514 329 514 q 189 473 224 514 q 154 356 154 432 q 214 207 154 281 q 376 54 274 133 q 329 -6 356 17 q 43 408 43 201 q 109 566 43 511 q 254 621 175 621 q 383 578 333 621 q 458 486 433 536 q 658 619 533 619 q 703 613 682 619 l 703 746 l -10 746 q -46 849 -46 790 l 978 849 q 1014 746 1014 806 z "},"ळ":{"ha":992,"x_min":-50,"x_max":1042,"o":"m 781 746 l 781 622 q 908 535 861 603 q 954 360 954 467 q 883 174 954 253 q 704 96 811 96 q 572 133 631 96 q 476 225 513 169 q 283 99 390 99 q 116 174 192 99 q 40 369 40 249 q 105 560 40 490 q 279 631 169 631 q 513 507 421 631 q 665 625 581 606 l 665 746 l -14 746 q -50 849 -50 790 l 1006 849 q 1042 746 1042 803 l 781 746 m 345 235 q 364 254 345 235 q 397 301 382 274 q 426 356 411 328 q 447 394 442 383 q 465 426 453 404 q 482 458 476 449 q 318 531 413 531 q 177 472 224 531 q 131 344 131 414 q 167 235 131 274 q 256 196 203 196 q 345 235 308 196 m 510 281 q 669 186 589 186 q 803 253 749 186 q 857 407 857 321 q 830 501 857 464 q 750 539 803 539 q 688 523 710 539 q 654 499 667 507 q 626 469 642 490 q 602 440 610 449 q 578 403 594 431 q 510 281 571 390 z "},"ऴ":{"ha":992,"x_min":-50,"x_max":1042,"o":"m 781 746 l 781 622 q 908 535 861 603 q 954 360 954 467 q 883 174 954 253 q 704 96 811 96 q 572 133 631 96 q 476 225 513 169 q 283 99 390 99 q 116 174 192 99 q 40 369 40 249 q 105 560 40 490 q 279 631 169 631 q 513 507 421 631 q 665 625 581 606 l 665 746 l -14 746 q -50 849 -50 790 l 1006 849 q 1042 746 1042 803 l 781 746 m 345 235 q 364 254 345 235 q 397 301 382 274 q 426 356 411 328 q 447 394 442 383 q 465 426 453 404 q 482 458 476 449 q 318 531 413 531 q 177 472 224 531 q 131 344 131 414 q 167 235 131 274 q 256 196 203 196 q 345 235 308 196 m 510 281 q 669 186 589 186 q 803 253 749 186 q 857 407 857 321 q 830 501 857 464 q 750 539 803 539 q 688 523 710 539 q 654 499 667 507 q 626 469 642 490 q 602 440 610 449 q 578 403 594 431 q 510 281 571 390 m 269 -28 q 269 -21 269 -28 q 307 19 269 -14 q 359 51 344 51 q 406 14 374 51 q 438 -38 438 -24 q 401 -85 438 -53 q 349 -117 364 -117 q 301 -80 333 -117 q 269 -28 269 -43 z "},"व":{"ha":775,"x_min":-50,"x_max":824,"o":"m 824 746 l 628 746 l 628 -28 q 550 -12 588 -28 q 513 22 513 4 l 513 196 q 328 132 426 132 q 128 213 203 132 q 53 406 53 294 q 131 580 53 518 q 314 642 208 642 q 513 569 419 642 l 513 746 l -14 746 q -50 849 -50 790 l 789 849 q 824 746 824 804 m 513 486 q 355 540 439 540 q 216 496 271 540 q 161 370 161 451 q 202 255 161 289 q 295 221 243 221 q 410 253 347 221 q 513 335 472 286 l 513 486 z "},"श":{"ha":949,"x_min":-50,"x_max":997,"o":"m 997 746 l 801 746 l 801 -28 q 724 -12 761 -28 q 686 22 686 4 l 686 746 l 479 746 q 536 590 536 686 q 455 406 536 493 q 268 279 374 319 q 412 142 332 228 q 514 14 492 57 q 476 -27 504 -4 q 422 -61 447 -50 q 321 103 386 10 q 200 260 256 196 q 153 257 189 257 q 76 283 118 257 q 35 340 35 308 q 67 399 35 371 q 128 428 99 428 q 233 356 175 428 q 365 444 304 372 q 425 607 425 517 q 398 704 425 665 q 323 743 371 743 q 246 715 275 743 q 217 643 217 688 q 314 503 217 571 q 301 478 311 492 q 286 461 292 464 q 149 549 196 496 q 103 655 103 603 q 124 746 103 707 l -14 746 q -50 849 -50 790 l 963 849 q 997 746 997 804 z "},"ष":{"ha":817,"x_min":-50,"x_max":865,"o":"m 865 746 l 669 746 l 669 -28 q 592 -12 629 -28 q 556 22 556 4 l 556 247 q 376 193 474 193 q 218 244 279 193 q 135 372 157 296 q 113 547 113 447 l 113 746 l -14 746 q -50 849 -50 790 l 831 849 q 865 746 865 804 m 231 542 q 259 333 231 392 q 360 274 288 274 q 510 340 433 274 l 231 674 l 231 542 m 556 746 l 265 746 l 556 399 l 556 746 z "},"स":{"ha":883,"x_min":-50,"x_max":933,"o":"m 933 746 l 736 746 l 736 -28 q 658 -12 696 -28 q 621 22 621 4 l 621 353 q 496 338 563 338 q 285 381 369 338 q 165 331 242 338 q 291 166 208 258 q 438 21 374 74 q 363 -39 413 -17 q 229 107 311 8 q 53 418 53 319 q 81 484 53 463 q 153 506 110 506 q 235 493 197 506 q 250 565 250 522 q 201 746 250 649 l -14 746 q -50 849 -50 790 l 897 849 q 933 746 933 806 m 621 746 l 321 746 q 347 575 347 653 q 326 446 347 497 q 467 431 381 431 q 621 467 553 431 l 621 746 z "},"ह":{"ha":629,"x_min":-50,"x_max":679,"o":"m 485 519 l 333 519 q 207 504 240 519 q 174 457 174 489 q 224 363 174 408 q 358 390 288 390 q 531 328 472 390 q 589 193 589 267 q 557 97 589 143 q 474 35 525 51 q 441 76 461 44 q 414 129 421 107 q 480 172 454 146 q 506 228 506 199 q 473 275 506 257 q 373 293 440 293 q 253 253 306 293 q 200 155 200 213 q 231 55 200 97 q 318 -19 261 13 q 560 -114 411 -72 q 533 -187 551 -164 q 242 -67 367 -143 q 128 38 171 -24 q 86 168 86 99 q 163 325 86 263 q 67 496 67 411 q 276 626 67 626 l 418 626 l 418 746 l -14 746 q -50 849 -50 790 l 643 849 q 679 746 679 803 l 532 746 l 532 581 q 515 541 532 563 q 485 519 499 519 z "},"़":{"ha":0,"x_min":-439,"x_max":-271,"o":"m -271 -151 q -271 -158 -271 -151 q -307 -197 -271 -165 q -359 -228 -343 -228 q -407 -192 -375 -228 q -439 -140 -439 -156 q -401 -92 -439 -125 q -350 -60 -364 -60 q -303 -98 -336 -60 q -271 -151 -271 -136 z "},"ऽ":{"ha":742,"x_min":40,"x_max":688,"o":"m 285 693 q 440 506 285 631 q 664 265 619 361 q 688 163 688 214 q 625 36 688 79 q 456 -7 563 -7 q 237 65 350 -7 q 40 274 124 138 q 72 300 50 286 q 113 318 94 314 q 221 190 181 226 q 441 109 314 110 q 568 199 568 108 q 549 267 568 239 q 519 311 531 296 q 484 347 507 326 q 448 381 461 368 q 406 417 435 393 q 228 590 279 522 q 178 721 178 657 q 229 821 178 785 q 372 857 281 857 l 607 857 q 642 753 642 813 l 414 753 q 317 741 349 753 q 285 693 285 729 z "},"ा":{"ha":408,"x_min":-50,"x_max":458,"o":"m 458 746 l 261 746 l 261 -28 q 184 -12 221 -28 q 147 22 147 4 l 147 746 l -14 746 q -50 849 -50 790 l 422 849 q 458 746 458 806 z "},"ि":{"ha":408,"x_min":-50,"x_max":1000,"o":"m -50 849 l 138 849 q 68 1015 68 921 q 167 1175 68 1108 q 411 1242 265 1242 q 621 1207 517 1242 q 800 1122 725 1172 q 1000 940 951 1019 q 958 901 985 914 q 428 1131 708 1131 q 247 1094 318 1131 q 175 990 175 1058 q 235 849 175 921 l 422 849 q 458 746 458 806 l 261 746 l 261 -28 q 184 -12 221 -28 q 147 22 147 4 l 147 746 l -14 746 q -50 849 -50 790 z "},"ी":{"ha":408,"x_min":-303,"x_max":457,"o":"m 457 746 l 261 746 l 261 -28 q 184 -12 221 -28 q 147 22 147 4 l 147 746 l -14 746 q -50 849 -50 790 l 157 849 q 103 972 135 914 q 16 1081 72 1031 q -94 1132 -40 1132 q -207 1021 -207 1132 q -179 914 -207 965 q -229 890 -207 892 q -278 959 -254 910 q -303 1074 -303 1008 q -256 1187 -303 1140 q -140 1233 -210 1233 q -15 1203 -71 1233 q 82 1130 42 1174 q 156 1031 122 1086 q 240 849 217 932 l 422 849 q 457 746 457 804 z "},"ु":{"ha":0,"x_min":-646,"x_max":4,"o":"m -368 -54 q -211 -11 -303 -11 q -58 -69 -119 -11 q 4 -210 4 -128 q -52 -343 4 -292 q -203 -394 -108 -394 q -450 -297 -328 -394 q -646 -76 -572 -200 q -620 -50 -639 -65 q -585 -29 -601 -35 q -225 -285 -415 -285 q -120 -258 -158 -285 q -82 -193 -82 -231 q -106 -133 -82 -156 q -186 -110 -129 -110 q -308 -150 -243 -110 q -368 -54 -351 -107 z "},"ू":{"ha":0,"x_min":-447,"x_max":201,"o":"m -76 -351 q -233 -394 -140 -394 q -386 -336 -325 -394 q -447 -196 -447 -278 q -392 -62 -447 -114 q -240 -11 -336 -11 q 6 -108 -115 -11 q 201 -328 128 -204 q 177 -355 196 -339 q 142 -376 158 -371 q -218 -119 -26 -119 q -324 -147 -286 -119 q -361 -212 -361 -174 q -337 -274 -361 -251 q -256 -296 -314 -296 q -135 -254 -197 -296 q -76 -351 -89 -303 z "},"ृ":{"ha":0,"x_min":-382,"x_max":-19,"o":"m -299 -153 q -278 -199 -299 -182 q -228 -217 -258 -217 q -156 -199 -197 -217 q -87 -147 -115 -181 q -19 -222 -42 -185 q -100 -282 -50 -260 q -215 -304 -150 -304 q -331 -260 -279 -304 q -382 -138 -382 -215 q -331 -9 -382 -61 q -201 67 -279 43 q -169 23 -187 56 q -147 -28 -151 -10 q -253 -74 -208 -43 q -299 -153 -299 -106 z "},"ॅ":{"ha":0,"x_min":-510,"x_max":56,"o":"m 56 1136 q -60 995 15 1053 q -233 938 -136 938 q -402 998 -331 938 q -510 1149 -474 1058 q -443 1185 -486 1168 q -249 1036 -367 1036 q -47 1200 -118 1036 q 56 1136 13 1178 z "},"ॆ":{"ha":0,"x_min":-422,"x_max":268,"o":"m 182 1069 q 268 953 268 1029 q 228 818 268 878 l 156 826 q 190 910 190 867 q 125 980 190 954 q -24 1016 60 1006 q -203 1053 -108 1026 q -346 1122 -297 1079 q -422 1282 -394 1165 q -371 1303 -421 1283 q -286 1193 -340 1219 q -58 1134 -244 1172 q 182 1069 128 1096 z "},"े":{"ha":0,"x_min":-762,"x_max":-167,"o":"m -547 1129 q -728 1090 -631 1129 q -762 1199 -754 1140 q -679 1222 -739 1210 q -567 1235 -619 1235 q -452 1202 -514 1235 q -346 1123 -390 1169 q -262 1017 -301 1076 q -167 833 -199 921 l -244 817 q -458 1103 -337 1031 q -547 1129 -503 1129 z "},"ै":{"ha":0,"x_min":-699,"x_max":-161,"o":"m -515 1264 q -388 1219 -450 1264 q -282 1103 -326 1174 q -161 825 -197 968 l -243 819 q -342 926 -279 876 q -456 975 -406 975 q -554 953 -507 975 q -626 907 -601 931 q -683 1007 -661 942 q -604 1052 -654 1032 q -506 1072 -554 1072 q -271 943 -403 1072 q -490 1164 -385 1164 q -643 1101 -562 1164 q -671 1146 -651 1110 q -699 1210 -690 1182 q -515 1264 -617 1264 z "},"ॉ":{"ha":408,"x_min":-101,"x_max":458,"o":"m 458 746 l 261 746 l 261 -28 q 184 -12 221 -28 q 147 22 147 4 l 147 746 l -14 746 q -50 849 -50 790 l 422 849 q 458 746 458 806 m 453 1133 q 338 992 414 1050 q 166 933 263 933 q 3 995 69 933 q -101 1149 -64 1057 q -46 1182 -76 1169 q 150 1033 32 1033 q 351 1196 281 1033 q 453 1133 407 1176 z "},"ॊ":{"ha":408,"x_min":-432,"x_max":458,"o":"m 458 746 l 261 746 l 261 -28 q 184 -12 221 -28 q 147 22 147 4 l 147 746 l -14 746 q -50 849 -50 790 l 157 849 q 181 921 181 890 q 115 987 181 961 q -35 1024 50 1013 q -214 1060 -119 1035 q -356 1129 -308 1086 q -432 1289 -404 1172 q -407 1301 -426 1293 q -381 1310 -387 1308 q -296 1201 -354 1229 q -67 1141 -254 1179 q 172 1076 119 1103 q 258 957 258 1035 q 231 849 258 907 l 422 849 q 458 746 458 806 z "},"ो":{"ha":408,"x_min":-369,"x_max":458,"o":"m 458 746 l 261 746 l 261 -28 q 184 -12 221 -28 q 147 22 147 4 l 147 746 l -14 746 q -50 849 -50 790 l 136 849 q -154 1129 0 1129 q -333 1090 -236 1129 q -369 1199 -362 1143 q -285 1222 -346 1210 q -174 1235 -225 1235 q -63 1205 -122 1235 q 39 1132 -4 1175 q 122 1033 82 1089 q 222 849 181 949 l 422 849 q 458 746 458 806 z "},"ौ":{"ha":408,"x_min":-310,"x_max":458,"o":"m 458 746 l 261 746 l 261 -28 q 184 -12 221 -28 q 147 22 147 4 l 147 746 l -14 746 q -50 849 -50 790 l 125 849 q 31 938 86 900 q -71 975 -24 975 q -165 952 -118 975 q -237 907 -212 929 q -294 1007 -272 942 q -215 1052 -264 1032 q -117 1072 -165 1072 q 119 943 -12 1072 q -101 1164 6 1164 q -254 1101 -174 1164 q -282 1146 -262 1110 q -310 1210 -301 1182 q -126 1264 -225 1264 q -3 1223 -62 1264 q 99 1117 56 1182 q 222 849 181 989 l 422 849 q 458 746 458 806 z "},"्":{"ha":0,"x_min":-379,"x_max":71,"o":"m -379 -100 q -287 -94 -337 -94 q -196 -110 -236 -94 q 71 -326 -71 -156 q 25 -368 53 -351 q -187 -204 -87 -235 q -271 -194 -222 -194 q -361 -201 -319 -194 q -379 -100 -382 -156 z "},"ॐ":{"ha":1578,"x_min":214,"x_max":1474,"o":"m 905 1074 q 922 1088 905 1074 q 953 1103 939 1103 q 995 1069 967 1103 q 1024 1022 1024 1035 q 990 979 1024 1010 q 943 949 957 949 q 900 983 929 949 q 871 1031 871 1017 q 905 1074 871 1044 m 971 756 q 682 913 818 756 q 724 960 696 940 q 830 884 788 906 q 925 863 872 863 q 1165 1006 1069 863 q 1250 915 1222 975 q 1136 808 1213 860 q 971 756 1060 756 m 1388 433 q 1388 476 1388 433 q 1353 565 1388 519 q 1281 611 1319 611 q 1215 595 1242 611 q 1164 543 1189 579 q 1083 400 1124 485 q 1153 285 1111 331 q 1248 239 1194 239 q 1344 293 1301 239 q 1388 433 1388 347 m 363 738 q 567 817 463 817 q 730 760 672 817 q 788 615 788 704 q 694 454 788 508 q 819 368 775 428 q 886 321 863 321 q 925 335 910 321 q 956 377 940 350 q 999 460 971 404 q 1049 551 1028 515 q 1103 631 1071 588 q 1253 717 1167 717 q 1406 627 1339 717 q 1474 408 1474 538 q 1412 202 1474 279 q 1264 125 1350 125 q 1043 322 1136 125 q 922 221 988 221 q 863 244 890 221 q 806 84 863 143 q 650 25 750 25 q 397 135 515 25 q 214 399 278 244 q 275 432 240 425 q 429 212 342 294 q 617 129 517 129 q 720 165 683 129 q 757 258 757 200 q 726 353 757 315 q 641 390 694 390 q 544 367 588 390 q 486 465 501 403 q 699 647 699 528 q 621 721 699 721 q 426 633 518 721 q 363 738 381 678 z "},"॑":{"ha":0,"x_min":-228,"x_max":-132,"o":"m -228 1313 l -132 1313 l -132 981 l -228 981 l -228 1313 z "},"॒":{"ha":0,"x_min":-779,"x_max":-112,"o":"m -112 -301 l -779 -301 l -779 -210 l -112 -210 l -112 -301 z "},"॓":{"ha":447,"x_min":69,"x_max":367,"o":"m 69 1235 l 146 1296 l 367 1026 l 290 967 l 69 1235 z "},"॔":{"ha":444,"x_min":74,"x_max":371,"o":"m 294 1296 l 371 1235 l 149 967 l 74 1026 l 294 1296 z "},"क़":{"ha":1026,"x_min":-58,"x_max":1071,"o":"m 593 746 l 593 522 q 760 590 669 590 q 914 523 850 590 q 978 347 978 456 q 842 106 978 197 q 763 194 796 136 q 856 286 819 232 q 893 391 893 340 q 863 469 893 442 q 788 496 832 496 q 593 367 692 496 l 593 -28 q 515 -12 553 -28 q 478 22 478 4 l 478 199 q 293 142 397 142 q 113 218 189 142 q 38 397 38 294 q 109 560 38 499 q 285 622 181 622 q 478 561 390 622 l 478 746 l -22 746 q -58 849 -58 790 l 1035 849 q 1071 746 1071 803 l 593 746 m 478 472 q 326 525 406 525 q 198 482 247 525 q 149 367 149 439 q 186 260 149 296 q 281 225 224 225 q 478 331 388 225 l 478 472 m 79 20 q 79 28 79 20 q 116 68 79 36 q 167 100 153 100 q 215 62 182 100 q 247 10 247 24 q 210 -36 247 -4 q 158 -68 174 -68 q 110 -32 142 -68 q 79 20 79 4 z "},"ख़":{"ha":1074,"x_min":-57,"x_max":1118,"o":"m 1118 746 l 922 746 l 922 -28 q 844 -12 882 -28 q 807 22 807 4 l 807 207 q 661 161 739 161 q 473 237 549 161 q 397 413 397 313 q 468 567 397 513 q 633 622 539 622 q 807 571 728 622 l 807 746 l 304 746 q 325 578 325 660 q 144 283 325 297 q 593 35 246 107 q 556 -61 586 -15 q 340 5 442 -46 q 173 119 238 56 q 70 249 108 183 q 32 364 32 314 q 147 463 32 463 q 225 451 183 463 q 232 532 232 483 q 183 746 232 639 l -21 746 q -57 849 -57 790 l 1083 849 q 1118 746 1118 804 m 807 497 q 669 529 743 529 q 549 490 594 529 q 503 381 503 450 q 542 279 503 311 q 632 247 582 247 q 807 332 732 247 l 807 497 m -40 39 q -40 47 -40 39 q -3 86 -40 54 q 49 118 35 118 q 96 81 64 118 q 128 28 128 43 q 91 -18 128 14 q 39 -50 54 -50 q -8 -13 24 -50 q -40 39 -40 24 z "},"ग़":{"ha":790,"x_min":-46,"x_max":835,"o":"m 835 746 l 639 746 l 639 -28 q 562 -12 599 -28 q 525 22 525 4 l 525 746 l 279 746 l 279 399 q 246 265 279 301 q 191 247 228 247 q 100 307 154 247 q 46 411 46 367 q 53 450 46 436 q 164 483 75 483 l 164 746 l -11 746 q -46 849 -46 788 l 800 849 q 835 746 835 804 m 107 33 q 107 41 107 33 q 144 81 107 49 q 195 113 181 113 q 242 74 210 113 q 275 22 275 36 q 238 -24 275 8 q 185 -56 201 -56 q 138 -19 169 -56 q 107 33 107 17 z "},"ज़":{"ha":1007,"x_min":-58,"x_max":1063,"o":"m 1063 746 l 867 746 l 867 -28 q 790 -12 826 -28 q 753 22 753 4 l 753 471 l 492 471 q 576 267 576 369 q 531 143 576 189 q 418 97 486 97 q 297 124 350 97 q 204 196 244 151 q 128 304 164 240 q 21 579 63 422 q 93 606 51 603 q 200 342 131 461 q 282 244 235 281 q 376 208 329 208 q 451 233 424 208 q 479 306 479 257 q 369 515 479 392 q 389 552 374 531 q 413 576 404 574 l 753 576 l 753 746 l -22 746 q -58 849 -58 790 l 1028 849 q 1063 746 1063 804 m 385 8 q 404 24 385 8 q 438 40 422 40 q 485 3 453 40 q 517 -49 517 -35 q 480 -96 517 -64 q 428 -128 443 -128 q 381 -91 413 -128 q 349 -39 349 -54 q 385 8 349 -24 z "},"ड़":{"ha":661,"x_min":-53,"x_max":726,"o":"m 522 529 l 390 533 q 236 512 281 533 q 192 433 192 490 q 206 379 192 397 q 234 361 219 361 q 347 385 249 361 q 486 410 446 410 q 599 345 554 410 q 643 213 643 281 q 570 59 643 118 q 386 0 497 0 q 25 208 178 0 q 78 256 39 239 q 207 140 142 179 q 360 100 272 100 q 507 146 449 100 q 565 249 565 192 q 511 306 565 306 q 399 281 486 306 q 281 257 313 257 q 156 325 217 257 q 96 475 96 393 q 289 633 96 633 l 454 633 l 454 746 l -17 746 q -53 849 -53 790 l 690 849 q 726 746 726 803 l 568 746 l 568 590 q 551 554 567 574 q 522 529 536 535 m 285 -140 q 285 -132 285 -140 q 322 -92 285 -124 q 373 -60 358 -60 q 420 -98 388 -60 q 453 -150 453 -136 q 416 -196 453 -164 q 363 -228 379 -228 q 316 -192 347 -228 q 285 -140 285 -156 z "},"ढ़":{"ha":742,"x_min":-47,"x_max":803,"o":"m 532 521 l 435 529 q 228 472 292 529 q 165 327 165 414 q 227 188 165 240 q 390 135 289 135 q 432 138 407 135 q 378 269 378 200 q 420 383 378 338 q 533 428 463 428 q 656 385 604 428 q 707 269 707 343 q 626 112 707 176 q 398 47 546 47 q 154 135 250 47 q 58 350 58 224 q 146 552 58 476 q 388 628 233 628 q 461 624 425 628 l 461 746 l -11 746 q -47 849 -47 790 l 767 849 q 803 746 803 803 l 575 746 l 575 578 q 559 544 574 563 q 532 521 544 525 m 621 283 q 547 347 621 347 q 489 317 513 347 q 465 241 465 288 q 492 149 465 194 q 621 283 618 183 m 340 -122 q 340 -114 340 -122 q 377 -74 340 -106 q 428 -42 414 -42 q 476 -80 443 -42 q 508 -132 508 -118 q 472 -178 508 -146 q 419 -210 435 -210 q 372 -174 403 -210 q 340 -122 340 -137 z "},"फ़":{"ha":1097,"x_min":-65,"x_max":1119,"o":"m 629 746 l 629 507 q 809 581 714 581 q 969 514 904 581 q 1033 347 1033 447 q 983 169 1033 247 q 869 42 933 92 q 788 132 822 69 q 944 372 944 240 q 913 458 944 431 q 838 486 882 486 q 629 336 735 486 l 629 -28 q 551 -12 589 -28 q 514 22 514 4 l 514 278 q 347 229 436 229 q 162 324 225 229 q 99 575 99 419 l 99 746 l -31 746 q -65 849 -65 788 l 1085 849 q 1119 746 1119 804 l 629 746 m 221 746 l 221 590 q 244 372 221 433 q 322 311 267 311 q 426 342 376 311 q 514 426 476 374 l 514 746 l 221 746 m 146 79 q 146 87 146 79 q 183 126 146 94 q 234 158 219 158 q 281 121 249 158 q 314 69 314 83 q 277 22 314 54 q 225 -10 240 -10 q 178 27 210 -10 q 146 79 146 64 z "},"य़":{"ha":797,"x_min":-60,"x_max":850,"o":"m 850 746 l 653 746 l 653 -28 q 575 -12 613 -28 q 538 22 538 4 l 538 201 q 368 156 460 156 q 140 244 224 156 q 36 460 56 333 q 183 521 138 482 q 228 621 228 560 q 171 746 228 682 l -24 746 q -60 849 -60 790 l 814 849 q 850 746 850 803 m 538 746 l 278 746 q 340 604 340 681 q 288 469 340 528 q 136 386 236 410 q 351 263 197 263 q 538 339 467 263 l 538 746 m 92 20 q 92 28 92 20 q 128 67 92 36 q 180 99 165 99 q 227 61 194 99 q 260 9 260 24 q 223 -37 260 -6 q 170 -69 186 -69 q 123 -33 154 -69 q 92 20 92 4 z "},"ॠ":{"ha":1044,"x_min":-51,"x_max":1089,"o":"m 940 285 q 790 165 790 254 q 811 117 790 136 q 863 99 832 99 q 999 165 938 99 q 1060 88 1043 125 q 981 34 1031 54 q 870 14 932 14 q 760 60 808 14 q 711 176 711 106 q 806 335 711 275 q 728 413 746 372 q 547 358 665 378 l 547 -28 q 471 -10 508 -28 q 433 22 433 7 l 433 296 l 146 110 q 89 201 106 149 l 422 408 q 328 481 369 458 q 231 503 288 503 q 74 439 175 503 q 14 547 31 493 q 97 592 46 574 q 207 610 149 610 q 317 581 265 610 q 433 490 369 551 l 433 746 l -17 746 q -51 849 -51 792 l 1053 849 q 1089 746 1089 803 l 547 746 l 547 454 q 701 479 636 454 q 682 534 682 503 q 716 595 682 565 q 781 625 750 625 q 828 596 811 625 q 846 532 846 567 q 796 458 846 497 q 819 411 800 439 q 861 365 839 383 l 893 379 q 924 332 910 363 q 940 285 939 301 z "},"ॡ":{"ha":1015,"x_min":-49,"x_max":1063,"o":"m 750 746 l 750 607 q 840 542 807 588 q 874 438 874 497 q 842 325 874 376 q 769 224 810 272 q 719 164 729 176 q 692 103 692 132 q 753 60 692 60 q 883 142 814 60 q 953 57 936 99 q 807 -26 907 -4 q 760 -62 779 -39 q 740 -112 740 -85 q 761 -156 740 -139 q 813 -172 782 -172 q 946 -86 876 -172 q 1014 -158 999 -129 q 931 -226 983 -201 q 816 -251 879 -251 q 707 -208 753 -251 q 661 -109 661 -164 q 697 -11 661 -54 q 626 44 651 7 q 600 126 600 81 q 675 272 600 188 q 782 456 782 392 q 697 531 782 531 q 564 455 613 531 q 501 285 515 379 q 446 308 479 289 q 406 339 413 326 q 421 410 410 369 q 363 483 403 451 q 269 514 322 514 q 183 473 217 514 q 149 356 149 432 q 208 206 149 281 q 369 54 267 132 q 322 -6 349 17 q 36 408 36 203 q 102 565 36 510 q 250 621 168 621 q 453 485 381 621 q 635 619 519 604 l 635 746 l -12 746 q -49 849 -49 790 l 1028 849 q 1063 746 1063 804 l 750 746 z "},"।":{"ha":513,"x_min":192,"x_max":308,"o":"m 192 26 l 192 844 q 273 827 238 844 q 308 786 308 810 l 308 -26 q 231 -10 269 -28 q 192 26 192 7 z "},"॥":{"ha":810,"x_min":192,"x_max":613,"o":"m 496 26 l 496 844 q 577 827 542 844 q 613 786 613 810 l 613 -26 q 535 -10 574 -28 q 496 26 496 7 m 192 26 l 192 844 q 273 827 238 844 q 308 786 308 810 l 308 -26 q 231 -10 269 -28 q 192 26 192 7 z "},"०":{"ha":685,"x_min":72,"x_max":599,"o":"m 500 407 q 500 453 500 407 q 452 549 500 499 q 335 599 404 599 q 219 544 267 599 q 172 402 172 490 q 217 258 172 314 q 340 201 263 201 q 459 258 418 201 q 500 407 500 315 m 72 419 q 72 485 72 419 q 138 626 72 551 q 318 701 203 701 q 516 608 433 701 q 599 380 599 514 q 533 173 599 246 q 356 100 467 100 q 158 193 244 100 q 72 419 72 286 z "},"१":{"ha":647,"x_min":107,"x_max":554,"o":"m 443 651 q 413 739 443 706 q 331 772 383 772 q 250 744 279 772 q 221 674 221 715 q 333 525 221 593 q 299 476 321 493 q 107 696 107 564 q 160 816 107 765 q 308 867 213 867 q 478 802 403 867 q 554 622 554 738 q 460 405 554 506 q 254 264 367 304 q 460 92 389 171 q 531 -67 531 13 q 516 -147 531 -106 q 479 -211 501 -189 q 422 -195 464 -212 q 372 -167 381 -178 q 415 -56 415 -108 q 135 265 415 51 l 136 315 q 349 448 256 349 q 443 651 443 547 z "},"२":{"ha":726,"x_min":68,"x_max":594,"o":"m 115 786 q 326 867 215 867 q 509 796 438 867 q 581 608 581 725 q 501 403 581 490 q 318 275 422 317 q 478 101 385 210 q 594 -49 572 -7 q 549 -90 583 -65 q 489 -124 514 -114 q 374 66 447 -46 q 238 253 301 178 q 189 251 226 251 q 110 280 151 251 q 68 338 68 308 q 102 399 68 368 q 167 429 136 429 q 268 358 210 429 q 411 471 347 390 q 475 644 475 551 q 444 735 475 706 q 367 765 414 765 q 178 688 289 765 q 115 786 136 722 z "},"३":{"ha":735,"x_min":124,"x_max":649,"o":"m 354 865 q 514 803 457 865 q 571 663 571 742 q 476 494 571 558 q 604 423 560 476 q 649 301 649 369 q 571 139 649 207 q 369 60 493 71 q 496 -87 465 -33 q 453 -126 485 -104 q 393 -160 421 -149 q 278 60 318 1 q 165 108 207 71 q 124 174 124 144 q 156 231 124 204 q 219 258 189 258 q 331 142 279 258 q 482 193 426 147 q 538 300 538 239 q 410 421 538 421 q 299 396 353 421 q 249 501 265 431 q 418 571 358 521 q 478 683 478 621 q 455 745 478 724 q 392 767 432 767 q 196 683 304 767 q 131 790 143 754 q 233 844 169 822 q 354 865 296 865 z "}}}
